<?xml version="1.0" standalone="no"?>
<!DOCTYPE svg PUBLIC "-//W3C//DTD SVG 20010904//EN"
 "http://www.w3.org/TR/2001/REC-SVG-20010904/DTD/svg10.dtd">
<svg version="1.0" xmlns="http://www.w3.org/2000/svg"
 width="489.000000pt" height="489.000000pt" viewBox="0 0 489.000000 489.000000"
 preserveAspectRatio="xMidYMid meet">
<metadata>
Created by potrace 1.11, written by Peter Selinger 2001-2013
</metadata>
<g transform="translate(0.000000,489.000000) scale(0.100000,-0.100000)"
fill="#000000" stroke="none">
<path d="M2205 4877 c-691 -70 -1272 -571 -1445 -1245 -11 -43 -22 -94 -25
-113 -3 -19 -9 -58 -14 -88 -16 -102 -11 -319 10 -421 38 -181 164 -573 224
-692 8 -17 15 -34 15 -39 0 -9 178 -412 256 -579 69 -148 705 -1416 730 -1457
63 -99 139 -165 235 -204 68 -28 238 -36 315 -15 146 39 250 139 346 333 25
51 29 68 23 103 -12 70 -68 109 -138 96 -42 -8 -73 -42 -117 -130 -52 -102
-98 -150 -163 -168 -56 -16 -130 -15 -184 3 -75 24 -104 74 -470 807 -192 383
-364 731 -383 772 -147 327 -185 414 -240 550 -170 419 -234 651 -234 850 -1
397 174 778 483 1052 159 142 413 277 587 312 10 3 41 9 68 15 109 26 342 35
471 19 295 -36 589 -178 806 -389 233 -226 357 -463 425 -814 3 -16 7 -91 9
-165 6 -196 -26 -339 -162 -710 -44 -122 -46 -133 -29 -174 33 -80 139 -96
197 -30 35 40 176 459 205 609 2 11 9 45 15 75 22 99 16 347 -10 486 -40 210
-143 463 -250 614 -17 25 -39 56 -48 70 -66 99 -239 269 -373 367 -175 127
-466 251 -655 278 -22 4 -47 8 -55 10 -68 18 -303 25 -425 12z"/>
<path d="M2207 4294 c-409 -66 -738 -349 -866 -743 -61 -186 -68 -350 -25
-576 9 -50 55 -176 87 -240 75 -150 206 -304 339 -398 116 -83 295 -162 409
-181 19 -3 45 -8 59 -11 53 -13 249 -12 325 1 111 18 112 18 88 -9 -24 -26
-76 -117 -67 -117 4 0 2 -6 -4 -12 -18 -23 -32 -107 -32 -190 0 -104 10 -134
165 -453 48 -99 114 -236 147 -305 124 -258 188 -390 267 -553 44 -93 81 -170
81 -172 0 -13 78 -134 107 -166 50 -55 129 -104 214 -133 63 -21 89 -25 169
-22 116 4 126 6 217 51 219 108 335 382 258 607 -8 26 -59 137 -112 245 -52
109 -117 243 -143 298 -26 55 -79 165 -118 245 -121 252 -223 463 -255 530
-42 90 -87 158 -133 203 -84 83 -222 144 -332 146 l-33 1 63 54 c317 269 452
700 346 1101 -25 93 -76 220 -107 263 -11 17 -21 33 -21 37 0 3 -25 39 -55 79
-160 213 -409 369 -667 417 -90 16 -280 18 -371 3z m264 -228 c97 -7 242 -58
343 -118 191 -117 328 -301 387 -523 30 -112 30 -298 0 -410 -102 -383 -432
-643 -819 -647 -365 -3 -695 231 -813 576 -38 111 -44 152 -43 291 1 128 20
220 71 335 116 263 378 458 668 496 28 3 51 7 52 8 3 2 37 1 154 -8z m657
-1985 c83 -33 117 -77 219 -290 109 -224 194 -401 263 -546 26 -55 98 -203
160 -330 61 -126 122 -256 136 -287 80 -191 -58 -392 -262 -382 -109 5 -189
67 -251 194 -19 41 -66 138 -103 215 -37 77 -105 217 -150 310 -45 94 -102
211 -125 260 -24 50 -88 183 -143 297 -111 229 -112 233 -117 288 -9 119 67
235 182 276 52 18 140 16 191 -5z"/>
<path d="M2128 3780 c-124 -37 -296 -221 -333 -356 -5 -16 -9 -33 -11 -39 -30
-97 -27 -259 6 -355 26 -75 39 -96 76 -121 50 -33 138 -8 162 47 17 36 15 72
-9 139 -60 172 9 359 168 451 26 16 53 33 59 39 56 54 39 156 -32 190 -35 17
-46 17 -86 5z"/>
</g>
</svg>
