<?xml version="1.0" standalone="no"?>
<!DOCTYPE svg PUBLIC "-//W3C//DTD SVG 20010904//EN"
 "http://www.w3.org/TR/2001/REC-SVG-20010904/DTD/svg10.dtd">
<svg version="1.0" xmlns="http://www.w3.org/2000/svg"
 width="190.000000pt" height="190.000000pt" viewBox="0 0 190.000000 190.000000"
 preserveAspectRatio="xMidYMid meet">
<metadata>
Created by potrace 1.11, written by Peter Selinger 2001-2013
</metadata>
<g transform="translate(0.000000,190.000000) scale(0.100000,-0.100000)"
fill="#000000" stroke="none">
<path d="M780 1884 c-315 -59 -578 -271 -703 -564 -50 -118 -69 -206 -73 -340
-8 -271 88 -514 276 -701 280 -278 711 -356 1064 -191 115 54 186 103 271 187
143 141 244 337 274 530 14 89 5 278 -17 369 -61 248 -228 472 -447 598 -188
108 -438 152 -645 112z m385 -113 c305 -86 520 -302 607 -609 19 -64 22 -101
21 -217 0 -121 -4 -152 -27 -228 -83 -277 -283 -485 -552 -573 -105 -34 -175
-43 -294 -39 -122 5 -139 8 -240 41 -270 91 -473 307 -552 591 -22 82 -31 271
-16 360 10 57 53 183 82 241 74 147 223 294 373 370 60 31 188 72 242 79 25 3
48 8 51 10 12 12 240 -8 305 -26z"/>
<path d="M844 1478 c-50 -17 -114 -52 -151 -82 -8 -6 -34 -37 -58 -69 -121
-160 -109 -375 29 -532 15 -16 79 -106 143 -200 65 -93 129 -187 144 -207 l26
-37 129 187 c71 103 157 224 191 271 96 127 122 243 87 377 -60 232 -313 369
-540 292z"/>
</g>
</svg>
