<?xml version="1.0" encoding="UTF-8"?>
<svg width="43px" height="35px" viewBox="0 0 43 35" version="1.1" xmlns="http://www.w3.org/2000/svg" xmlns:xlink="http://www.w3.org/1999/xlink">
    <!-- Generator: Sketch 48.1 (47250) - http://www.bohemiancoding.com/sketch -->
    <title>Group 4</title>
    <desc>Created with Sketch.</desc>
    <defs></defs>
    <g id="logo-copy" stroke="none" stroke-width="1" fill="none" fill-rule="evenodd" transform="translate(-8.000000, -8.000000)">
        <g id="Group-4" transform="translate(9.000000, 8.000000)" stroke="#5E82FF" stroke-width="2">
            <path d="M23.5308246,33.4804742 L27.2950053,28.0208206 C28.8352191,26.4168858 29.7858641,24.2138723 29.7858641,21.7827438 C29.7858641,16.8770102 25.9149772,12.9001273 21.1399961,12.9001273 C16.3650151,12.9001273 12.4941281,16.8770102 12.4941281,21.7827438 C12.4941281,24.2138723 13.4447732,26.4168858 14.9849869,28.0208206 L18.7491676,33.4804742 L7.02327633,33.4804742 C6.8686366,33.4804742 6.74327633,33.3551139 6.74327633,33.2004742 L6.74327633,13.5973378 L1.12620618,13.5973378 C0.971566452,13.5973378 0.846206182,13.4719775 0.846206182,13.3173378 C0.846206182,13.2196105 0.897159794,13.1289542 0.980642931,13.0781489 L20.7781618,1.02996881 C20.8676093,0.975533705 20.9799548,0.975555531 21.0693812,1.03002539 L40.8495897,13.0782054 C40.9816589,13.1586491 41.0235096,13.3309248 40.9430659,13.462994 C40.8922483,13.5464243 40.8016221,13.5973378 40.7039335,13.5973378 L35.7604088,13.5973378 L35.7604088,33.2004742 C35.7604088,33.3551139 35.6350485,33.4804742 35.4804088,33.4804742 L23.5308246,33.4804742 Z" id="Combined-Shape" stroke-linecap="round" stroke-linejoin="round"></path>
            <ellipse id="Oval" cx="20.9151764" cy="22.6537312" rx="3.62022754" ry="3.60891433"></ellipse>
        </g>
    </g>
</svg>