<?xml version="1.0" encoding="UTF-8"?>
<svg width="263px" height="35px" viewBox="0 0 263 35" version="1.1" xmlns="http://www.w3.org/2000/svg" xmlns:xlink="http://www.w3.org/1999/xlink">
    <!-- Generator: Sketch 48.1 (47250) - http://www.bohemiancoding.com/sketch -->
    <title>Caminos de la Villa</title>
    <desc>Created with Sketch.</desc>
    <defs></defs>
    <g id="logo-copy" stroke="none" stroke-width="1" fill="none" fill-rule="evenodd" transform="translate(-8.000000, -8.000000)">
        <g id="Group-4" transform="translate(9.000000, 8.000000)" stroke="#5E82FF" stroke-width="2">
            <path d="M23.5308246,33.4804742 L27.2950053,28.0208206 C28.8352191,26.4168858 29.7858641,24.2138723 29.7858641,21.7827438 C29.7858641,16.8770102 25.9149772,12.9001273 21.1399961,12.9001273 C16.3650151,12.9001273 12.4941281,16.8770102 12.4941281,21.7827438 C12.4941281,24.2138723 13.4447732,26.4168858 14.9849869,28.0208206 L18.7491676,33.4804742 L7.02327633,33.4804742 C6.8686366,33.4804742 6.74327633,33.3551139 6.74327633,33.2004742 L6.74327633,13.5973378 L1.12620618,13.5973378 C0.971566452,13.5973378 0.846206182,13.4719775 0.846206182,13.3173378 C0.846206182,13.2196105 0.897159794,13.1289542 0.980642931,13.0781489 L20.7781618,1.02996881 C20.8676093,0.975533705 20.9799548,0.975555531 21.0693812,1.03002539 L40.8495897,13.0782054 C40.9816589,13.1586491 41.0235096,13.3309248 40.9430659,13.462994 C40.8922483,13.5464243 40.8016221,13.5973378 40.7039335,13.5973378 L35.7604088,13.5973378 L35.7604088,33.2004742 C35.7604088,33.3551139 35.6350485,33.4804742 35.4804088,33.4804742 L23.5308246,33.4804742 Z" id="Combined-Shape" stroke-linecap="round" stroke-linejoin="round"></path>
            <ellipse id="Oval" cx="20.9151764" cy="22.6537312" rx="3.62022754" ry="3.60891433"></ellipse>
        </g>
        <path d="M80.7539062,30.4453125 C80.5820304,32.2656341 79.9101621,33.6855418 78.7382812,34.7050781 C77.5664004,35.7246145 76.0078222,36.234375 74.0625,36.234375 C72.7031182,36.234375 71.5058646,35.9121126 70.4707031,35.2675781 C69.4355417,34.6230437 68.6367216,33.7070372 68.0742188,32.5195312 C67.5117159,31.3320253 67.2187501,29.9531329 67.1953125,28.3828125 L67.1953125,26.7890625 C67.1953125,25.1796795 67.4804659,23.7617249 68.0507812,22.5351562 C68.6210966,21.3085876 69.4394478,20.3632846 70.5058594,19.6992188 C71.572271,19.0351529 72.8046805,18.703125 74.203125,18.703125 C76.0859469,18.703125 77.6015568,19.2148386 78.75,20.2382812 C79.8984432,21.2617239 80.5664053,22.7070219 80.7539062,24.5742188 L77.8007812,24.5742188 C77.6601555,23.3476501 77.3027372,22.4628933 76.7285156,21.9199219 C76.154294,21.3769504 75.3125055,21.1054688 74.203125,21.1054688 C72.9140561,21.1054688 71.9238316,21.5761672 71.2324219,22.5175781 C70.5410122,23.4589891 70.1875001,24.8398346 70.171875,26.6601562 L70.171875,28.171875 C70.171875,30.0156342 70.5019498,31.4218702 71.1621094,32.390625 C71.8222689,33.3593798 72.7890561,33.84375 74.0625,33.84375 C75.2265683,33.84375 76.1015596,33.5820339 76.6875,33.0585938 C77.2734404,32.5351536 77.6445305,31.6640686 77.8007812,30.4453125 L80.7539062,30.4453125 Z M90.703125,36 C90.5781244,35.7578113 90.4687505,35.363284 90.375,34.8164062 C89.4687455,35.7617235 88.3593816,36.234375 87.046875,36.234375 C85.7734311,36.234375 84.734379,35.8710974 83.9296875,35.1445312 C83.124996,34.4179651 82.7226562,33.5195366 82.7226562,32.4492188 C82.7226562,31.0976495 83.2246044,30.0605505 84.2285156,29.3378906 C85.2324269,28.6152308 86.6679594,28.2539062 88.5351562,28.2539062 L90.28125,28.2539062 L90.28125,27.421875 C90.28125,26.7656217 90.0976581,26.2402363 89.7304688,25.8457031 C89.3632794,25.4511699 88.8046913,25.2539062 88.0546875,25.2539062 C87.4062468,25.2539062 86.8750021,25.416014 86.4609375,25.7402344 C86.0468729,26.0644547 85.8398438,26.47656 85.8398438,26.9765625 L82.9921875,26.9765625 C82.9921875,26.2812465 83.2226539,25.6308624 83.6835938,25.0253906 C84.1445336,24.4199188 84.7714804,23.9453142 85.5644531,23.6015625 C86.3574258,23.2578108 87.2421826,23.0859375 88.21875,23.0859375 C89.7031324,23.0859375 90.8867143,23.4589806 91.7695312,24.2050781 C92.6523482,24.9511756 93.1054686,25.9999932 93.1289062,27.3515625 L93.1289062,33.0703125 C93.1289062,34.2109432 93.2890609,35.1210904 93.609375,35.8007812 L93.609375,36 L90.703125,36 Z M87.5742188,33.9492188 C88.1367216,33.9492188 88.6660131,33.8125014 89.1621094,33.5390625 C89.6582056,33.2656236 90.0312488,32.8984398 90.28125,32.4375 L90.28125,30.046875 L88.7460938,30.046875 C87.691401,30.046875 86.8984402,30.2304669 86.3671875,30.5976562 C85.8359348,30.9648456 85.5703125,31.4843716 85.5703125,32.15625 C85.5703125,32.7031277 85.7519513,33.1386703 86.1152344,33.4628906 C86.4785174,33.787111 86.9648407,33.9492188 87.5742188,33.9492188 Z M98.7890625,23.3203125 L98.8710938,24.6445312 C99.7617232,23.6054636 100.980461,23.0859375 102.527344,23.0859375 C104.222665,23.0859375 105.382809,23.7343685 106.007812,25.03125 C106.929692,23.7343685 108.226554,23.0859375 109.898438,23.0859375 C111.296882,23.0859375 112.337887,23.4726524 113.021484,24.2460938 C113.705082,25.0195351 114.054687,26.1601487 114.070312,27.6679688 L114.070312,36 L111.222656,36 L111.222656,27.75 C111.222656,26.9453085 111.046877,26.3554706 110.695312,25.9804688 C110.343748,25.6054669 109.761723,25.4179688 108.949219,25.4179688 C108.300778,25.4179688 107.771486,25.5917951 107.361328,25.9394531 C106.95117,26.2871111 106.664063,26.7421847 106.5,27.3046875 L106.511719,36 L103.664062,36 L103.664062,27.65625 C103.625,26.164055 102.863289,25.4179688 101.378906,25.4179688 C100.238276,25.4179688 99.4296899,25.8828079 98.953125,26.8125 L98.953125,36 L96.1054688,36 L96.1054688,23.3203125 L98.7890625,23.3203125 Z M120.023438,36 L117.175781,36 L117.175781,23.3203125 L120.023438,23.3203125 L120.023438,36 Z M117,20.0273438 C117,19.5898416 117.13867,19.2265639 117.416016,18.9375 C117.693361,18.6484361 118.089841,18.5039062 118.605469,18.5039062 C119.121096,18.5039062 119.51953,18.6484361 119.800781,18.9375 C120.082033,19.2265639 120.222656,19.5898416 120.222656,20.0273438 C120.222656,20.4570334 120.082033,20.8144517 119.800781,21.0996094 C119.51953,21.3847671 119.121096,21.5273438 118.605469,21.5273438 C118.089841,21.5273438 117.693361,21.3847671 117.416016,21.0996094 C117.13867,20.8144517 117,20.4570334 117,20.0273438 Z M125.765625,23.3203125 L125.847656,24.7851562 C126.785161,23.6523381 128.015617,23.0859375 129.539062,23.0859375 C132.179701,23.0859375 133.523437,24.5976411 133.570312,27.6210938 L133.570312,36 L130.722656,36 L130.722656,27.7851562 C130.722656,26.9804647 130.54883,26.3847676 130.201172,25.9980469 C129.853514,25.6113262 129.28516,25.4179688 128.496094,25.4179688 C127.347651,25.4179688 126.49219,25.9374948 125.929688,26.9765625 L125.929688,36 L123.082031,36 L123.082031,23.3203125 L125.765625,23.3203125 Z M135.9375,29.5429688 C135.9375,28.300775 136.183591,27.1816456 136.675781,26.1855469 C137.167971,25.1894481 137.859371,24.4238308 138.75,23.8886719 C139.640629,23.3535129 140.664057,23.0859375 141.820312,23.0859375 C143.531259,23.0859375 144.919917,23.6367132 145.986328,24.7382812 C147.05274,25.8398493 147.628906,27.3007721 147.714844,29.1210938 L147.726562,29.7890625 C147.726562,31.0390687 147.486331,32.1562451 147.005859,33.140625 C146.525388,34.1250049 145.837895,34.8867161 144.943359,35.4257812 C144.048824,35.9648464 143.015631,36.234375 141.84375,36.234375 C140.054679,36.234375 138.623052,35.6386778 137.548828,34.4472656 C136.474604,33.2558534 135.9375,31.6679787 135.9375,29.6835938 L135.9375,29.5429688 Z M138.785156,29.7890625 C138.785156,31.0937565 139.054685,32.1152307 139.59375,32.8535156 C140.132815,33.5918006 140.882808,33.9609375 141.84375,33.9609375 C142.804692,33.9609375 143.552732,33.5859412 144.087891,32.8359375 C144.62305,32.0859338 144.890625,30.9882885 144.890625,29.5429688 C144.890625,28.2617123 144.615237,27.2460975 144.064453,26.4960938 C143.513669,25.74609 142.76563,25.3710938 141.820312,25.3710938 C140.89062,25.3710938 140.152346,25.7402307 139.605469,26.4785156 C139.058591,27.2168006 138.785156,28.3203052 138.785156,29.7890625 Z M157.242188,32.5546875 C157.242188,32.0468725 157.033205,31.6601576 156.615234,31.3945313 C156.197264,31.1289049 155.503911,30.8945323 154.535156,30.6914063 C153.566401,30.4882802 152.757816,30.2304703 152.109375,29.9179688 C150.687493,29.2304653 149.976562,28.2343815 149.976562,26.9296875 C149.976562,25.835932 150.437495,24.9218787 151.359375,24.1875 C152.281255,23.4531213 153.453118,23.0859375 154.875,23.0859375 C156.390633,23.0859375 157.61523,23.4609338 158.548828,24.2109375 C159.482427,24.9609412 159.949219,25.9335878 159.949219,27.1289062 L157.101562,27.1289062 C157.101562,26.5820285 156.89844,26.1269549 156.492188,25.7636719 C156.085935,25.4003888 155.546878,25.21875 154.875,25.21875 C154.249997,25.21875 153.740236,25.3632798 153.345703,25.6523438 C152.95117,25.9414077 152.753906,26.3281226 152.753906,26.8125 C152.753906,27.2500022 152.937498,27.5898425 153.304688,27.8320312 C153.671877,28.07422 154.414057,28.3183581 155.53125,28.5644531 C156.648443,28.8105481 157.525387,29.1035139 158.162109,29.4433594 C158.798831,29.7832048 159.271483,30.1914039 159.580078,30.6679688 C159.888673,31.1445336 160.042969,31.7226529 160.042969,32.4023438 C160.042969,33.5429745 159.570317,34.4667933 158.625,35.1738281 C157.679683,35.8808629 156.441414,36.234375 154.910156,36.234375 C153.871089,36.234375 152.945317,36.0468769 152.132812,35.671875 C151.320308,35.2968731 150.687502,34.7812533 150.234375,34.125 C149.781248,33.4687467 149.554688,32.7617225 149.554688,32.0039062 L152.320312,32.0039062 C152.359375,32.6757846 152.613279,33.1933576 153.082031,33.5566406 C153.550784,33.9199237 154.171871,34.1015625 154.945312,34.1015625 C155.695316,34.1015625 156.265623,33.9589858 156.65625,33.6738281 C157.046877,33.3886704 157.242188,33.0156273 157.242188,32.5546875 Z M167.964844,29.5664062 C167.964844,27.6132715 168.417964,26.0449278 169.324219,24.8613281 C170.230473,23.6777285 171.445305,23.0859375 172.96875,23.0859375 C174.312507,23.0859375 175.398433,23.5546828 176.226562,24.4921875 L176.226562,18 L179.074219,18 L179.074219,36 L176.496094,36 L176.355469,34.6875 C175.503902,35.7187552 174.367195,36.234375 172.945312,36.234375 C171.46093,36.234375 170.25977,35.6367247 169.341797,34.4414062 C168.423824,33.2460878 167.964844,31.621104 167.964844,29.5664062 Z M170.8125,29.8125 C170.8125,31.1015689 171.060544,32.1074183 171.556641,32.8300781 C172.052737,33.552738 172.757808,33.9140625 173.671875,33.9140625 C174.835943,33.9140625 175.687497,33.3945364 176.226562,32.3554688 L176.226562,26.9414062 C175.703122,25.9257762 174.859381,25.4179688 173.695312,25.4179688 C172.773433,25.4179688 172.062502,25.7831995 171.5625,26.5136719 C171.062498,27.2441443 170.8125,28.3437427 170.8125,29.8125 Z M187.628906,36.234375 C185.82421,36.234375 184.361334,35.6660213 183.240234,34.5292969 C182.119135,33.3925724 181.558594,31.8789157 181.558594,29.9882812 L181.558594,29.6367188 C181.558594,28.3710874 181.802732,27.2402394 182.291016,26.2441406 C182.779299,25.2480419 183.464839,24.472659 184.347656,23.9179688 C185.230473,23.3632785 186.214838,23.0859375 187.300781,23.0859375 C189.027352,23.0859375 190.361323,23.6367132 191.302734,24.7382812 C192.244145,25.8398493 192.714844,27.3984274 192.714844,29.4140625 L192.714844,30.5625 L184.429688,30.5625 C184.515625,31.6093802 184.865231,32.437497 185.478516,33.046875 C186.0918,33.656253 186.863277,33.9609375 187.792969,33.9609375 C189.097663,33.9609375 190.160152,33.433599 190.980469,32.3789062 L192.515625,33.84375 C192.00781,34.6015663 191.330082,35.189451 190.482422,35.6074219 C189.634761,36.0253927 188.683599,36.234375 187.628906,36.234375 Z M187.289062,25.3710938 C186.507809,25.3710938 185.876956,25.6445285 185.396484,26.1914062 C184.916013,26.738284 184.609376,27.4999951 184.476562,28.4765625 L189.902344,28.4765625 L189.902344,28.265625 C189.839843,27.3124952 189.58594,26.5917993 189.140625,26.1035156 C188.69531,25.6152319 188.078129,25.3710938 187.289062,25.3710938 Z M203.929688,36 L201.082031,36 L201.082031,18 L203.929688,18 L203.929688,36 Z M214.605469,36 C214.480468,35.7578113 214.371094,35.363284 214.277344,34.8164062 C213.371089,35.7617235 212.261725,36.234375 210.949219,36.234375 C209.675775,36.234375 208.636723,35.8710974 207.832031,35.1445312 C207.02734,34.4179651 206.625,33.5195366 206.625,32.4492188 C206.625,31.0976495 207.126948,30.0605505 208.130859,29.3378906 C209.134771,28.6152308 210.570303,28.2539062 212.4375,28.2539062 L214.183594,28.2539062 L214.183594,27.421875 C214.183594,26.7656217 214.000002,26.2402363 213.632812,25.8457031 C213.265623,25.4511699 212.707035,25.2539062 211.957031,25.2539062 C211.308591,25.2539062 210.777346,25.416014 210.363281,25.7402344 C209.949217,26.0644547 209.742188,26.47656 209.742188,26.9765625 L206.894531,26.9765625 C206.894531,26.2812465 207.124998,25.6308624 207.585938,25.0253906 C208.046877,24.4199188 208.673824,23.9453142 209.466797,23.6015625 C210.25977,23.2578108 211.144526,23.0859375 212.121094,23.0859375 C213.605476,23.0859375 214.789058,23.4589806 215.671875,24.2050781 C216.554692,24.9511756 217.007812,25.9999932 217.03125,27.3515625 L217.03125,33.0703125 C217.03125,34.2109432 217.191405,35.1210904 217.511719,35.8007812 L217.511719,36 L214.605469,36 Z M211.476563,33.9492188 C212.039065,33.9492188 212.568357,33.8125014 213.064453,33.5390625 C213.560549,33.2656236 213.933593,32.8984398 214.183594,32.4375 L214.183594,30.046875 L212.648438,30.046875 C211.593745,30.046875 210.800784,30.2304669 210.269531,30.5976562 C209.738279,30.9648456 209.472656,31.4843716 209.472656,32.15625 C209.472656,32.7031277 209.654295,33.1386703 210.017578,33.4628906 C210.380861,33.787111 210.867184,33.9492188 211.476563,33.9492188 Z M232.277344,32.2851562 L236.613281,18.9375 L239.871094,18.9375 L233.730469,36 L230.859375,36 L224.742188,18.9375 L227.988281,18.9375 L232.277344,32.2851562 Z M244.546875,36 L241.699219,36 L241.699219,23.3203125 L244.546875,23.3203125 L244.546875,36 Z M241.523438,20.0273438 C241.523438,19.5898416 241.662108,19.2265639 241.939453,18.9375 C242.216798,18.6484361 242.613279,18.5039062 243.128906,18.5039062 C243.644534,18.5039062 244.042967,18.6484361 244.324219,18.9375 C244.60547,19.2265639 244.746094,19.5898416 244.746094,20.0273438 C244.746094,20.4570334 244.60547,20.8144517 244.324219,21.0996094 C244.042967,21.3847671 243.644534,21.5273438 243.128906,21.5273438 C242.613279,21.5273438 242.216798,21.3847671 241.939453,21.0996094 C241.662108,20.8144517 241.523438,20.4570334 241.523438,20.0273438 Z M250.675781,36 L247.828125,36 L247.828125,18 L250.675781,18 L250.675781,36 Z M256.804688,36 L253.957031,36 L253.957031,18 L256.804688,18 L256.804688,36 Z M267.480469,36 C267.355468,35.7578113 267.246094,35.363284 267.152344,34.8164062 C266.246089,35.7617235 265.136725,36.234375 263.824219,36.234375 C262.550775,36.234375 261.511723,35.8710974 260.707031,35.1445312 C259.90234,34.4179651 259.5,33.5195366 259.5,32.4492188 C259.5,31.0976495 260.001948,30.0605505 261.005859,29.3378906 C262.009771,28.6152308 263.445303,28.2539062 265.3125,28.2539062 L267.058594,28.2539062 L267.058594,27.421875 C267.058594,26.7656217 266.875002,26.2402363 266.507812,25.8457031 C266.140623,25.4511699 265.582035,25.2539062 264.832031,25.2539062 C264.183591,25.2539062 263.652346,25.416014 263.238281,25.7402344 C262.824217,26.0644547 262.617188,26.47656 262.617188,26.9765625 L259.769531,26.9765625 C259.769531,26.2812465 259.999998,25.6308624 260.460938,25.0253906 C260.921877,24.4199188 261.548824,23.9453142 262.341797,23.6015625 C263.13477,23.2578108 264.019526,23.0859375 264.996094,23.0859375 C266.480476,23.0859375 267.664058,23.4589806 268.546875,24.2050781 C269.429692,24.9511756 269.882812,25.9999932 269.90625,27.3515625 L269.90625,33.0703125 C269.90625,34.2109432 270.066405,35.1210904 270.386719,35.8007812 L270.386719,36 L267.480469,36 Z M264.351562,33.9492188 C264.914065,33.9492188 265.443357,33.8125014 265.939453,33.5390625 C266.435549,33.2656236 266.808593,32.8984398 267.058594,32.4375 L267.058594,30.046875 L265.523438,30.046875 C264.468745,30.046875 263.675784,30.2304669 263.144531,30.5976562 C262.613279,30.9648456 262.347656,31.4843716 262.347656,32.15625 C262.347656,32.7031277 262.529295,33.1386703 262.892578,33.4628906 C263.255861,33.787111 263.742184,33.9492188 264.351562,33.9492188 Z" id="Caminos-de-la-Villa" fill="#505050"></path>
    </g>
</svg>