<?xml version="1.0" encoding="utf-8"?>
<!-- Generator: Adobe Illustrator 21.0.0, SVG Export Plug-In . SVG Version: 6.00 Build 0)  -->
<svg version="1.1" id="Layer_1" xmlns="http://www.w3.org/2000/svg" xmlns:xlink="http://www.w3.org/1999/xlink" x="0px" y="0px"
	 viewBox="0 0 790 482" style="enable-background:new 0 0 790 482;" xml:space="preserve">
<style type="text/css">
	.st0{fill:#FEFEFE;}
	.st1{fill:#172C25;stroke:#172C25;stroke-miterlimit:10;}
	.st2{fill:#131B16;stroke:#131B16;stroke-miterlimit:10;}
	.st3{fill:#131B16;}
	.st4{fill:#E44141;}
	.st5{fill:#BE3F20;}
	.st6{fill:#FCFCFC;}
	.st7{fill:#FBFBFB;}
	.st8{fill:#131B16;stroke:#131B16;stroke-width:0.25;stroke-miterlimit:10;}
	.st9{fill:#E26A3E;}
	.st10{fill:#D7B92A;}
	.st11{fill:#E3B100;}
	.st12{fill:#172C25;}
</style>
<g>
	<path class="st0" d="M5,281c0-88.5,0-176.9-0.1-265.4c0-4.3,1.2-4.7,5-4.7C237.9,11,466,11,694,11c-0.8,1.7-2.5,1.5-3.8,1.8
		c-23.9,6.4-47.8,12.8-71.7,19.2c-35.3,9.4-70.6,18.8-105.9,28.3c-1.7,0.4-4.1,0-4.5,3c-2.1,15.1-4.4,30.2-6.8,45.8
		c8.5-2.2,16.4-4.2,24.7-6.3c-0.2,4-0.5,7.3-0.6,10.6c-0.2,3.5-0.2,7-0.3,10.5c-0.2,9.8-0.2,9.9-9.7,11.5c-1.3,0.2-2.6,0.4-4,0.6
		c-26.9,3.8-53.7,7.7-80.6,11.3c-3.6,0.5-5.4,2-6.6,5.3c-3.7,10-7.8,19.8-11.7,29.6c-2.9,7.3-5.8,14.7-9,22.6
		c8.4-1.5,16.1-2.8,23.7-4.3c7-1.3,6.9-1.3,7.8,5.8c1.5,11.2,3.3,22.4,5,33.5c-1.3,2.7-2.7,3.3-5.2,0.9c-2.9-2.8-6.5-4.7-10.3-5.9
		c-18.3-5.4-35.7-4.4-51.6,7.2c-1.3,0.9-2.1,2.3-3.9,0.2c-9.3-10.6-21-12.2-34-9c-2,0.5-3.9,1-5.9,0.4c0.7-3.4,1.4-6.8,2-10.1
		c0.3-1.4,1-2.9-0.4-4.2c-5-4.5-8.9-10-14.6-13.7c-16.8-0.1-33.6-0.1-50.5-0.3c-2.9,0-3.1,1.6-3.6,3.7c-1.6,8-3.3,16-4.8,24
		c-0.4,2.3-0.7,3.2-3.4,2c-10.3-4.8-20.7-4.4-30.8,0.5c-1.9,0.9-3.2,0.7-5-0.2c-6.6-3.4-13.7-4.8-20.8-3c-6.6,1.6-13.2,1.6-19.8,1.6
		c-15.7,0-31.3,0.2-47-0.1c-10.1-0.1-20.2-0.5-27.3-9.7c-1.6-2.1-4.5-3.3-6.8-5c-21.6-15.2-53.7-11.1-70.7,9
		c-8.6,10.1-13.2,22.2-16.5,34.8C7.5,269.2,7.5,275.4,5,281z"/>
	<path class="st1" d="M130.5,418c-8-11-7.4-23.3-5-35.8c2.4-12.8,8-23.8,18.3-32.1c2.5-0.9,5-2.4,7.5-2.6c5.7-0.3,7.2-3.4,8.1-8.5
		c0.7-4.2-1-4-3.8-4c-13.3,0-26.7,0.1-40,0c-3.7,0-7.3,0.4-10.8,1.2c-8.2,1.9-16.4,1.3-23.6-3c-3.7-2.2-6.6-2.1-10.2-0.8
		c-11.7,4.5-23.7,5.7-36.2,3.6c-4.6-0.8-8.4-4-13.2-3.9C13.8,325.5,7,314,6,305s-1-16,0-26s1.5-9.8,3-15.7
		c3.3-12.7,7.9-24.7,16.5-34.8c17.1-20.1,49.2-24.1,70.7-9c2.3,1.6,5.2,2.8,6.8,5c7.1,9.2,17.2,9.6,27.3,9.7
		c15.7,0.2,31.3,0.1,47,0.1c6.6,0,13.2,0,19.8-1.6c7.1-1.8,14.3-0.4,20.8,3c1.8,0.9,3.2,1.1,5,0.2c10.2-4.9,20.5-5.3,30.8-0.5
		c2.7,1.2,2.9,0.3,3.4-2c1.5-8,3.3-16,4.8-24c0.4-2.1,0.7-3.7,3.6-3.7c16.8,0.2,33.6,0.2,50.5,0.3c-0.3,8.4-3.3,16.4-4.3,24.7
		c-0.4,3.1,0.6,3.3,3,3.3c4.8-0.1,9.6,0,14.4-0.1c2,0.6,3.9,0.1,5.9-0.4c13-3.3,24.8-1.7,34,9c1.8,2.1,2.6,0.7,3.9-0.2
		c15.9-11.6,33.4-12.6,51.6-7.2c3.8,1.1,7.4,3,10.3,5.9c2.4,2.4,3.9,1.8,5.2-0.9c5.3-2.5,10.3-5.4,16-6.9
		c20.2-3.8,37.7,2.1,53.3,14.7c-4.8,7.3-8.5,15.4-12.8,23c-2.1,3.7-2.5,6.5-0.5,10.5c2.6,5.2,2.9,10.9,2.4,16.8
		c-0.7,8.2-3.8,15.3-8.2,23.2c8.2-1.5,15.5-2.9,22.9-4.3c3.6-0.3,7.3-0.6,10.9-1c-1.9,10.4-3.9,20.8-5.9,31.3
		c6.4-0.6,12.2-3.2,18.4-1.6c2.6,0.5,5.2,1.1,8.3,1.7c-1.2-2.8-2.1-5.1-3-7.4c-0.9-2.4-1.8-4.9-2.8-7.3c-0.1-1-0.1-2.1-0.2-3.1
		c-0.3-0.2-0.6-0.5-0.9-0.7l0.1,0.1c-0.5-12-0.4-23.9,3.3-35.5c3-5.5,5.4-11.4,9.2-16.5c27.7-37.5,81.3-37.9,111.5-0.9
		c0.1,0.8,0.3,1.6,1.2,1.9l-0.1,0c0.5,0.3,0.9,0.7,1.4,1c0.2,0.3,0.4,0.5,0.6,0.8c-0.4,2.1,0.7,3.8,1.7,5.6
		c7.3,14.3,10,29.3,6.6,45.2c-3.2,14.7-10.9,27.4-17.7,40.4c-13.5,25.7-28.4,50.6-44,75.1c-1.2,1.9-1.3,4.7-4.3,5.1
		c-5.1-7.7-10.2-15.4-15.3-23.2c-3.7-5.9-7.4-11.8-11.2-17.6c-0.7-1.1-1.1-2.9-2.6-2.8c-2,0.2-1.4,2.5-1.7,3.7
		c-2.3,11-4.5,22-6.4,33.1c-0.5,2.7-1.5,3.7-4.1,3.8c-15.1,0.4-30.2-1.2-45.2,1.9c-10.2,2.1-19.9-2.5-30.3-2.3
		c-55.9,0.9-111.8,0.4-167.7,0.5c-1.9,0-4-0.8-5.7,1c-2.1-3-0.4-6.5-1.1-9.7c0-9.4,0-18.8,0-29.1c-2.4,4.2-2.6,8-3.6,11.6
		c-0.6,2.4-1.6,3.5-4,3.1c-11.3-1.5-22.7-1.2-34.1-1.1c-7.7,0.1-15.3-2.9-23.2-1.9c-1.8,0.2-3.6-0.4-5.4-0.5
		c-8.8-0.4-17.5-1.4-26.3,0.8c-7.4,1.9-14.9,3.7-22.6,2.4c-14.5-2.5-29-2.8-43.5,0c-2.8,0.5-5.6,0.2-8.4-0.2
		C139.3,423.8,135.5,419.6,130.5,418z M230.2,350.1c1.8,1.5,3.5,3,5.4,4.6c1-1.7,1.4-3.1,1.3-4.6c1-3.8,1.9-7.7,3.1-11.5
		c0.9-2.8,0.3-3.8-2.8-3.8c-9.5,0.1-19,0-28.4,0.1c-1.6,0-3.4-0.3-4,2c-0.7,3-2,6-1.4,9.1c0.1,0.8,1.4,0.9,2.2,0.7
		C214.3,344.5,222.3,347.2,230.2,350.1z M571.1,368.2c12,19.3,23.4,39,36.3,58c0.7-0.8,1.2-1.2,1.5-1.8c16.8-27.6,33.3-55.3,47-84.6
		c4.7-10,6.3-20.6,4.3-31.6c-4.2-22.4-17.3-37.4-39-43.6c-21.5-6.2-40.9-0.6-55.8,16.2c-15.4,17.4-18.1,37.6-8.9,59.1
		c3.1,7.3,7.1,14.3,10.6,21.4c-3,0-6,0.3-9,0.1c-4.8-0.4-9.1-0.2-10.1,6c-13.5-11.3-26.2-10.7-35.6,2.2c-10.9,14.8-14.9,32-12.8,50
		c1.8,16.2,14.9,22,29.2,14.1c2.4-1.3,4.6-2.8,7.4-4.7c-1.2,5.5,1.2,6.6,5.3,6c1.8-0.2,3.7,0,5.5,0c10.9,0,10.8,0,12.9-10.9
		C563.6,405.3,567.4,386.8,571.1,368.2z M182.6,253.5c0.8-5.2-1.8-5.8-5.5-5.6c-4.5,0.3-9,0.2-13.5,0c-2-0.1-3,0.5-3.4,2.6
		c-4.3,22.5-8.7,45.1-13.2,67.6c-0.6,2.9,0.7,3.3,3.2,3.3c4.8-0.1,9.7,0,14.5,0c7.9,0,7.8,0,9.3-7.6c2.3-12.1,4.7-24.2,7.1-36.2
		c0.7-3.5,5.7-8.3,8.2-7.4c4.7,1.7,2.3,5.5,1.8,8.5c-2.4,13.1-4.9,26.1-7.6,39.2c-0.5,2.6-0.4,3.6,2.6,3.6c6.5-0.2,13-0.2,19.5,0
		c2.6,0.1,3.4-0.9,3.8-3.3c0.7-4.4,1.7-8.8,2.6-13.2c1.8-9.3,3.6-18.6,5.5-27.9c0.7-3.2,5.9-7.7,8.2-6.8c4.3,1.6,1.8,5.3,2,8.2
		c0,0.3-0.2,0.6-0.2,1c-2.4,12.4-4.7,24.8-7.3,37.2c-0.8,4,0.2,5.2,4.2,5c5.5-0.3,11-0.3,16.5,0c3.3,0.2,4.7-0.8,5.2-4.2
		c1.7-9.8,4-19.6,5.7-29.4c1.6-9.5,4.9-18.7,3.5-28.6c-1.2-8.5-6.1-12.9-14.7-13.4c-7.7-0.5-13.8,3.2-19.9,7
		c-1.3,0.8-2.6,2.6-3.9-0.1c-3.5-7.3-15.2-8.4-22.3-5.3C190.6,249.1,187,251.2,182.6,253.5z M357.4,399.3c-1.6-0.8-1.5-1.7-1.4-2.4
		c1.7-17.7,1.3-35.5,2.1-53.3c0.1-2.9-0.3-4.2-3.7-4.1c-7,0.3-14,0.2-21,0c-2.5,0-3.4,0.7-3.4,3.3c0,29.5,0,59-0.1,88.4
		c0,2.8,0.7,3.7,3.6,3.7c10.8-0.2,21.7-0.1,32.5,0c2.4,0,3.5-0.7,4.3-3c2.3-6.2,4.9-12.4,7.3-18.5c9.1-23.2,18.2-46.4,27.5-69.5
		c1.4-3.5,1.1-4.7-2.9-4.4c-4.6,0.3-9.3,0.1-14,0.1c-9.9,0-9.8,0-13.1,9.4C369.2,365.7,363.3,382.4,357.4,399.3z M116.2,315.4
		c-1.3,5.3,0.8,6.3,4.8,6c4.1-0.3,8.3-0.2,12.5,0c2.9,0.1,4.3-0.5,4.9-3.8c2-11.5,4.4-22.9,6.6-34.3c2.3-11.6,4.5-23.3,6.9-35.3
		c-5.2,0-9.9,0.2-14.5-0.1c-4.6-0.3-8.6,0.1-9.5,5.8c-13.3-10.3-23.8-10.4-33.4-0.5c-1.8,1.9-3.5,4-4.9,6.3
		c-8.3,14.2-11.9,29.6-10.5,46c1.3,15.6,14.1,22.3,28.1,15.3C110.1,319.5,112.6,317.6,116.2,315.4z M363.7,295.7
		c-0.4,13.5,2.9,20.7,10.5,24.6c16.9,8.6,40.1,2.2,49.7-14.1c7.3-12.4,9.9-26.1,8.9-40.3c-0.5-7.5-3.8-13.7-11.1-17.1
		c-18-8.4-40.8-1.1-50.2,16.4C366.2,275.1,364.2,286,363.7,295.7z M324.9,253.9c0.9-5.1-0.9-6.2-4.7-5.9c-4.3,0.3-8.7,0.3-13,0
		c-3.2-0.2-4.2,1-4.8,3.9C298.2,274,294,296,289.5,318c-0.6,2.8,0,3.5,2.7,3.4c5.8-0.1,11.7-0.4,17.5,0.1c4.4,0.4,5.6-1.5,6.3-5.3
		c2.4-13.1,5.1-26.1,7.7-39.1c0.6-3.1,5.9-7.7,8.1-6.9c4.3,1.6,1.8,5.4,1.9,8.2c0,0.6-0.3,1.3-0.4,1.9c-2.4,12.2-4.8,24.5-7.2,36.7
		c-0.6,2.9-0.5,4.6,3.4,4.4c6.1-0.3,12.3-0.2,18.5,0c2.7,0.1,3.7-0.8,4.1-3.6c0.9-5.9,2.5-11.7,3.4-17.6c2-12.1,5.8-24,6.2-36.3
		c0.4-13-7.6-19.8-20.4-17.8c-3.5,0.5-6.7,2-9.7,3.8C329.7,251,327.8,252.2,324.9,253.9z M19.1,293c0,2.5-0.2,5,0,7.5
		c1.2,12.9,8.1,20.7,20.2,22.3c9,1.2,17.9,0.3,26.5-2.9c4.1-1.6,6.9-3.1,5.4-8.5c-1.1-3.9-1-8.2-1.4-12.4c-0.2-2.5-0.7-3.6-3.6-2.3
		c-3,1.4-6.2,2.3-9.6,2.3c-5.4,0-8.3-2.2-8.5-7.5c-0.4-12.8,2.2-25.1,8.1-36.6c2.9-5.6,7.9-7.6,14.2-7c3,0.3,6,3.9,8.4,1.7
		c2.2-2,2.8-5.9,4-9c0.8-2,1.3-4.2,2.4-6c2.8-4.3,0.7-6.2-3.2-7.5c-17.7-6.3-40.6-4.5-53,20.5C22.1,261.9,19.5,277.3,19.1,293z
		 M468.3,246c-1.7,0-3.3-0.1-5,0c-12.8,1-22.1,9.2-24.5,21.8c-2.5,12.8,1.2,19.7,14.2,26.1c0.4,0.2,0.9,0.4,1.3,0.7
		c1.8,1.1,4.2,2.1,3.4,4.8c-0.8,2.8-3.4,3.6-6,3.4c-3.5-0.3-6.9-1.3-9.9-3.2c-2.3-1.4-3.4-0.9-4.5,1.4c-2.2,4.3-4.5,8.5-7,12.7
		c-1.3,2.2-1.1,3.2,1.2,4.5c7.3,4.2,15.3,5.7,23.5,5.3c17.2-0.7,27.9-10.4,29.6-26.5c1-9.5-2.9-16.6-11.4-20.8
		c-2.2-1.1-4.6-2-6.8-3.1c-1.7-0.8-3.3-1.9-2.8-4.2c0.5-2.4,2.4-3,4.5-3.1c1.3-0.1,2.6,0.3,4,0.3c3.4,0.1,6.6,4.6,9.8,1.9
		c2.6-2.3,3.7-6.2,5.4-9.4c0.6-1.2,1.1-2.4,1.9-3.5c1.5-2.1,1-3.4-1.3-4.5C481.8,247.4,475.3,245.8,468.3,246z M438.3,434.8
		c3.9,0,7.1-0.2,10.2,0.1c2.7,0.2,3.8-0.8,4.3-3.4c6.1-32,12.3-63.9,18.6-95.9c0.7-3.4-0.6-3.2-2.9-2.7c-5.7,1-11.4,2.4-17.2,2.7
		c-5.4,0.2-6.6,3-7.4,7.6c-4.9,26.3-10.1,52.5-15.2,78.8c-0.8,4.1-3.4,9.5-1.8,11.9C429,436.8,434.9,434.3,438.3,434.8z M461,434.8
		c7.6,0,14.7-0.3,21.9,0.1c3.6,0.2,4.5-1.3,5-4.3c1.4-8.2,3.1-16.3,4.7-24.5c4.5-23.2,8.9-46.4,13.6-69.5c0.7-3.7-0.2-4.3-3.5-3.6
		c-5.9,1.1-11.8,2.4-17.7,2.8c-4.1,0.3-5.2,2.2-5.9,5.7c-3.1,16.7-6.4,33.3-9.7,50C466.6,405.8,463.8,420.1,461,434.8z M169,409.8
		c9.4-0.3,7.1,1.5,8.9-7.2c3.3-16.1,6.3-32.3,9.5-48.4c2.4-12,2.5-11.8-9.7-10.1c-4.5,0.6-6.7,2.3-6.9,7c-0.2,3.3-1.2,6.5-1.9,9.8
		c-0.3,1.3-0.1,2.6-2.4,1.6c-10.4-4.3-16.8-2.1-22.3,7.7c-5,8.9-7,18.6-6.2,28.8c0.8,10.5,9,15,18.5,10.3c1.3-0.7,2.5-1.6,3.9-2.3
		c0.5-0.2,1.4-1.2,1.5-0.2C162.7,412.5,167,408.6,169,409.8z M404.6,434.8c3.3,0,6.7-0.1,10,0c2.1,0.1,3-0.8,3.3-2.7
		c4.3-22.5,8.6-45,13-67.5c0.5-2.7-0.3-3.5-3-3.4c-6.1,0.2-12.3,0.2-18.5,0c-3.2-0.1-4.1,1.1-4.7,4.1c-4.1,21.5-8.3,43-12.7,64.5
		c-0.7,3.5-0.6,5.7,4,5.1C398.9,434.5,401.7,434.8,404.6,434.8z M267.3,321.4c3,0,6-0.2,9,0.1c3,0.3,4.1-0.9,4.6-3.7
		c4.2-22.2,8.5-44.3,12.9-66.5c0.6-2.9-0.4-3.3-3-3.2c-6.3,0.1-12.6,0.2-19,0c-2.7-0.1-3.6,0.8-4.1,3.5c-4.1,21.4-8.3,42.7-12.5,64
		c-1.2,5.9-1.1,5.9,5.2,5.9C262.7,321.4,265,321.4,267.3,321.4z M286.9,406.3c-0.4,2.8,0.7,4,3.4,3.8c2.6-0.2,5.3,0,8,0.4
		c2.2,0.3,3-0.6,3.5-2.5c3.5-14.2,7-28.4,10.4-42.5c0.2-0.8,0.9-1.8-0.4-2.5c-2.3-1.3-12.2-0.6-14.3,1.5c-1.5,1.5-1.9,0.1-2.7-0.5
		c-7.7-5.9-15.3-5.4-21.4,2.1c-7.9,9.7-11,21.2-10.1,33.5c0.6,8.8,7.7,13,16.1,10.3C281.6,409.1,283.8,407.8,286.9,406.3z
		 M203.3,411.1c3.1,0.3,6.9-0.5,10.6-1.4c9.5-2.3,9.4-2.4,8.1-12.1c-0.3-2.6-1-3.5-3.7-2.6c-4.1,1.3-8.4,2.1-12.8,2
		c-2.3-0.1-3.8-1-3.8-3.6c0-3,2.2-2.3,3.8-2.3c5.9-0.2,11.7-1,16.7-4.3c5.6-3.7,7.4-9.2,6.7-15.6c-0.6-5-3.7-8.1-8.2-9.8
		c-11.5-4.3-24.6,0.5-30.6,11.2c-3.4,6.2-5,13-5.4,20.1C184,406,189,411.2,203.3,411.1z M270.8,341.6c-5.7,0.6-10.5,1.2-15.3,1.5
		c-2.2,0.1-2.8,1.4-3.2,3.1c-4.8,19.4-9.6,38.7-14.3,58.1c-0.2,0.9-1.2,2.6,0.5,2.9c4.9,1,10.1,1.5,14.9,0.5c2.8-0.6,2-4.8,2.8-7.4
		c0.9-3,1.6-6.1,2.4-9.2C262.6,374.9,266.6,358.6,270.8,341.6z M282.4,241c3.3,0,6.6-0.1,10,0c2.2,0.1,3.6-0.2,3.9-3
		c0.7-5.2,1.8-10.5,3-15.6c0.7-2.7-0.2-3.1-2.6-3.1c-6.5,0.1-13,0.2-19.4,0c-2.5-0.1-3.5,0.9-4,3.2c-1,5.2-2,10.4-3.2,15.6
		c-0.6,2.7,0.5,3.1,2.8,3C276.1,240.9,279.2,241,282.4,241z M419.9,354.5c0-0.1,0-0.1,0-0.2c3.2,0,6.3-0.2,9.5,0.1
		c2.7,0.2,3.8-0.8,4.2-3.4c0.8-5.1,1.8-10.2,3-15.2c0.7-2.7-0.3-3.1-2.7-3c-4.7,0.1-9.3,0-14,0c-8.5,0-8.6,0-10.4,8.5
		c-0.8,4.2-3.9,9.4-1.6,12.2C409.7,355.6,415.7,354.3,419.9,354.5z M306.6,349c10.4-0.1,9.3,0.9,9.4-7.8c0-1-0.1-2,0-3
		c0.2-2.4-1-3.2-3.3-3.2c-7.7,0.1-15.3,0-23,0.1c-2.5,0-6.5,8.2-5.2,10.2c0.2,0.3,0.8,0.6,1.3,0.7C293.3,347.1,300.7,349,306.6,349z
		 M63.9,282.7c2.9,0,3.1-2.3,3.7-4.1c1.2-3.9,2.2-7.9,3.5-11.8c0.5-1.7,1.4-3.3-0.6-4.3c-2.3-1.2-3.3,0.7-4,2.4
		c-2.2,5.2-3,10.7-4.1,16.2C62.2,282.5,62.8,282.9,63.9,282.7z"/>
	<path class="st2" d="M317,449c1.7-1.7,3.8-1,5.7-1c55.9,0,111.8,0.4,167.7-0.5c10.4-0.2,20.2,4.4,30.3,2.3c15-3,30.1-1.5,45.2-1.9
		c2.6-0.1,3.7-1.1,4.1-3.8c1.9-11.1,4.1-22.1,6.4-33.1c0.3-1.2-0.3-3.5,1.7-3.7c1.5-0.2,1.9,1.7,2.6,2.8c3.8,5.8,7.5,11.7,11.2,17.6
		c-3,7-3.3,14.6-5,21.9c-0.3,1.3,0.3,2.4,1.8,2.3c6.2-0.5,12.4,1.1,18.5-1c2.9-0.4,3.1-3.2,4.3-5.1c15.6-24.5,30.5-49.4,44-75.1
		c6.9-13.1,14.5-25.7,17.7-40.4c3.5-15.9,0.7-30.9-6.6-45.2c-0.9-1.8-2-3.4-1.7-5.6c1,1.1,2,2.2,2.9,3.3c9.9,13,14,28,15,44
		c0.1,14.1-3.9,27.1-10.5,39.4c-7.9,14.8-15.7,29.5-23.6,44.3c-7.7,12.6-15.3,25.3-23.1,37.9c-1.5,2.4-0.8,3.2,1.9,3.2
		c6.7,0,13.3,0,20,0.1c-0.8,4.7,0.7,6.1,5.8,5.3c10-1.5,20.2-2.2,30.2-3.3c26.3-2.8,52.6-5.6,78.9-8.3c3.6-0.4,4.9-1.5,4.8-5.5
		c-1.3-27.6-2.3-55.2-3.1-82.8c-0.1-4.2-1.5-5.9-5.5-7.1c-18.4-5.5-36.8-11.4-55.1-17.2c0-7.3,0.1-14.6,0.1-21.9
		c0-27.8,0-55.5,0-83.3c0-2.9,0.2-5.1-4-5c-14.3,0.5-28.6-0.2-42.8,1.1c-1.1-0.8-1-2-0.9-3.2c0.3-18.5-0.2-36.9-0.7-55.4
		c-0.8-34.8-1.4-69.5-1.9-104.3c-0.1-4.2-1.1-4.7-4.8-3.1c-34.4,14.7-68.8,29.3-103.2,43.9c-2.3,1-3.3,2.1-3.3,4.7
		c-0.3,13.5-0.9,26.9-1.3,40.4c-7.8,2.4-16,2.7-24,3.9c-25.2,3.7-50.4,7.2-75.5,10.8c-1.4,0.2-3.2-0.2-3.9,1.6
		c-2.2,5.3-4.2,10.5-6.7,16.6c21.3-3.9,41.5-7.7,61.8-11.4c15.9-2.9,31.7-5.6,47.6-8.4c-0.3,3.6,0.6,7.3-1,10.7
		c-6.7,1.4-13.3,2.7-20,4.2c-21.6,4.7-43.2,9.4-64.8,14.2c-2.1,0.5-4.8,0.4-4.2,4.1c2.1,13.3,4,26.6,5.9,39.9
		c-5.7,1.5-10.8,4.4-16,6.9c-1.7-11.2-3.4-22.3-5-33.5c-1-7.2-0.9-7.1-7.8-5.8c-7.6,1.4-15.3,2.8-23.7,4.3c3.2-8,6.1-15.3,9-22.6
		c3.9-9.9,8-19.7,11.7-29.6c1.2-3.3,3-4.9,6.6-5.3c26.9-3.7,53.7-7.5,80.6-11.3c1.3-0.2,2.6-0.3,4-0.6c9.4-1.6,9.4-1.6,9.7-11.5
		c0.1-3.5,0.2-7,0.3-10.5c0.1-3.3,0.4-6.6,0.6-10.6c-8.3,2.1-16.2,4.1-24.7,6.3c2.3-15.7,4.6-30.7,6.8-45.8c0.4-2.9,2.9-2.5,4.5-3
		c35.3-9.5,70.6-18.9,105.9-28.3c23.9-6.4,47.8-12.7,71.7-19.2c1.3-0.4,3.1-0.2,3.8-1.8c1,0,2,0,3,0c0.7,14.5,1.3,28.9,2.1,43.4
		c0.1,2.4-0.6,3.4-3.1,4c-6.6,1.5-13.1,3.6-19.8,5.1c-3,0.7-4,1.7-3.9,5c1,45.1,1.8,90.3,2.6,135.4c0.1,3.5,1.3,3.9,4.3,3.8
		c12.5-0.4,25-0.3,37.5-0.8c4.4-0.2,5.8,0.8,5.8,5.5c-0.2,35.2-0.1,70.3-0.2,105.5c0,3.5,1.1,4.9,4.3,5.9
		c16.9,5,33.6,10.4,50.5,15.3c4.3,1.2,5.6,3.3,5.7,7.6c0.9,30,2.1,59.9,3.3,89.9c0.1,1.5,0.9,19.2,0.9,26.5
		c-20.7,2.2-41.4,4.3-62.1,6.5c-30.3,3.2-60.6,6.4-90.9,9.7c-3.5,0.4-4.6-0.6-3.9-3.8c0.8-4-1.3-4.2-4.5-4.1
		c-35,0.6-69.9,1.1-104.9,1.6c-6.5,0.1-6.5,0.1-6.7-6.5c0-1-0.2-2-0.2-2.8c-2.1,0-4.1,0-6.1,0c-57.1,0-114.3,0-171.4,0.1
		c-3.8,0-6.6-0.9-9.1-3.8C324.1,456,320.5,452.6,317,449z M679.7,40.2c-0.2-6.6-0.2-6.6-6-5.1c-36.5,9.8-72.9,19.5-109.4,29.3
		c-12.8,3.4-25.7,6.9-38.5,10.4c-2.4,0.7-5.1,6.5-3.8,9c1.4,2.7,3.6,0.4,5.1,0C576.7,71,626.2,58,675.8,45.1
		C678.9,44.3,680.6,43.2,679.7,40.2z"/>
	<path class="st3" d="M329.1,234c-4.8,0-9.6,0-14.4,0.1c-2.4,0-3.3-0.2-3-3.3c1-8.3,3.9-16.3,4.3-24.7c5.7,3.7,9.7,9.2,14.6,13.7
		c1.4,1.3,0.7,2.8,0.4,4.2C330.4,227.2,329.7,230.6,329.1,234z"/>
	<path class="st3" d="M130.5,418c5,1.6,8.8,5.8,14.3,6.6c2.8,0.4,5.6,0.7,8.4,0.2c14.5-2.8,29-2.5,43.5,0c7.7,1.3,15.2-0.5,22.6-2.4
		c8.7-2.2,17.5-1.3,26.3-0.8c1.8,0.1,3.6,0.7,5.4,0.5c7.9-1,15.5,2,23.2,1.9c11.4-0.1,22.8-0.4,34.1,1.1c2.4,0.3,3.4-0.7,4-3.1
		c1-3.6,1.2-7.5,3.6-11.6c0,10.3,0,19.7,0,29.1c-8.1-0.2-16.2-0.8-24.4-0.2c-8.3,0.7-16.4-2.1-24.8-2.4c-14.3-0.5-28.5-1.8-42.5,2.6
		c-3.8,1.2-8,0.9-11.9,0.4c-14.9-2-29.7-1.7-44.5,0c-2.1,0.2-4.4,0.2-6.4-0.3C148.5,436.1,138.1,429,130.5,418z"/>
	<path class="st3" d="M21.5,332.1c4.8-0.1,8.6,3.1,13.2,3.9c12.4,2.2,24.5,0.9,36.2-3.6c3.6-1.4,6.5-1.4,10.2,0.8
		c7.2,4.2,15.4,4.9,23.6,3c3.6-0.8,7.1-1.3,10.8-1.2c13.3,0.1,26.7,0.1,40,0c2.7,0,4.5-0.3,3.8,4c-0.9,5.2-2.4,8.2-8.1,8.5
		c-2.5,0.1-5,1.7-7.5,2.6c-8.9,0.3-17.8-0.4-26.7,1.7c-7.8,1.8-15.6,0.3-22.4-4.5c-2.3-1.6-4.1-1.7-6.7-0.5
		c-10.2,4.6-21,5.9-32.1,5.2C41,351.1,30.9,342.4,21.5,332.1z"/>
	<path class="st4" d="M567.1,361.2c-3.6-7.1-7.5-14.1-10.6-21.4c-9.2-21.4-6.5-41.6,8.9-59.1c14.9-16.8,34.2-22.4,55.8-16.2
		c21.7,6.2,34.8,21.2,39,43.6c2.1,11,0.4,21.6-4.3,31.6c-13.7,29.3-30.2,57-47,84.6c-0.3,0.5-0.8,1-1.5,1.8
		c-13-19-24.4-38.7-36.3-58C570.2,365.6,568.8,363.3,567.1,361.2z M581.9,316.9c0,14,10.9,25.1,24.9,25.2c14,0,25.2-11,25.3-24.9
		c0-13.9-11.1-25.2-25-25.2C593,291.9,581.9,302.9,581.9,316.9z"/>
	<path class="st4" d="M456,233.2c-2-13.3-3.9-26.6-5.9-39.9c-0.6-3.7,2.1-3.6,4.2-4.1c21.6-4.8,43.2-9.5,64.8-14.2
		c6.7-1.4,13.3-2.8,20-4.2c0,7.8,0.4,15.6-0.1,23.4c-1,15-1.9,30-1.9,45.1c0,1.6-0.4,3.5,2.1,3.8c0.8,16.8,1.5,33.6,2.3,50.4
		c-3.7,11.6-3.9,23.5-3.3,35.5c-5.1-3.9-8.7-9.4-14-13c-3.6,0.3-7.3,0.6-10.9,1c1.1-6.5,1.7-13.4-1.4-19.1c-3.2-5.9-1.6-10.2,1.5-15
		c0.7-1.1,1.3-2.3,1.9-3.5c2.8-5.8,9.2-11.7,8-17c-1.2-5.4-8.4-9.4-12.9-14c-0.2-0.2-0.5-0.4-0.8-0.6
		C493.6,235.3,476.1,229.3,456,233.2z"/>
	<path class="st5" d="M541.3,293.5c-0.8-16.8-1.5-33.6-2.3-50.4c12.3-1.4,24.6-2.7,36.9-4c10.7-1.1,21.4-2.1,32-3.2
		c14.1-1.5,28.2-3.3,42.3-4.7c6.7-0.7,6.7-0.4,6.7-7.1c14.3-1.3,28.6-0.6,42.8-1.1c4.2-0.1,4,2.1,4,5c0,27.8,0,55.5,0,83.3
		c0,7.3-0.1,14.6-0.1,21.9c-6.9-2-13.8-4-20.6-6c-1-16-5.1-31-15-44c-0.9-1.2-2-2.2-2.9-3.3c-0.2-0.3-0.4-0.5-0.6-0.8
		c-0.5-0.3-0.9-0.7-1.4-1c0,0,0.1,0,0.1,0c0-0.9-0.4-1.5-1.2-1.9c-30.1-37-83.7-36.5-111.5,0.9C546.7,282.1,544.3,288,541.3,293.5z"
		/>
	<path class="st6" d="M182.6,253.5c4.4-2.3,8-4.4,11.7-6.1c7.2-3.1,18.8-2,22.3,5.3c1.3,2.7,2.6,0.9,3.9,0.1
		c6.1-3.8,12.2-7.5,19.9-7c8.6,0.5,13.5,4.9,14.7,13.4c1.4,9.8-1.9,19.1-3.5,28.6c-1.7,9.8-4,19.6-5.7,29.4c-0.6,3.4-2,4.4-5.2,4.2
		c-5.5-0.3-11-0.3-16.5,0c-4.1,0.3-5.1-1-4.2-5c2.6-12.4,4.9-24.8,7.3-37.2c0.1-0.3,0.3-0.6,0.2-1c-0.1-2.9,2.4-6.6-2-8.2
		c-2.3-0.9-7.5,3.6-8.2,6.8c-1.9,9.3-3.7,18.6-5.5,27.9c-0.9,4.4-1.9,8.8-2.6,13.2c-0.4,2.4-1.2,3.4-3.8,3.3c-6.5-0.2-13-0.2-19.5,0
		c-3,0.1-3.1-1-2.6-3.6c2.7-13,5.2-26.1,7.6-39.2c0.6-3,2.9-6.8-1.8-8.5c-2.5-0.9-7.6,3.9-8.2,7.4c-2.4,12.1-4.8,24.1-7.1,36.2
		c-1.4,7.5-1.4,7.6-9.3,7.6c-4.8,0-9.7-0.1-14.5,0c-2.5,0.1-3.7-0.4-3.2-3.3c4.4-22.5,8.8-45,13.2-67.6c0.4-2.1,1.4-2.6,3.4-2.6
		c4.5,0.1,9,0.3,13.5,0C180.9,247.7,183.4,248.3,182.6,253.5z"/>
	<path class="st7" d="M357.4,399.3c5.9-16.9,11.7-33.6,17.5-50.4c3.3-9.4,3.3-9.4,13.1-9.4c4.7,0,9.3,0.2,14-0.1
		c4-0.2,4.3,0.9,2.9,4.4c-9.2,23.1-18.3,46.3-27.5,69.5c-2.4,6.2-5,12.3-7.3,18.5c-0.8,2.3-2,3-4.3,3c-10.8-0.1-21.7-0.1-32.5,0
		c-2.9,0-3.6-0.9-3.6-3.7c0.1-29.5,0.2-59,0.1-88.4c0-2.7,0.9-3.4,3.4-3.3c7,0.1,14,0.2,21,0c3.4-0.1,3.8,1.2,3.7,4.1
		c-0.8,17.8-0.4,35.6-2.1,53.3C356,397.6,355.8,398.5,357.4,399.3z"/>
	<path class="st7" d="M567.1,361.2c1.6,2.2,3.1,4.4,4,7c-3.7,18.6-7.5,37.1-11.1,55.7c-2.1,10.9-2,10.9-12.9,10.9
		c-1.8,0-3.7-0.2-5.5,0c-4.2,0.6-6.5-0.6-5.3-6c-2.9,1.8-5.1,3.4-7.4,4.7c-14.3,7.9-27.4,2.1-29.2-14.1c-2-18,2-35.2,12.8-50
		c9.4-12.9,22.1-13.4,35.6-2.2c1-6.2,5.3-6.3,10.1-6C561.1,361.5,564.1,361.2,567.1,361.2z M526,406.3c0,2.6-0.3,4.8,1.8,6
		c2.3,1.4,4.1-0.3,5.9-1.4c2.5-1.6,3.9-3.9,4.3-6.9c0.6-4.3,1.3-8.5,2.4-12.7c0.9-3.4,1.1-6.2-3-7.5c-4.1-1.3-5.9,1.3-7.2,4.3
		C527.7,394.1,526.6,400.4,526,406.3z"/>
	<path class="st6" d="M116.2,315.4c-3.6,2.2-6.1,4-8.9,5.4c-14.1,7-26.8,0.3-28.1-15.3c-1.4-16.3,2.1-31.8,10.5-46
		c1.3-2.3,3-4.4,4.9-6.3c9.6-9.9,20.1-9.8,33.4,0.5c0.9-5.8,4.8-6.1,9.5-5.8c4.6,0.3,9.3,0.1,14.5,0.1c-2.3,12-4.6,23.6-6.9,35.3
		c-2.2,11.4-4.7,22.8-6.6,34.3c-0.6,3.3-2,4-4.9,3.8c-4.2-0.2-8.3-0.3-12.5,0C117,321.8,114.9,320.7,116.2,315.4z M120.6,275.1
		c0.6-2.8-1.5-3.8-3.5-4.6c-2.7-1.2-5,0-6.2,2.5c-3.6,7.2-5.1,15-5,23.1c0,2.5,1.5,3.8,3.9,3.2c3.3-0.9,6.3-2.5,7.2-6.1
		C118.4,287.1,119.5,281.1,120.6,275.1z"/>
	<path class="st6" d="M363.7,295.7c0.5-9.6,2.5-20.5,7.9-30.6c9.3-17.4,32.2-24.8,50.2-16.4c7.3,3.4,10.6,9.6,11.1,17.1
		c1,14.2-1.6,27.9-8.9,40.3c-9.6,16.3-32.7,22.7-49.7,14.1C366.6,316.4,363.3,309.2,363.7,295.7z M406.2,277.3
		c-0.1-2.9,0.5-6-2.7-7.1c-3.4-1.1-6.2,0.4-8,3.4c-1,1.7-1.9,3.5-2.4,5.4c-1,4-2,8-2.6,12.1c-0.5,3.3-1,7.1,3.2,8.4
		c4,1.2,6.6-1.4,8.3-4.7C404.7,289.2,405.6,283.1,406.2,277.3z"/>
	<path class="st6" d="M324.9,253.9c2.9-1.7,4.9-2.8,6.8-4c3-1.8,6.2-3.3,9.7-3.8c12.8-2,20.8,4.8,20.4,17.8
		c-0.4,12.4-4.2,24.2-6.2,36.3c-1,5.9-2.5,11.7-3.4,17.6c-0.4,2.7-1.4,3.6-4.1,3.6c-6.2-0.2-12.3-0.3-18.5,0
		c-3.9,0.2-3.9-1.5-3.4-4.4c2.5-12.2,4.8-24.5,7.2-36.7c0.1-0.7,0.5-1.3,0.4-1.9c-0.2-2.9,2.3-6.6-1.9-8.2c-2.2-0.9-7.5,3.7-8.1,6.9
		c-2.7,13-5.3,26.1-7.7,39.1c-0.7,3.8-1.9,5.7-6.3,5.3c-5.8-0.5-11.7-0.2-17.5-0.1c-2.7,0.1-3.3-0.6-2.7-3.4
		c4.4-22,8.7-44,12.8-66.1c0.6-3,1.6-4.2,4.8-3.9c4.3,0.3,8.7,0.3,13,0C324,247.6,325.8,248.8,324.9,253.9z"/>
	<path class="st6" d="M19.1,293c0.5-15.7,3-31.1,10.1-45.4c12.4-25,35.3-26.8,53-20.5c3.8,1.4,6,3.2,3.2,7.5c-1.2,1.8-1.6,4-2.4,6
		c-1.3,3.1-1.8,6.9-4,9c-2.4,2.2-5.4-1.4-8.4-1.7c-6.3-0.6-11.3,1.4-14.2,7c-5.9,11.4-8.5,23.7-8.1,36.6c0.2,5.4,3.1,7.6,8.5,7.5
		c3.4,0,6.6-1,9.6-2.3c2.9-1.3,3.4-0.2,3.6,2.3c0.3,4.1,0.3,8.4,1.4,12.4c1.5,5.3-1.3,6.9-5.4,8.5c-8.6,3.2-17.5,4.1-26.5,2.9
		c-12.1-1.6-19-9.4-20.2-22.3C18.9,298.1,19.1,295.5,19.1,293z"/>
	<path class="st7" d="M468.3,246c7-0.2,13.5,1.3,19.8,4.4c2.3,1.1,2.9,2.3,1.3,4.5c-0.8,1.1-1.3,2.3-1.9,3.5
		c-1.7,3.2-2.8,7.2-5.4,9.4c-3.1,2.7-6.3-1.8-9.8-1.9c-1.3,0-2.7-0.4-4-0.3c-2.1,0.1-4,0.7-4.5,3.1c-0.5,2.3,1.1,3.3,2.8,4.2
		c2.2,1.1,4.6,2,6.8,3.1c8.5,4.2,12.4,11.4,11.4,20.8c-1.7,16.1-12.4,25.8-29.6,26.5c-8.3,0.4-16.2-1.1-23.5-5.3
		c-2.3-1.3-2.5-2.4-1.2-4.5c2.5-4.1,4.8-8.4,7-12.7c1.1-2.3,2.2-2.8,4.5-1.4c3,1.8,6.4,2.9,9.9,3.2c2.7,0.2,5.2-0.5,6-3.4
		c0.8-2.7-1.6-3.7-3.4-4.8c-0.4-0.3-0.9-0.4-1.3-0.7c-12.9-6.4-16.7-13.3-14.2-26.1c2.5-12.6,11.7-20.8,24.5-21.8
		C465,245.9,466.7,246,468.3,246z"/>
	<path class="st7" d="M438.3,434.8c-3.4-0.5-9.3,1.9-11.4-1c-1.7-2.3,1-7.8,1.8-11.9c5.1-26.3,10.3-52.5,15.2-78.8
		c0.9-4.6,2-7.3,7.4-7.6c5.8-0.2,11.5-1.7,17.2-2.7c2.4-0.4,3.6-0.6,2.9,2.7c-6.3,31.9-12.5,63.9-18.6,95.9
		c-0.5,2.6-1.6,3.6-4.3,3.4C445.4,434.7,442.2,434.8,438.3,434.8z"/>
	<path class="st7" d="M461,434.8c2.8-14.7,5.6-29,8.4-43.4c3.2-16.7,6.6-33.3,9.7-50c0.7-3.6,1.8-5.4,5.9-5.7
		c5.9-0.5,11.8-1.7,17.7-2.8c3.3-0.6,4.3,0,3.5,3.6c-4.7,23.1-9.1,46.3-13.6,69.5c-1.6,8.2-3.2,16.3-4.7,24.5c-0.5,3-1.5,4.5-5,4.3
		C475.7,434.6,468.5,434.8,461,434.8z"/>
	<path class="st7" d="M169,409.8c-2-1.3-6.3,2.6-7.1-2.9c-0.1-1-1.1-0.1-1.5,0.2c-1.3,0.7-2.5,1.6-3.9,2.3
		c-9.5,4.7-17.7,0.1-18.5-10.3c-0.8-10.2,1.3-19.9,6.2-28.8c5.4-9.8,11.9-12,22.3-7.7c2.3,0.9,2.1-0.4,2.4-1.6
		c0.7-3.3,1.7-6.5,1.9-9.8c0.2-4.6,2.3-6.4,6.9-7c12.2-1.7,12-1.9,9.7,10.1c-3.2,16.1-6.1,32.3-9.5,48.4
		C176.1,411.4,178.4,409.6,169,409.8z M155.8,390.4c0.2,1.4-1.1,4.1,1.7,4.5c2.7,0.4,4.8-1.5,5.5-4.1c0.9-3.2,1.3-6.5,2-9.8
		c0.4-2.1,0.6-4.1-1.9-4.9c-2.8-0.8-4,1-4.8,3.1C156.9,382.8,156,386.3,155.8,390.4z"/>
	<path class="st7" d="M404.6,434.8c-2.8,0-5.7-0.3-8.5,0.1c-4.6,0.6-4.7-1.6-4-5.1c4.3-21.5,8.6-43,12.7-64.5c0.6-3,1.4-4.3,4.7-4.1
		c6.1,0.2,12.3,0.2,18.5,0c2.7-0.1,3.5,0.8,3,3.4c-4.4,22.5-8.7,45-13,67.5c-0.4,1.9-1.2,2.8-3.3,2.7
		C411.2,434.7,407.9,434.8,404.6,434.8z"/>
	<path class="st6" d="M267.3,321.4c-2.3,0-4.7,0-7,0c-6.3,0-6.3,0-5.2-5.9c4.2-21.3,8.5-42.7,12.5-64c0.5-2.7,1.4-3.5,4.1-3.5
		c6.3,0.2,12.6,0.2,19,0c2.5-0.1,3.5,0.4,3,3.2c-4.4,22.1-8.6,44.3-12.9,66.5c-0.5,2.8-1.6,4-4.6,3.7
		C273.3,321.2,270.3,321.4,267.3,321.4z"/>
	<path class="st7" d="M286.9,406.3c-3.1,1.5-5.2,2.8-7.6,3.6c-8.4,2.7-15.4-1.5-16.1-10.3c-0.9-12.3,2.3-23.8,10.1-33.5
		c6.1-7.5,13.7-8,21.4-2.1c0.8,0.6,1.2,2,2.7,0.5c2.1-2.1,12-2.8,14.3-1.5c1.3,0.8,0.6,1.7,0.4,2.5c-3.4,14.2-6.9,28.4-10.4,42.5
		c-0.5,1.9-1.3,2.8-3.5,2.5c-2.6-0.4-5.3-0.5-8-0.4C287.5,410.3,286.5,409.1,286.9,406.3z M287.9,376c-2.1,0.2-3.1,1.6-3.6,3.2
		c-1.1,3.3-2.2,6.6-3,9.9c-0.4,1.9-1.5,4.9,1.2,5.6c2.8,0.8,5.2-1.2,6-3.9c1.1-3.6,1.9-7.3,2.7-11.1
		C291.7,377.1,289.8,376.5,287.9,376z"/>
	<path class="st7" d="M203.3,411.1c-14.3,0.1-19.3-5-18.5-18.5c0.4-7.1,1.9-13.8,5.4-20.1c5.9-10.8,19.1-15.5,30.6-11.2
		c4.5,1.7,7.6,4.8,8.2,9.8c0.7,6.4-1,12-6.7,15.6c-5,3.3-10.8,4.1-16.7,4.3c-1.7,0.1-3.9-0.7-3.8,2.3c0,2.6,1.5,3.5,3.8,3.6
		c4.4,0.1,8.6-0.7,12.8-2c2.7-0.9,3.4,0,3.7,2.6c1.3,9.7,1.4,9.8-8.1,12.1C210.2,410.6,206.4,411.3,203.3,411.1z M206.5,379.3
		c2.6-0.4,5.6-0.2,6.1-3.6c0.3-2-1.3-2.8-3.2-2.7c-3.1,0.2-4.6,2.4-5.2,5.1C203.7,379.9,205.6,379.2,206.5,379.3z"/>
	<path class="st8" d="M509.3,247.8c0.3,0.2,0.6,0.3,0.8,0.6c4.6,4.6,11.7,8.6,12.9,14c1.2,5.4-5.2,11.3-8,17
		c-0.6,1.2-1.2,2.4-1.9,3.5c-3.1,4.7-4.6,9.1-1.5,15c3.1,5.7,2.5,12.6,1.4,19.1c-7.4,1.4-14.8,2.8-22.9,4.3
		c4.4-7.8,7.5-14.9,8.2-23.2c0.5-6,0.2-11.7-2.4-16.8c-2-4-1.6-6.8,0.5-10.5C500.8,263.2,504.4,255.2,509.3,247.8z"/>
	<path class="st7" d="M270.8,341.6c-4.2,17-8.2,33.3-12.2,49.6c-0.8,3.1-1.5,6.1-2.4,9.2c-0.8,2.6,0,6.8-2.8,7.4
		c-4.8,1-10,0.4-14.9-0.5c-1.7-0.3-0.8-2-0.5-2.9c4.7-19.4,9.5-38.7,14.3-58.1c0.4-1.7,1-3,3.2-3.1
		C260.3,342.8,265.1,342.2,270.8,341.6z"/>
	<path class="st7" d="M282.4,241c-3.2,0-6.3-0.1-9.5,0c-2.3,0.1-3.4-0.3-2.8-3c1.2-5.2,2.2-10.4,3.2-15.6c0.4-2.3,1.4-3.3,4-3.2
		c6.5,0.2,13,0.1,19.4,0c2.4,0,3.2,0.4,2.6,3.1c-1.3,5.1-2.4,10.4-3,15.6c-0.4,2.8-1.7,3.1-3.9,3C289,241,285.7,241,282.4,241z"/>
	<path class="st6" d="M419.9,354.5c-4.1-0.2-10.2,1.1-11.9-1c-2.2-2.8,0.8-8,1.6-12.2c1.7-8.6,1.8-8.5,10.4-8.5c4.7,0,9.3,0.1,14,0
		c2.3-0.1,3.3,0.3,2.7,3c-1.2,5-2.1,10.1-3,15.2c-0.4,2.6-1.5,3.6-4.2,3.4c-3.1-0.3-6.3-0.1-9.5-0.1
		C419.9,354.4,419.9,354.4,419.9,354.5z"/>
	<path class="st3" d="M230.2,350.1c-8-2.9-16-5.6-24.6-3.2c-0.8,0.2-2,0.1-2.2-0.7c-0.5-3.2,0.7-6.1,1.4-9.1c0.5-2.3,2.3-2,4-2
		c9.5,0,19,0.1,28.4-0.1c3.1,0,3.7,0.9,2.8,3.8c-1.2,3.8-2.1,7.6-3.1,11.5C234.7,350.1,232.5,350.1,230.2,350.1z"/>
	<path class="st3" d="M524,316c5.3,3.7,9,9.1,14,13c0,0-0.1-0.1-0.1-0.1c0.3,0.2,0.6,0.5,0.9,0.7c0.1,1,0.1,2.1,0.2,3.1
		c-0.8,4.3-1.7,8.7-2.5,13c-6.1-1.7-11.9,0.9-18.4,1.6C520.1,336.8,522.1,326.4,524,316z"/>
	<path class="st3" d="M306.6,349c-5.9-0.1-13.3-2-20.8-3.1c-0.4-0.1-1-0.3-1.3-0.7c-1.3-2.1,2.7-10.2,5.2-10.2
		c7.7-0.1,15.3,0,23-0.1c2.3,0,3.4,0.8,3.3,3.2c-0.1,1,0,2,0,3C315.9,350,317,348.9,306.6,349z"/>
	<path class="st5" d="M607.3,451c-6.1,2.1-12.3,0.6-18.5,1c-1.5,0.1-2.1-1-1.8-2.3c1.7-7.3,2-14.9,5-21.9
		C597.1,435.6,602.2,443.3,607.3,451z"/>
	<path class="st3" d="M63.9,282.7c-1.1,0.2-1.7-0.2-1.5-1.6c1.1-5.5,1.9-11,4.1-16.2c0.7-1.7,1.6-3.6,4-2.4c2,1,1.1,2.6,0.6,4.3
		c-1.3,3.9-2.3,7.9-3.5,11.8C67.1,280.4,66.8,282.7,63.9,282.7z"/>
	<path class="st4" d="M536.5,345.8c0.8-4.3,1.7-8.7,2.5-13c0.9,2.4,1.8,4.9,2.8,7.3c0.9,2.3,1.8,4.6,3,7.4
		C541.7,346.9,539.1,346.3,536.5,345.8z"/>
	<path class="st7" d="M230.2,350.1c2.2,0,4.5,0,6.7,0.1c0.1,1.5-0.3,2.9-1.3,4.6C233.8,353.2,232,351.6,230.2,350.1z"/>
	<path class="st3" d="M662,276c0.8,0.4,1.2,1,1.2,1.9C662.2,277.6,662,276.9,662,276z"/>
	<path class="st4" d="M538.8,329.7c-0.3-0.2-0.6-0.5-0.9-0.7C538.2,329.2,538.5,329.4,538.8,329.7z"/>
	<path class="st3" d="M663.1,277.9c0.5,0.3,0.9,0.7,1.4,1C664,278.6,663.5,278.2,663.1,277.9z"/>
	<path class="st9" d="M657,224c0,6.7,0,6.4-6.7,7.1c-14.1,1.4-28.2,3.2-42.3,4.7c-10.7,1.2-21.3,2.1-32,3.2
		c-12.3,1.3-24.6,2.7-36.9,4c-2.4-0.3-2.1-2.2-2.1-3.8c0-15,0.9-30.1,1.9-45.1c0.5-7.8,0.1-15.6,0.1-23.4c1.5-3.5,0.7-7.2,1-10.7
		c3.5-4.1,2.6-8.6,0.8-13c0.5-13.5,1-26.9,1.3-40.4c0.1-2.6,1-3.8,3.3-4.7c34.4-14.6,68.8-29.2,103.2-43.9c3.8-1.6,4.8-1.1,4.8,3.1
		c0.5,34.8,1.1,69.5,1.9,104.3c0.4,18.5,1,36.9,0.7,55.4C656,222,655.8,223.2,657,224z"/>
	<path class="st10" d="M683,327.1c6.9,2,13.8,4,20.6,6c18.4,5.8,36.7,11.6,55.1,17.2c4,1.2,5.3,2.9,5.5,7.1
		c0.8,27.6,1.9,55.2,3.1,82.8c0.2,4-1.2,5.1-4.8,5.5c-26.3,2.7-52.6,5.5-78.9,8.3c-10.1,1.1-20.2,1.8-30.2,3.3
		c-5.1,0.8-6.6-0.6-5.8-5.3c0.2-13.7,1.8-27.4,1.2-41.2c7.8-14.8,15.7-29.5,23.6-44.3C679.1,354.2,683.1,341.1,683,327.1z"/>
	<path class="st11" d="M679.7,40.2c0.9,3-0.8,4.1-4,4.9C626.2,58,576.7,71,527.1,83.9c-1.5,0.4-3.7,2.7-5.1,0
		c-1.3-2.5,1.4-8.3,3.8-9c12.8-3.5,25.7-6.9,38.5-10.4c36.4-9.8,72.9-19.5,109.4-29.3C679.5,33.6,679.5,33.6,679.7,40.2z"/>
	<path class="st11" d="M540.7,147c1.8,4.5,2.7,8.9-0.8,13c-15.9,2.8-31.7,5.6-47.6,8.4c-20.2,3.7-40.5,7.5-61.8,11.4
		c2.4-6,4.5-11.3,6.7-16.6c0.7-1.8,2.5-1.4,3.9-1.6c25.2-3.6,50.4-7.1,75.5-10.8C524.7,149.7,532.9,149.4,540.7,147z"/>
	<path class="st5" d="M649,410.8c0.6,13.8-1,27.4-1.2,41.2c-6.7,0-13.3-0.1-20-0.1c-2.6,0-3.4-0.7-1.9-3.2
		C633.6,436.1,641.3,423.4,649,410.8z"/>
	<path class="st12" d="M581.9,316.9c0-14,11.2-24.9,25.2-24.9c13.9,0,25,11.3,25,25.2c0,13.9-11.2,24.9-25.3,24.9
		C592.8,342,581.8,330.9,581.9,316.9z"/>
	<path class="st12" d="M526,406.3c0.6-5.8,1.7-12.2,4.2-18.2c1.3-3,3.1-5.6,7.2-4.3c4.1,1.3,3.8,4.1,3,7.5
		c-1.1,4.2-1.8,8.4-2.4,12.7c-0.4,3-1.8,5.3-4.3,6.9c-1.8,1.1-3.5,2.8-5.9,1.4C525.7,411,526,408.9,526,406.3z"/>
	<path class="st12" d="M120.6,275.1c-1.2,6-2.2,12.1-3.6,18c-0.8,3.6-3.9,5.2-7.2,6.1c-2.4,0.7-3.9-0.7-3.9-3.2
		c-0.1-8.1,1.4-15.8,5-23.1c1.2-2.5,3.5-3.7,6.2-2.5C119.1,271.3,121.3,272.2,120.6,275.1z"/>
	<path class="st12" d="M406.2,277.3c-0.6,5.8-1.5,11.9-4.4,17.5c-1.7,3.3-4.3,6-8.3,4.7c-4.2-1.3-3.6-5.1-3.2-8.4
		c0.6-4.1,1.5-8.1,2.6-12.1c0.5-1.9,1.4-3.7,2.4-5.4c1.8-3,4.6-4.5,8-3.4C406.7,271.3,406.1,274.4,406.2,277.3z"/>
	<path class="st12" d="M155.8,390.4c0.2-4.1,1.1-7.7,2.4-11.1c0.8-2.1,2.1-4,4.8-3.1c2.6,0.8,2.4,2.8,1.9,4.9
		c-0.7,3.3-1.1,6.6-2,9.8c-0.7,2.6-2.8,4.5-5.5,4.1C154.7,394.5,156,391.8,155.8,390.4z"/>
	<path class="st12" d="M287.9,376c1.9,0.4,3.8,1,3.3,3.8c-0.8,3.7-1.5,7.4-2.7,11.1c-0.9,2.8-3.3,4.7-6,3.9
		c-2.7-0.7-1.6-3.7-1.2-5.6c0.7-3.4,1.8-6.7,3-9.9C284.8,377.7,285.8,376.3,287.9,376z"/>
	<path class="st12" d="M206.5,379.3c-1-0.1-2.8,0.6-2.4-1.3c0.6-2.6,2.1-4.8,5.2-5.1c1.9-0.1,3.5,0.7,3.2,2.7
		C212.2,379.1,209.1,378.9,206.5,379.3z"/>
</g>
</svg>
