<?xml version="1.0" encoding="UTF-8" standalone="no"?>
<svg width="907px" height="348px" viewBox="0 0 907 348" version="1.1" xmlns="http://www.w3.org/2000/svg" xmlns:xlink="http://www.w3.org/1999/xlink">
    <!-- Generator: Sketch 50.2 (55047) - http://www.bohemiancoding.com/sketch -->
    <title>Artboard 1</title>
    <desc>Created with Sketch.</desc>
    <defs>
        <polygon id="path-1" points="0.76996848 0.826526864 13.9436068 0.826526864 13.9436068 14 0.76996848 14"></polygon>
    </defs>
    <g id="Artboard-1" stroke="none" stroke-width="1" fill="none" fill-rule="evenodd">
        <path d="M73.9408,94.8466 C67.8938,99.1786 62.2208,103.1226 56.8638,106.7436 C56.0628,112.2766 55.6408,117.9326 55.6408,123.6876 C55.6408,129.6466 56.0878,135.5006 56.9468,141.2206 L85.9198,119.5686 L73.9408,94.8466 Z" id="Fill-1" fill="#DADADA"></path>
        <path d="M172.3129,68.0732 C169.3549,59.5672 167.1069,52.1272 166.4969,47.6992 C165.2179,38.4382 162.7909,31.9602 160.7879,27.8942 C155.2219,31.6072 150.1279,35.3332 145.6399,39.0472 C137.5739,45.7202 129.9279,51.9382 122.6669,57.7442 L138.5709,83.4512 L172.3129,68.0732 Z" id="Fill-3" fill="#DADADA"></path>
        <polygon id="Fill-5" fill="#DADADA" points="64.4447 146.3466 99.4957 147.5806 89.7377 127.4456"></polygon>
        <path d="M143.2748,91.3368 L152.1918,121.1148 L191.3208,116.7228 C187.8088,108.3488 180.8928,91.5818 175.2238,76.1908 L143.0898,90.8368 C143.1628,90.9998 143.2238,91.1658 143.2748,91.3368" id="Fill-7" fill="#DADADA"></path>
        <path d="M177.0326,150.3115 L179.3386,150.3925 L174.7596,127.2305 L154.6966,129.4815 L160.7626,149.7385 L176.6206,150.2965 C176.7596,150.2965 176.8966,150.2985 177.0326,150.3115" id="Fill-9" fill="#DADADA"></path>
        <path d="M200.226,115.7241 L218.297,113.6961 L210.438,39.2771 C204.335,39.0671 198.804,38.6291 194.379,38.2761 C191.805,38.0711 189.581,37.8941 187.812,37.8041 C179.652,37.3821 175.642,40.9301 174.342,42.4001 C174.586,43.7211 174.812,45.0911 175.01,46.5241 C176.803,59.5091 195.227,103.8541 200.226,115.7241" id="Fill-11" fill="#DADADA"></path>
        <path d="M258.7103,192.725 L258.0003,162.719 L245.0073,162.261 L248.4673,213.32 C252.1683,210.196 255.6723,206.849 258.9603,203.296 L258.7153,192.91 C258.7123,192.848 258.7103,192.787 258.7103,192.725" id="Fill-13" fill="#DADADA"></path>
        <path d="M278.7064,163.4477 L266.6044,163.0217 L267.2214,189.0497 L269.9384,189.4967 C273.3864,184.4227 276.4414,179.0607 279.0714,173.4597 C278.9894,173.1827 278.9294,172.8957 278.9224,172.5927 L278.7064,163.4477 Z" id="Fill-15" fill="#DADADA"></path>
        <path d="M219.0912,39.3881 L230.8452,150.6701 C230.9012,151.2001 230.8592,151.7161 230.7322,152.2021 L257.6692,153.1511 L241.8962,37.2241 C234.3792,38.7491 226.5202,39.3111 219.0912,39.3881" id="Fill-17" fill="#DADADA"></path>
        <path d="M272.6586,152.6303 L267.0366,95.4253 L258.6606,96.6893 L266.3356,153.0943 C266.3536,153.2133 266.3666,153.3353 266.3756,153.4583 L272.9176,153.6883 C272.7936,153.3523 272.6956,153.0033 272.6586,152.6303" id="Fill-19" fill="#DADADA"></path>
        <path d="M181.3939,160.0205 C183.7399,191.9765 179.3179,211.6715 174.4679,225.4115 L215.0849,221.5015 L210.4629,161.0445 L181.3939,160.0205 Z" id="Fill-21" fill="#DADADA"></path>
        <path d="M222.2982,151.5737 L219.1992,122.2427 L198.0592,124.6157 C198.0172,124.6207 197.9752,124.6257 197.9322,124.6307 L183.3302,126.2687 L188.1602,150.7037 L222.3662,151.9077 C222.3462,151.7957 222.3112,151.6887 222.2982,151.5737" id="Fill-23" fill="#DADADA"></path>
        <path d="M219.1058,161.3486 L223.5818,219.8816 C223.7328,220.1206 223.8618,220.3766 223.9638,220.6476 L240.2448,219.0796 L236.3728,161.9566 L219.1058,161.3486 Z" id="Fill-25" fill="#DADADA"></path>
        <path d="M170.9818,234.3808 C170.5818,235.3428 170.1888,236.2718 169.8078,237.1728 C169.2668,238.4508 168.7518,239.6748 168.2788,240.8388 C169.8088,240.8978 171.3448,240.9368 172.8898,240.9368 C188.4188,240.9368 203.2378,237.9108 216.8008,232.4288 L216.5218,229.9978 L170.9818,234.3808 Z" id="Fill-27" fill="#DADADA"></path>
        <path d="M161.892,233.8261 C162.16,233.1921 162.434,232.5451 162.712,231.8791 L159.117,230.3031 L151.259,238.9381 C153.921,239.4341 156.616,239.8391 159.338,240.1531 C159.43,239.8891 159.517,239.6211 159.616,239.3671 C160.288,237.6211 161.067,235.7771 161.892,233.8261" id="Fill-29" fill="#DADADA"></path>
        <path d="M281.2123,151.79 C281.2883,152.563 281.1463,153.306 280.8483,153.967 L286.1323,154.154 C288.7393,144.437 290.1393,134.227 290.1393,123.688 C290.1393,112.913 288.6773,102.481 285.9563,92.57 L275.5463,94.141 L281.2123,151.79 Z" id="Fill-31" fill="#DADADA"></path>
        <path d="M172.3705,34.122 C175.7005,31.887 180.8395,29.796 188.2035,30.174 C190.0815,30.27 192.3535,30.451 194.9865,30.661 C199.7525,31.04 205.8645,31.525 212.5565,31.696 C212.9775,31.497 213.4295,31.348 213.9155,31.296 C214.7835,31.205 215.6175,31.382 216.3385,31.756 C224.8425,31.804 234.0155,31.243 242.4335,29.289 C228.4255,18.952 212.0355,11.658 194.2355,8.384 C184.9495,13.239 176.1125,18.202 168.0595,23.212 C169.4585,25.919 171.0115,29.534 172.3705,34.122" id="Fill-33" fill="#DADADA"></path>
        <path d="M135.9008,27.2743 C142.7968,21.5703 150.9518,15.8733 159.9618,10.2593 L158.2558,7.3463 C117.5998,12.4093 83.4118,38.2873 66.6768,73.9803 C67.4538,76.1273 68.0998,78.0893 68.6288,79.8363 C87.1838,66.4013 109.1938,49.3693 135.9008,27.2743" id="Fill-35" fill="#DADADA"></path>
        <path d="M266.2826,87.749 L262.3686,47.929 C258.6686,43.562 254.6546,39.471 250.3606,35.687 L257.6276,89.09 L266.2826,87.749 Z" id="Fill-37" fill="#DADADA"></path>
        <path d="M283.6195,85.0644 C280.7265,76.7724 276.9305,68.9054 272.3465,61.5804 L274.7885,86.4314 L283.6195,85.0644 Z" id="Fill-39" fill="#DADADA"></path>
        <path d="M70.5521,156.1171 C71.4231,156.4401 72.2021,157.0291 72.7261,157.8821 C73.9661,159.9061 73.3321,162.5511 71.3091,163.7921 L64.3391,168.0661 C66.2241,172.6711 68.3911,177.1291 70.8231,181.4191 L100.3211,157.1651 L70.5521,156.1171 Z" id="Fill-41" fill="#DADADA"></path>
        <path d="M144.7709,233.2978 L154.8369,222.2348 C156.0779,220.8708 158.0519,220.4488 159.7419,221.1928 L165.8749,223.8818 C170.6629,210.7138 175.2069,191.6158 172.7509,159.7158 L132.6029,158.3018 L139.8709,236.2148 C141.1739,236.5968 142.4839,236.9618 143.8049,237.2988 C143.4419,235.9338 143.7499,234.4208 144.7709,233.2978" id="Fill-43" fill="#DADADA"></path>
        <path d="M112.4095,157.5913 C112.1515,158.2823 111.7235,158.9153 111.1235,159.4093 L75.3755,188.8023 C88.7635,208.8133 108.1475,224.4683 130.9585,233.2073 L123.9425,157.9973 L112.4095,157.5913 Z" id="Fill-45" fill="#DADADA"></path>
        <path d="M67.8539,156.0219 L60.0789,155.7479 C60.4669,157.1209 60.8889,158.4799 61.3269,159.8319 L66.8169,156.4649 C67.1479,156.2619 67.4989,156.1269 67.8539,156.0219" id="Fill-47" fill="#DADADA"></path>
        <path d="M115.8929,63.1293 C103.0779,73.2563 91.5169,82.0433 81.0099,89.7263 L100.8439,130.6553 L116.0899,122.7083 C118.1939,121.6133 120.7889,122.4283 121.8869,124.5323 C122.9839,126.6373 122.1669,129.2333 120.0629,130.3303 L104.5929,138.3923 L109.2119,147.9233 L151.6959,149.4193 L145.0099,127.0923 C144.9959,127.0463 144.9819,127.0003 144.9689,126.9533 L135.2049,94.3473 L115.8929,63.1293 Z" id="Fill-49" fill="#7DBC73"></path>
        <path d="M266.3353,153.0947 L258.6603,96.6887 L267.0363,95.4257 L272.6583,152.6307 C272.6953,153.0037 272.7933,153.3517 272.9173,153.6877 L266.3753,153.4577 C266.3663,153.3347 266.3543,153.2137 266.3353,153.0947 Z M230.7313,152.2027 C230.8583,151.7167 230.9003,151.1997 230.8453,150.6707 L219.0913,39.3877 C226.5203,39.3117 234.3793,38.7497 241.8963,37.2247 L257.6693,153.1517 L230.7313,152.2027 Z M223.9643,220.6477 C223.8613,220.3767 223.7323,220.1207 223.5813,219.8817 L219.1063,161.3487 L236.3723,161.9567 L240.2443,219.0797 L223.9643,220.6477 Z M188.1603,150.7037 L183.3303,126.2687 L197.9323,124.6307 C197.9753,124.6257 198.0173,124.6207 198.0593,124.6157 L219.1993,122.2427 L222.2983,151.5737 C222.3113,151.6887 222.3463,151.7957 222.3663,151.9077 L188.1603,150.7037 Z M174.4683,225.4117 C179.3173,211.6717 183.7393,191.9767 181.3943,160.0207 L210.4633,161.0447 L215.0853,221.5017 L174.4683,225.4117 Z M160.7633,149.7387 L154.6963,129.4817 L174.7593,127.2307 L179.3383,150.3927 L177.0323,150.3117 C176.8973,150.2987 176.7593,150.2967 176.6203,150.2967 L160.7633,149.7387 Z M105.7353,152.7317 L74.0853,85.2917 L116.9283,57.9807 L141.1173,101.1247 L155.2683,152.7317 L105.7353,152.7317 Z M64.4443,146.3467 L89.7373,127.4457 L99.4953,147.5807 L64.4443,146.3467 Z M145.6403,39.0467 C150.1283,35.3337 155.2223,31.6077 160.7873,27.8937 C162.7903,31.9597 165.2183,38.4377 166.4963,47.6997 C167.1063,52.1277 169.3553,59.5667 172.3133,68.0737 L138.5703,83.4507 L122.6673,57.7447 C129.9283,51.9377 137.5733,45.7207 145.6403,39.0467 Z M175.2243,76.1907 C180.8933,91.5817 187.8093,108.3487 191.3203,116.7227 L152.1913,121.1147 L143.2743,91.3367 C143.2243,91.1657 143.1623,90.9997 143.0903,90.8367 L175.2243,76.1907 Z M187.8123,37.8037 C189.5813,37.8937 191.8053,38.0707 194.3793,38.2767 C198.8043,38.6287 204.3353,39.0677 210.4383,39.2777 L218.2973,113.6957 L200.2263,115.7237 C195.2273,103.8537 176.8033,59.5097 175.0103,46.5237 C174.8123,45.0917 174.5863,43.7207 174.3423,42.3997 C175.6423,40.9297 179.6513,37.3817 187.8123,37.8037 Z M267.2213,189.0497 L266.6053,163.0217 L278.7063,163.4477 L278.9223,172.5927 C278.9293,172.8957 278.9893,173.1827 279.0713,173.4597 C281.9653,167.2987 284.3373,160.8447 286.1323,154.1537 L280.8483,153.9677 C281.1463,153.3057 281.2883,152.5637 281.2123,151.7897 L275.5463,94.1407 L285.9563,92.5707 C285.2593,90.0327 284.4793,87.5297 283.6193,85.0647 L274.7883,86.4317 L272.3463,61.5807 C269.3463,56.7857 266.0103,52.2247 262.3683,47.9287 L266.2823,87.7487 L257.6273,89.0897 L250.3603,35.6877 C247.8143,33.4437 245.1703,31.3087 242.4343,29.2897 C234.0153,31.2427 224.8423,31.8037 216.3383,31.7557 C215.6173,31.3827 214.7833,31.2047 213.9153,31.2967 C213.4293,31.3477 212.9783,31.4967 212.5563,31.6967 C205.8643,31.5257 199.7523,31.0407 194.9863,30.6607 C192.3543,30.4507 190.0813,30.2697 188.2033,30.1737 C180.8393,29.7967 175.7003,31.8867 172.3703,34.1217 C171.0113,29.5337 169.4583,25.9187 168.0603,23.2117 C176.1123,18.2017 184.9493,13.2387 194.2353,8.3837 C187.3143,7.1107 180.1803,6.4387 172.8903,6.4387 C167.9343,6.4387 163.0503,6.7497 158.2563,7.3467 L159.9613,10.2597 C150.9513,15.8737 142.7963,21.5707 135.9003,27.2747 C109.1933,49.3697 87.1843,66.4017 68.6283,79.8367 C68.1003,78.0897 67.4533,76.1277 66.6773,73.9807 C65.7103,76.0447 64.7973,78.1387 63.9483,80.2667 L69.8553,90.9867 L58.8833,96.2237 C58.0553,99.6737 57.3793,103.1827 56.8633,106.7437 C62.2213,103.1227 67.8943,99.1787 73.9403,94.8467 L85.9203,119.5687 L56.9463,141.2207 C57.6893,146.1707 58.7373,151.0207 60.0783,155.7477 L67.8543,156.0217 C67.4983,156.1267 67.1483,156.2617 66.8163,156.4657 L61.3263,159.8317 C62.2313,162.6237 63.2363,165.3697 64.3393,168.0667 L71.3093,163.7917 C73.3323,162.5517 73.9663,159.9057 72.7263,157.8827 C72.2023,157.0287 71.4233,156.4397 70.5523,156.1167 L100.3203,157.1657 L70.8223,181.4187 C72.2513,183.9397 73.7693,186.4027 75.3753,188.8027 L111.1233,159.4087 C111.7243,158.9157 112.1513,158.2817 112.4093,157.5917 L123.9423,157.9977 L130.9583,233.2077 C133.8753,234.3247 136.8473,235.3297 139.8703,236.2157 L132.6033,158.3027 L172.7513,159.7167 C175.2063,191.6157 170.6623,210.7137 165.8743,223.8817 L159.7413,221.1927 C158.0523,220.4487 156.0773,220.8707 154.8373,222.2347 L144.7713,233.2977 C143.7493,234.4207 143.4413,235.9337 143.8053,237.2987 C146.2593,237.9257 148.7463,238.4687 151.2593,238.9377 L159.1163,230.3027 L162.7123,231.8797 C162.4343,232.5447 162.1593,233.1927 161.8923,233.8257 C161.0663,235.7767 160.2873,237.6207 159.6153,239.3667 C159.5173,239.6217 159.4303,239.8897 159.3383,240.1527 C162.2863,240.4917 165.2683,240.7217 168.2783,240.8387 C168.7513,239.6757 169.2673,238.4507 169.8083,237.1727 C170.1893,236.2717 170.5813,235.3437 170.9813,234.3807 L216.5223,229.9977 L216.8013,232.4287 C228.3933,227.7427 239.0633,221.2587 248.4673,213.3207 L245.0073,162.2607 L258.0003,162.7187 L258.7103,192.7247 C258.7103,192.7867 258.7123,192.8477 258.7153,192.9097 L258.9603,203.2967 C262.9513,198.9837 266.6253,194.3727 269.9393,189.4967 L267.2213,189.0497 Z" id="Fill-51" fill="#FEFEFE"></path>
        <path d="M145.0101,127.0927 L151.6961,149.4197 L109.2121,147.9237 L104.5931,138.3927 L120.0631,130.3297 C122.1671,129.2327 122.9841,126.6377 121.8871,124.5327 C120.7891,122.4277 118.1941,121.6137 116.0901,122.7087 L100.8441,130.6557 L81.0101,89.7267 C91.5171,82.0437 103.0771,73.2567 115.8931,63.1297 L135.2041,94.3467 L144.9691,126.9527 C144.9821,127.0007 144.9951,127.0467 145.0101,127.0927 Z M116.9281,57.9807 L74.0851,85.2917 L105.7361,152.7317 L155.2681,152.7317 L141.1171,101.1247 L116.9281,57.9807 Z" id="Fill-53" fill="#FEFEFE"></path>
        <path d="M62.1635,89.1782 L64.0365,88.8072 C64.2855,90.0632 64.3665,90.7312 64.3705,90.7592 L62.4745,90.9862 C62.4735,90.9802 62.3955,90.3522 62.1635,89.1782 Z M63.9485,80.2662 C63.5275,81.3212 63.1185,82.3822 62.7275,83.4512 C62.9415,84.2112 63.1395,84.9362 63.3035,85.5812 L61.8485,85.9502 C60.7065,89.3082 59.7205,92.7372 58.8835,96.2242 L69.8545,90.9862 L63.9485,80.2662 Z" id="Fill-55" fill="#FEFEFE"></path>
        <path d="M64.0365,88.8071 L62.1635,89.1781 C62.3955,90.3521 62.4735,90.9801 62.4745,90.9861 L64.3705,90.7591 C64.3665,90.7311 64.2855,90.0631 64.0365,88.8071" id="Fill-57" fill="#FEFEFE"></path>
        <path d="M63.3031,85.5815 C63.1391,84.9355 62.9421,84.2115 62.7281,83.4515 C62.4251,84.2805 62.1321,85.1135 61.8481,85.9505 L63.3031,85.5815 Z" id="Fill-59" fill="#FEFEFE"></path>
        <path d="M199.6508,99.6235 C200.0008,114.4025 173.5248,154.2345 173.5248,154.2345 C173.5248,154.2345 146.4828,115.6675 146.1328,100.8885 C145.7838,86.1095 157.4798,73.8465 172.2588,73.4975 C187.0408,73.1475 199.3008,84.8445 199.6508,99.6235" id="Fill-61" fill="#DF225B"></path>
        <path d="M157.3734,98.767 C157.3734,90.198 164.3204,83.251 172.8904,83.251 C181.4594,83.251 188.4054,90.198 188.4054,98.767 C188.4054,107.336 181.4594,114.283 172.8904,114.283 C164.3204,114.283 157.3734,107.336 157.3734,98.767" id="Fill-63" fill="#FEFEFE"></path>
        <path d="M383.4808,44.7949 L369.9668,44.7949 L368.0988,32.7139 C366.3138,30.9289 364.0608,29.5179 361.3428,28.4789 C358.6238,27.4409 355.4158,26.9219 351.7208,26.9219 C343.8338,26.9219 337.7608,29.7869 333.5058,35.5159 C329.2508,41.2449 327.1238,48.7179 327.1238,57.9349 L327.1238,61.1099 C327.1238,70.3269 329.2408,77.8209 333.4748,83.5909 C337.7098,89.3619 343.6878,92.2469 351.4108,92.2469 C354.9798,92.2469 358.2498,91.7289 361.2178,90.6909 C364.1858,89.6529 366.4798,88.2419 368.0988,86.4559 L369.9668,74.3749 L383.4808,74.3749 L383.4808,92.3099 C379.8278,96.5439 375.1678,99.9179 369.5008,102.4289 C363.8338,104.9409 357.4918,106.1959 350.4758,106.1959 C338.3108,106.1959 328.3468,101.9829 320.5848,93.5549 C312.8208,85.1279 308.9388,74.3129 308.9388,61.1099 L308.9388,58.0589 C308.9388,44.8989 312.7998,34.0839 320.5218,25.6149 C328.2438,17.1459 338.2278,12.9109 350.4758,12.9109 C357.4918,12.9109 363.8228,14.1879 369.4688,16.7399 C375.1148,19.2939 379.7858,22.6669 383.4808,26.8599 L383.4808,44.7949 Z" id="Fill-65" fill="#009EE2"></path>
        <path d="M423.7719,67.0263 L444.5719,67.0263 L434.3589,35.0803 L433.9849,35.0803 L423.7719,67.0263 Z M390.8909,93.9913 L397.3679,93.0573 L424.9559,14.2183 L443.5759,14.2183 L470.9749,93.0573 L477.4519,93.9913 L477.4519,104.8893 L446.5639,104.8893 L446.5639,93.9913 L452.8539,92.8703 L448.8689,80.4153 L419.4749,80.4153 L415.4899,92.8703 L421.7789,93.9913 L421.7789,104.8893 L390.8909,104.8893 L390.8909,93.9913 Z" id="Fill-67" fill="#009EE2"></path>
        <polygon id="Fill-69" fill="#009EE2" points="570.9252 37.8198 570.5512 37.7578 546.2652 104.8888 534.0592 104.8888 509.8972 38.0068 509.5232 38.0698 511.2662 77.8618 511.2662 92.1228 520.9812 93.9908 520.9812 104.8888 483.4302 104.8888 483.4302 93.9908 493.0822 92.1228 493.0822 27.0468 483.4302 25.1788 483.4302 14.2178 493.0822 14.2178 516.8092 14.2178 539.9122 81.0378 540.2852 81.0378 563.5762 14.2178 597.0792 14.2178 597.0792 25.1788 587.3642 27.0468 587.3642 92.1228 597.0792 93.9908 597.0792 104.8888 559.5292 104.8888 559.5292 93.9908 569.1812 92.1228 569.1812 77.8618"></polygon>
        <polygon id="Fill-71" fill="#009EE2" points="603.4945 25.1786 603.4945 14.2186 641.0455 14.2186 641.0455 25.1786 631.3305 27.0466 631.3305 92.1226 641.0455 93.9916 641.0455 104.8886 603.4945 104.8886 603.4945 93.9916 613.2095 92.1226 613.2095 27.0466"></polygon>
        <polygon id="Fill-73" fill="#009EE2" points="740.6205 14.2182 740.6205 25.1782 730.9065 27.0462 730.9065 104.8892 712.7845 104.8892 676.1675 43.8612 675.7945 43.9232 675.7945 92.1222 685.5085 93.9912 685.5085 104.8892 647.9575 104.8892 647.9575 93.9912 657.6095 92.1222 657.6095 27.0462 647.9575 25.1782 647.9575 14.2182 657.6095 14.2182 675.7945 14.2182 712.4105 75.2462 712.7845 75.1842 712.7845 27.0462 703.0695 25.1782 703.0695 14.2182 730.9065 14.2182"></polygon>
        <path d="M811.2396,58.7441 C811.2396,49.3621 809.2876,41.7441 805.3856,35.8901 C801.4826,30.0361 795.7116,27.1091 788.0736,27.1091 C780.4336,27.1091 774.7366,30.0151 770.9786,35.8271 C767.2206,41.6401 765.3436,49.2781 765.3436,58.7441 L765.3436,60.2391 C765.3436,69.7881 767.2426,77.4781 771.0416,83.3111 C774.8406,89.1441 780.5386,92.0601 788.1356,92.0601 C795.8156,92.0601 801.5876,89.1441 805.4476,83.3111 C809.3086,77.4781 811.2396,69.7881 811.2396,60.2391 L811.2396,58.7441 Z M829.3606,60.2391 C829.3606,73.5241 825.5616,84.5051 817.9656,93.1821 C810.3676,101.8591 800.4246,106.1961 788.1356,106.1961 C775.8876,106.1961 765.9976,101.8591 758.4626,93.1821 C750.9266,84.5051 747.1596,73.5241 747.1596,60.2391 L747.1596,58.8691 C747.1596,45.6661 750.9166,34.7061 758.4306,25.9881 C765.9446,17.2691 775.8256,12.9111 788.0736,12.9111 C800.3616,12.9111 810.3146,17.2691 817.9336,25.9881 C825.5516,34.7061 829.3606,45.6661 829.3606,58.8691 L829.3606,60.2391 Z" id="Fill-75" fill="#009EE2"></path>
        <path d="M905.5219,43.1752 L891.8839,43.1752 L889.5169,30.7212 C887.9389,29.7242 885.6349,28.8532 882.6049,28.1052 C879.5739,27.3582 876.3559,26.9842 872.9529,26.9842 C867.9709,26.9842 864.1199,28.0332 861.4009,30.1292 C858.6809,32.2262 857.3219,34.9352 857.3219,38.2562 C857.3219,41.3282 858.7439,43.8512 861.5869,45.8222 C864.4309,47.7942 869.3409,49.8812 876.3149,52.0812 C886.3199,54.8632 893.9079,58.5372 899.0769,63.1032 C904.2459,67.6712 906.8299,73.6692 906.8299,81.1002 C906.8299,88.8642 903.7559,94.9872 897.6129,99.4712 C891.4679,103.9542 883.3729,106.1962 873.3269,106.1962 C866.1429,106.1962 859.6569,105.0542 853.8659,102.7712 C848.0739,100.4882 843.2479,97.3332 839.3869,93.3052 L839.3869,74.3752 L853.4609,74.3752 L855.3909,87.2652 C857.2169,88.7602 859.6979,89.9952 862.8329,90.9702 C865.9669,91.9462 869.4649,92.4342 873.3269,92.4342 C878.3079,92.4342 882.0959,91.4172 884.6909,89.3832 C887.2859,87.3492 888.5839,84.6292 888.5839,81.2252 C888.5839,77.7382 887.3469,74.9352 884.8779,72.8182 C882.4079,70.7002 878.0799,68.7072 871.8939,66.8402 C861.1409,63.7262 853.0029,60.0312 847.4829,55.7552 C841.9599,51.4792 839.2009,45.6252 839.2009,38.1942 C839.2009,30.8452 842.3139,24.8362 848.5419,20.1652 C854.7689,15.4952 862.5939,13.0972 872.0179,12.9722 C878.9939,12.9722 885.3449,14.0312 891.0749,16.1492 C896.8029,18.2662 901.6189,21.0902 905.5219,24.6182 L905.5219,43.1752 Z" id="Fill-77" fill="#009EE2"></path>
        <path d="M324.559,129.1445 L324.559,152.9545 L329.121,152.9545 C331.596,152.9545 333.536,152.1195 334.939,150.4475 C336.341,148.7775 337.043,146.5935 337.043,143.8985 L337.043,138.1525 C337.043,135.4895 336.341,133.3215 334.939,131.6505 C333.536,129.9805 331.596,129.1445 329.121,129.1445 L324.559,129.1445 Z M329.477,123.8245 C333.685,123.8245 337.153,125.1685 339.88,127.8555 C342.607,130.5435 343.97,133.9915 343.97,138.2005 L343.97,143.8985 C343.97,148.1235 342.607,151.5705 339.88,154.2425 C337.153,156.9145 333.685,158.2505 329.477,158.2505 L313.99,158.2505 L313.99,154.1125 L317.655,153.4035 L317.655,128.6955 L313.99,127.9865 L313.99,123.8245 L317.655,123.8245 L329.477,123.8245 Z" id="Fill-79" fill="#DF225B"></path>
        <polygon id="Fill-81" fill="#DF225B" points="369.5765 143.1181 357.9205 143.1181 357.9205 152.9541 369.0325 152.9541 369.3405 148.8401 374.5895 148.8401 374.5895 158.2501 347.3505 158.2501 347.3505 154.1131 351.0155 153.4031 351.0155 128.6951 347.3505 127.9861 347.3505 123.8251 351.0155 123.8251 374.5425 123.8251 374.5425 133.2591 369.2455 133.2591 368.9375 129.1441 357.9205 129.1441 357.9205 137.7981 369.5765 137.7981"></polygon>
        <polygon id="Fill-83" fill="#DF225B" points="390.1478 158.2504 390.1478 154.1124 393.8118 153.4034 393.8118 128.6954 390.1478 127.9864 390.1478 123.8244 393.8118 123.8244 400.7158 123.8244 404.4048 123.8244 404.4048 127.9864 400.7158 128.6954 400.7158 152.9544 410.4338 152.9544 410.7648 148.6274 416.0378 148.6274 416.0378 158.2504"></polygon>
        <path d="M430.6498,143.8749 L438.5458,143.8749 L434.6698,131.7459 L434.5278,131.7459 L430.6498,143.8749 Z M418.1658,154.1129 L420.6248,153.7579 L431.0988,123.8249 L438.1688,123.8249 L448.5718,153.7579 L451.0308,154.1129 L451.0308,158.2499 L439.3028,158.2499 L439.3028,154.1129 L441.6918,153.6869 L440.1778,148.9579 L429.0178,148.9579 L427.5048,153.6869 L429.8928,154.1129 L429.8928,158.2499 L418.1658,158.2499 L418.1658,154.1129 Z" id="Fill-85" fill="#DF225B"></path>
        <polygon id="Fill-87" fill="#DF225B" points="496.683 136.5317 488.342 138.0347 507.729 203.6337 509.081 209.6457 509.533 209.6457 510.81 203.7837 530.272 138.0347 522.006 136.5317 522.006 123.3067 561.982 123.3067 561.982 136.5317 552.815 137.7337 520.579 232.7137 498.036 232.7137 465.724 137.7337 456.707 136.5317 456.707 123.3067 496.683 123.3067"></polygon>
        <polygon id="Fill-89" fill="#DF225B" points="568.5951 136.5317 568.5951 123.3067 613.9061 123.3067 613.9061 136.5317 602.1831 138.7857 602.1831 217.3097 613.9061 219.5637 613.9061 232.7137 568.5951 232.7137 568.5951 219.5637 580.3171 217.3097 580.3171 138.7857"></polygon>
        <polygon id="Fill-91" fill="#DF225B" points="622.2465 232.7138 622.2465 219.5638 633.8925 217.3098 633.8925 138.7858 622.2465 136.5318 622.2465 123.3068 633.8925 123.3068 655.8355 123.3068 667.5575 123.3068 667.5575 136.5318 655.8355 138.7858 655.8355 215.8818 686.7185 215.8818 687.7695 202.1308 704.5275 202.1308 704.5275 232.7138"></polygon>
        <polygon id="Fill-93" fill="#DF225B" points="712.4174 232.7138 712.4174 219.5638 724.0634 217.3098 724.0634 138.7858 712.4174 136.5318 712.4174 123.3068 724.0634 123.3068 746.0064 123.3068 757.7284 123.3068 757.7284 136.5318 746.0064 138.7858 746.0064 215.8818 776.8894 215.8818 777.9404 202.1308 794.6984 202.1308 794.6984 232.7138"></polygon>
        <path d="M841.1361,187.0273 L866.2341,187.0273 L853.9101,148.4793 L853.4591,148.4793 L841.1361,187.0273 Z M801.4611,219.5643 L809.2761,218.4373 L842.5641,123.3063 L865.0321,123.3063 L898.0941,218.4373 L905.9081,219.5643 L905.9081,232.7143 L868.6381,232.7143 L868.6381,219.5643 L876.2281,218.2113 L871.4181,203.1833 L835.9511,203.1833 L831.1421,218.2113 L838.7321,219.5643 L838.7321,232.7143 L801.4611,232.7143 L801.4611,219.5643 Z" id="Fill-95" fill="#DF225B"></path>
        <g id="Group-99" transform="translate(8.000000, 334.023000)">
            <mask id="mask-2" fill="white">
                <use xlink:href="#path-1"></use>
            </mask>
            <g id="Clip-98"></g>
            <path d="M12.3695,11.6859 C13.4925,10.3679 14.0605,8.6179 13.9235,6.8909 C13.7855,5.1639 12.9485,3.5249 11.6305,2.4009 C10.3105,1.2769 8.5605,0.7089 6.8345,0.8469 C5.0995,0.9849 3.4695,1.8219 2.3455,3.1399 C1.2145,4.4589 0.6525,6.2089 0.7905,7.9359 C0.9285,9.6629 1.7595,11.3019 3.0845,12.4249 C4.4025,13.5489 6.1455,14.1179 7.8795,13.9799 C9.6055,13.8419 11.2445,13.0049 12.3695,11.6859" id="Fill-97" fill="#009EE2" mask="url(#mask-2)"></path>
        </g>
        <path d="M67.059,223.2543 L80.974,206.9313 C84.385,210.6893 88.071,214.2713 92.034,217.6493 C95.955,220.9933 100.082,224.0673 104.376,226.8613 L90.451,243.1963 L67.059,223.2543 Z M91.929,261.7703 L93.543,263.1463 C96.312,265.5053 100.47,265.1753 102.83,262.4063 C105.19,259.6383 104.859,255.4803 102.091,253.1193 L100.477,251.7433 L116.007,233.5263 L72.545,196.5093 L57.033,214.7063 L54.504,212.5503 C51.736,210.1903 47.578,210.5213 45.217,213.2893 C44.038,214.6733 43.53,216.4053 43.663,218.0863 C43.797,219.7663 44.573,221.3963 45.956,222.5753 L48.485,224.7313 L1.575,279.7563 C0.395,281.1413 -0.113,282.8723 0.021,284.5523 C0.155,286.2333 0.93,287.8633 2.314,289.0433 C5.082,291.4033 9.241,291.0723 11.601,288.3033 L58.511,233.2783 L81.904,253.2203 L24.97,320.0023 C23.79,321.3863 23.283,323.1173 23.416,324.7983 C23.55,326.4783 24.326,328.1083 25.709,329.2883 C28.478,331.6483 32.636,331.3173 34.996,328.5483 L91.929,261.7703 Z" id="Fill-100" fill="#009EE2"></path>
        <path d="M172.2435,247.3735 C144.9285,247.3735 118.5425,238.3735 96.6245,221.3455 C70.5385,201.0795 53.9065,171.8695 49.7915,139.0935 C41.2975,71.4355 89.4305,9.4795 157.0895,0.9855 C183.5645,-2.3415 209.8225,2.7955 233.0185,15.8365 C236.3055,17.6835 237.4715,21.8445 235.6245,25.1295 C233.7775,28.4155 229.6175,29.5815 226.3305,27.7345 C205.7005,16.1365 182.3455,11.5725 158.7895,14.5285 C98.5975,22.0855 55.7775,77.2025 63.3345,137.3935 C66.9955,166.5505 81.7925,192.5375 104.9985,210.5665 C128.2045,228.5955 157.0415,236.5095 186.1995,232.8475 C199.5415,231.1725 212.2715,227.1595 224.0365,220.9195 C227.3655,219.1525 231.4965,220.4215 233.2635,223.7515 C235.0295,227.0815 233.7615,231.2125 230.4315,232.9785 C217.1995,239.9965 202.8895,244.5085 187.8995,246.3905 C182.6655,247.0475 177.4355,247.3735 172.2435,247.3735" id="Fill-102" fill="#009EE2"></path>
        <path d="M172.4222,221.9228 C122.6372,221.9228 79.3372,184.7658 72.9782,134.1128 C66.0882,79.2388 105.1262,28.9908 160.0002,22.1018 C176.4252,20.0378 193.2152,22.0828 208.5602,28.0098 C212.0762,29.3678 213.8252,33.3188 212.4672,36.8348 C211.1102,40.3518 207.1582,42.1008 203.6422,40.7418 C190.3952,35.6258 175.8922,33.8638 161.7002,35.6448 C114.2942,41.5968 80.5682,85.0058 86.5212,132.4128 C92.4732,179.8188 135.8802,213.5388 183.2882,207.5918 C189.5202,206.8098 195.6532,205.3598 201.5192,203.2818 C205.0712,202.0248 208.9722,203.8848 210.2302,207.4368 C211.4882,210.9898 209.6282,214.8898 206.0752,216.1488 C199.2862,218.5528 192.1932,220.2308 184.9882,221.1348 C180.7692,221.6648 176.5702,221.9228 172.4222,221.9228" id="Fill-104" fill="#009EE2"></path>
    </g>
</svg>