<svg id="Layer_1" data-name="Layer 1" xmlns="http://www.w3.org/2000/svg" xmlns:xlink="http://www.w3.org/1999/xlink" viewBox="0 0 400 81.13"><defs><style>.cls-1{fill:#00add8;}.cls-2{fill:#ffa400;}.cls-3{fill:url(#linear-gradient);}.cls-4{fill:url(#linear-gradient-2);}.cls-5{fill:#ff5f00;}.cls-6{fill:#d50054;}.cls-7{fill:url(#linear-gradient-3);}.cls-8{fill:#eb0029;}.cls-9{fill:#6cc04a;}.cls-10{fill:url(#linear-gradient-4);}.cls-11{fill:#00ad68;}.cls-12{fill:url(#linear-gradient-5);}.cls-13{fill:#00a7ce;}.cls-14{fill:url(#linear-gradient-6);}.cls-15{fill:#0098ce;}</style><linearGradient id="linear-gradient" x1="340.48" y1="31.09" x2="350.77" y2="20.8" gradientUnits="userSpaceOnUse"><stop offset="0" stop-color="#ffa400"/><stop offset="1" stop-color="#ff5f00"/></linearGradient><linearGradient id="linear-gradient-2" x1="369.79" y1="19.78" x2="380.45" y2="30.85" gradientUnits="userSpaceOnUse"><stop offset="0" stop-color="#ff5f00"/><stop offset="1" stop-color="#eb0029"/></linearGradient><linearGradient id="linear-gradient-3" x1="380.62" y1="48.04" x2="368.41" y2="60.25" gradientUnits="userSpaceOnUse"><stop offset="0" stop-color="#eb0029"/><stop offset="1" stop-color="#d50054"/></linearGradient><linearGradient id="linear-gradient-4" x1="340.52" y1="60.01" x2="351.09" y2="49.43" gradientUnits="userSpaceOnUse"><stop offset="0" stop-color="#00ad68"/><stop offset="1" stop-color="#6cc04a"/></linearGradient><linearGradient id="linear-gradient-5" x1="312.25" y1="49.32" x2="321.85" y2="59.57" gradientUnits="userSpaceOnUse"><stop offset="0" stop-color="#00a7ce"/><stop offset="1" stop-color="#00ad68"/></linearGradient><linearGradient id="linear-gradient-6" x1="313.04" y1="30.4" x2="321.74" y2="21.62" gradientUnits="userSpaceOnUse"><stop offset="0" stop-color="#00a7ce"/><stop offset="1" stop-color="#00add8"/></linearGradient></defs><title>Artboard 1</title><g id="_Group_" data-name="&lt;Group&gt;"><g id="_Group_2" data-name="&lt;Group&gt;"><g id="_Group_3" data-name="&lt;Group&gt;"><path id="_Path_" data-name="&lt;Path&gt;" class="cls-1" d="M331.73.84a10.87,10.87,0,0,0-10.87,10.87c0,.2,0,.39,0,.59a25.85,25.85,0,0,1-1,7.5l3.78,3.78a25.83,25.83,0,0,1,7.48-1c.2,0,.4,0,.6,0a10.87,10.87,0,0,0,0-21.75Z"/><path id="_Path_2" data-name="&lt;Path&gt;" class="cls-2" d="M332.63,28.68l-.59,0a10.87,10.87,0,1,0,10.87,10.87c0-.2,0-.39,0-.59a29.44,29.44,0,0,1,.49-5.28l-5.46-5.46A29.44,29.44,0,0,1,332.63,28.68Z"/><path id="_Path_3" data-name="&lt;Path&gt;" class="cls-3" d="M348.74,19a12.85,12.85,0,0,1-3.56,5.84,14.56,14.56,0,0,1-7.27,3.34l5.46,5.46a14.56,14.56,0,0,1,3.34-7.27,12.85,12.85,0,0,1,5.84-3.56Z"/><path id="_Path_4" data-name="&lt;Path&gt;" class="cls-4" d="M375.79,24.68A13.71,13.71,0,0,1,372,17.47l-4.94,4.94a13.72,13.72,0,0,1,7.21,3.77,14.35,14.35,0,0,1,3.5,7.4l5.41-5.41A14.34,14.34,0,0,1,375.79,24.68Z"/><path id="_Path_5" data-name="&lt;Path&gt;" class="cls-5" d="M371.41,11.85c0-.29,0-.58,0-.87a10.87,10.87,0,0,0-21.74,0c0,.29,0,.57,0,.86a25.51,25.51,0,0,1-1,7.17l3.81,3.81a25.51,25.51,0,0,1,7.17-1c.28,0,.57,0,.86,0s.59,0,.87,0a28.21,28.21,0,0,1,5.62.6L372,17.47A28.21,28.21,0,0,1,371.41,11.85Z"/><path id="_Path_6" data-name="&lt;Path&gt;" class="cls-6" d="M365,57a32.14,32.14,0,0,1-3.8.25c-.2,0-.4,0-.6,0a10.87,10.87,0,1,0,10.87,10.87c0-.2,0-.39,0-.59a32.2,32.2,0,0,1,.25-3.81Z"/><path id="_Path_7" data-name="&lt;Path&gt;" class="cls-7" d="M377.91,44.92a14.2,14.2,0,0,1-4.18,8.48A15.48,15.48,0,0,1,365,57l6.69,6.69a15.48,15.48,0,0,1,3.58-8.74,14.19,14.19,0,0,1,8.48-4.18Z"/><path id="_Path_8" data-name="&lt;Path&gt;" class="cls-8" d="M389.13,28.65l-.57,0a29.46,29.46,0,0,1-5.36-.5l-5.41,5.41a29.47,29.47,0,0,1,.5,5.36c0,.19,0,.38,0,.58s0,.58,0,.87a30,30,0,0,1-.39,4.52l5.83,5.83a30,30,0,0,1,4.54-.39c.28,0,.57,0,.86,0a10.87,10.87,0,0,0,0-21.75Z"/><path id="_Path_9" data-name="&lt;Path&gt;" class="cls-9" d="M360.27,29.38A10.87,10.87,0,0,0,349.4,40.25c0,.2,0,.39,0,.59a27.72,27.72,0,0,1-.71,6.3l4.67,4.67a27.73,27.73,0,0,1,6.3-.71l.59,0a10.87,10.87,0,0,0,0-21.74Z"/><path id="_Path_10" data-name="&lt;Path&gt;" class="cls-10" d="M348.72,47.14a13.87,13.87,0,0,1-3.21,6.36,13.89,13.89,0,0,1-7.71,4l5.27,5.27A12.76,12.76,0,0,1,353.38,51.8Z"/><path id="_Path_11" data-name="&lt;Path&gt;" class="cls-11" d="M343.07,62.73l-5.27-5.27a28.89,28.89,0,0,1-5.21.51c-.28,0-.57,0-.86,0s-.58,0-.87,0a26.54,26.54,0,0,1-6.64-.85L320,61.28a26.54,26.54,0,0,1,.85,6.64c0,.29,0,.58,0,.87a10.87,10.87,0,1,0,21.75,0c0-.29,0-.57,0-.86A28.91,28.91,0,0,1,343.07,62.73Z"/><path id="_Path_12" data-name="&lt;Path&gt;" class="cls-12" d="M318.22,53.79a13.82,13.82,0,0,1-3.58-7l-4.92,4.92a13.81,13.81,0,0,1,7,3.58,13.3,13.3,0,0,1,3.33,6l4.18-4.18A13.3,13.3,0,0,1,318.22,53.79Z"/><path id="_Path_13" data-name="&lt;Path&gt;" class="cls-13" d="M304,29.42c-.28,0-.57,0-.86,0a10.87,10.87,0,0,0,0,21.75l.57,0a28.68,28.68,0,0,1,6,.61l4.92-4.92a28.69,28.69,0,0,1-.61-6c0-.19,0-.38,0-.57s0-.58,0-.87a25.75,25.75,0,0,1,1-7l-3.89-3.89A25.76,25.76,0,0,1,304,29.42Z"/><path id="_Path_14" data-name="&lt;Path&gt;" class="cls-14" d="M319.86,19.8A13.19,13.19,0,0,1,317,25a12.94,12.94,0,0,1-5.87,3.49L315,32.34a13,13,0,0,1,3.49-5.87,13.19,13.19,0,0,1,5.16-2.89Z"/></g></g><g id="_Group_4" data-name="&lt;Group&gt;"><path id="_Compound_Path_" data-name="&lt;Compound Path&gt;" class="cls-15" d="M24.79,1.31Q27.08,1,29.15.82T33.74.66q2.18,0,4.26.16t4.59.49l24.57,78.5a60.32,60.32,0,0,1-8.74.66,49.06,49.06,0,0,1-8.08-.66L46,64.09H20L15.5,79.82A45.86,45.86,0,0,1,8,80.47a48.39,48.39,0,0,1-8-.66ZM42.26,50.88l-9.06-33-9.5,33Z"/><path id="_Compound_Path_2" data-name="&lt;Compound Path&gt;" class="cls-15" d="M76,1.31A48.44,48.44,0,0,1,83.74.66a51.15,51.15,0,0,1,8,.66V66.06H118.9a32.71,32.71,0,0,1,.44,3.55q.11,1.69.11,3.22,0,1.75-.11,3.44a32.6,32.6,0,0,1-.44,3.55H76Z"/><path id="_Compound_Path_3" data-name="&lt;Compound Path&gt;" class="cls-15" d="M132,14.85H112.46A35,35,0,0,1,111.81,8a33.89,33.89,0,0,1,.66-6.66H167.6A33.89,33.89,0,0,1,168.26,8a35,35,0,0,1-.66,6.88H148.06v65q-2,.22-3.93.38t-3.82.16q-1.86,0-4-.11T132,79.82Z"/><path id="_Compound_Path_4" data-name="&lt;Compound Path&gt;" class="cls-15" d="M178.63,1.31h44.55A33.89,33.89,0,0,1,223.83,8a35,35,0,0,1-.66,6.88H194.57v17h22.71a36.72,36.72,0,0,1,.65,6.77,36.1,36.1,0,0,1-.65,6.88H194.57V66.28h29.37a33.89,33.89,0,0,1,.65,6.66,35,35,0,0,1-.65,6.88H178.63Z"/><path id="_Compound_Path_5" data-name="&lt;Compound Path&gt;" class="cls-15" d="M285.74,65a43.73,43.73,0,0,1,2.35,6.28,45.06,45.06,0,0,1,1.37,6.5,51.8,51.8,0,0,1-10.21,2.73,68.41,68.41,0,0,1-9.77.66,40.93,40.93,0,0,1-16.27-3,32.39,32.39,0,0,1-11.74-8.41,35.88,35.88,0,0,1-7.15-12.83,52.21,52.21,0,0,1-2.4-16.16,50.61,50.61,0,0,1,2.51-16.21,37.79,37.79,0,0,1,7.26-12.94,32.78,32.78,0,0,1,11.68-8.52A38.76,38.76,0,0,1,269.14,0a66.13,66.13,0,0,1,9.66.66,42.3,42.3,0,0,1,9.55,2.73A24.14,24.14,0,0,1,287,9.77q-1.09,3.11-2.4,6.28a48.7,48.7,0,0,0-6.77-1.86,39,39,0,0,0-7-.55q-10.48,0-16.1,6.82t-5.62,20.25q0,26.64,22.6,26.64a40.66,40.66,0,0,0,7.1-.55A47,47,0,0,0,285.74,65Z"/></g></g></svg>