<svg id="Layer_1" data-name="Layer 1" xmlns="http://www.w3.org/2000/svg" xmlns:xlink="http://www.w3.org/1999/xlink" viewBox="0 0 397.5 121.84"><defs><style>.cls-1{fill:none;}.cls-2{clip-path:url(#clip-path);}.cls-3{opacity:0.13;}.cls-4{clip-path:url(#clip-path-3);}.cls-5{clip-path:url(#clip-path-4);}.cls-6{fill:#de205b;}.cls-7{fill:#009ee2;}</style><clipPath id="clip-path"><rect class="cls-1" x="-67.33" y="-97.63" width="534.16" height="317.1"/></clipPath><clipPath id="clip-path-3"><rect class="cls-1" x="-1269.96" y="-1092.81" width="2095.05" height="1443.7"/></clipPath><clipPath id="clip-path-4"><rect class="cls-1" x="-979.17" y="-515.92" width="1446" height="302"/></clipPath></defs><title>Artboard 1</title><g class="cls-2"><g class="cls-2"><g class="cls-3"><g class="cls-4"><g class="cls-5"><rect class="cls-6" x="-1073.08" y="-1104.99" width="1255.51" height="1605.06" transform="translate(-128.64 -737.78) rotate(-88.15)"/></g></g></g></g></g><path class="cls-7" d="M136.82,25.67h-6.73l-.93-6a9.48,9.48,0,0,0-3.37-2.11,13.42,13.42,0,0,0-4.79-.77A10.63,10.63,0,0,0,111.93,21q-3.18,4.28-3.18,11.17V33.8q0,6.89,3.16,11.2a10.43,10.43,0,0,0,8.93,4.31,14.68,14.68,0,0,0,4.88-.78,8.14,8.14,0,0,0,3.43-2.11l.93-6h6.73v8.93a19.44,19.44,0,0,1-7,5,23.14,23.14,0,0,1-9.48,1.88A19.33,19.33,0,0,1,105.5,50q-5.8-6.3-5.8-16.16V32.28q0-9.83,5.77-16.16a19.27,19.27,0,0,1,14.92-6.33,22.71,22.71,0,0,1,9.46,1.91,20.31,20.31,0,0,1,7,5Z"/><path class="cls-7" d="M140.51,50.18l3.23-.47,13.74-39.27h9.27l13.65,39.27,3.22.47V55.6H168.25V50.18l3.13-.56-2-6.2H154.75l-2,6.2,3.13.56V55.6H140.51Zm16.38-13.43h10.36l-5.09-15.91H162Z"/><polygon class="cls-7" points="230.19 22.2 230 22.17 217.91 55.6 211.83 55.6 199.79 22.29 199.6 22.32 200.47 42.14 200.47 49.25 205.31 50.18 205.31 55.6 186.61 55.6 186.61 50.18 191.42 49.25 191.42 16.83 186.61 15.9 186.61 10.44 191.42 10.44 203.23 10.44 214.74 43.72 214.93 43.72 226.53 10.44 243.22 10.44 243.22 15.9 238.38 16.83 238.38 49.25 243.22 50.18 243.22 55.6 224.51 55.6 224.51 50.18 229.32 49.25 229.32 42.14 230.19 22.2"/><polygon class="cls-7" points="246.41 15.9 246.41 10.44 265.12 10.44 265.12 15.9 260.28 16.83 260.28 49.25 265.12 50.18 265.12 55.6 246.41 55.6 246.41 50.18 251.25 49.25 251.25 16.83 246.41 15.9"/><polygon class="cls-7" points="314.72 10.44 314.72 15.9 309.88 16.83 309.88 55.6 300.85 55.6 282.61 25.21 282.43 25.24 282.43 49.25 287.26 50.18 287.26 55.6 268.56 55.6 268.56 50.18 273.37 49.25 273.37 16.83 268.56 15.9 268.56 10.44 273.37 10.44 282.43 10.44 300.66 40.84 300.85 40.81 300.85 16.83 296.01 15.9 296.01 10.44 309.88 10.44 314.72 10.44"/><path class="cls-7" d="M358.92,33.36q0,9.93-5.68,16.41a20.18,20.18,0,0,1-29.64,0Q318,43.29,318,33.36v-.68q0-9.86,5.61-16.38a18.55,18.55,0,0,1,14.77-6.51,18.81,18.81,0,0,1,14.87,6.51q5.69,6.51,5.69,16.38Zm-9-.74q0-7-2.92-11.38a9.69,9.69,0,0,0-8.62-4.37q-5.71,0-8.52,4.34T327,32.62v.74q0,7.14,2.84,11.49a9.48,9.48,0,0,0,8.51,4.36A9.65,9.65,0,0,0,347,44.86q2.88-4.36,2.89-11.49Z"/><path class="cls-7" d="M396.85,24.86h-6.79l-1.18-6.2a12,12,0,0,0-3.44-1.3,20,20,0,0,0-4.81-.56,9.25,9.25,0,0,0-5.75,1.57,4.89,4.89,0,0,0-2,4A4.43,4.43,0,0,0,375,26.18a29.36,29.36,0,0,0,7.34,3.12q7.48,2.08,11.34,5.49a11.39,11.39,0,0,1,3.86,9,10.72,10.72,0,0,1-4.59,9.15q-4.59,3.35-12.1,3.35a26.23,26.23,0,0,1-9.69-1.71,20,20,0,0,1-7.21-4.72V40.4h7l1,6.42a11,11,0,0,0,3.71,1.85,17.55,17.55,0,0,0,5.23.73,9,9,0,0,0,5.66-1.52,4.9,4.9,0,0,0,1.94-4.06,5.25,5.25,0,0,0-1.84-4.19,18.69,18.69,0,0,0-6.47-3q-8-2.33-12.16-5.52a10.46,10.46,0,0,1-4.13-8.75,10.75,10.75,0,0,1,4.65-9,19.39,19.39,0,0,1,11.69-3.58,27.2,27.2,0,0,1,9.49,1.58,21.92,21.92,0,0,1,7.2,4.22Z"/><path class="cls-6" d="M111.75,62.28a8.75,8.75,0,0,1,6.41,2.48,8.56,8.56,0,0,1,2.52,6.37v3.51A8.53,8.53,0,0,1,118.16,81a8.78,8.78,0,0,1-6.41,2.47h-9.54V80.94l2.26-.44V65.28l-2.26-.44V62.28h9.54Zm-3,3.28V80.22h2.81a4.43,4.43,0,0,0,3.58-1.54,6.07,6.07,0,0,0,1.29-4V71.11a6,6,0,0,0-1.29-4,4.43,4.43,0,0,0-3.58-1.54Z"/><polygon class="cls-6" points="136.44 74.17 129.26 74.17 129.26 80.22 136.11 80.22 136.3 77.69 139.53 77.69 139.53 83.48 122.76 83.48 122.76 80.94 125.01 80.5 125.01 65.28 122.76 64.85 122.76 62.28 125.01 62.28 139.5 62.28 139.5 68.09 136.24 68.09 136.05 65.56 129.26 65.56 129.26 70.89 136.44 70.89 136.44 74.17"/><polygon class="cls-6" points="149.11 83.49 149.11 80.94 151.37 80.5 151.37 65.28 149.11 64.85 149.11 62.28 151.37 62.28 155.62 62.28 157.89 62.28 157.89 64.85 155.62 65.28 155.62 80.22 161.61 80.22 161.81 77.56 165.06 77.56 165.06 83.49 149.11 83.49"/><path class="cls-6" d="M166.37,80.94l1.51-.22,6.45-18.44h4.36l6.41,18.44,1.51.22v2.55h-7.22V80.94l1.47-.26-.93-2.91h-6.87l-.93,2.91,1.47.26v2.55h-7.22Zm7.69-6.31h4.86l-2.39-7.47h-.09Z"/><polygon class="cls-6" points="210.84 68.29 207.05 68.97 215.87 98.82 216.48 101.56 216.69 101.56 217.27 98.89 226.12 68.97 222.36 68.29 222.36 62.27 240.55 62.27 240.55 68.29 236.38 68.84 221.71 112.05 211.46 112.05 196.75 68.84 192.65 68.29 192.65 62.27 210.84 62.27 210.84 68.29"/><polygon class="cls-6" points="243.56 68.29 243.56 62.27 264.18 62.27 264.18 68.29 258.84 69.31 258.84 105.04 264.18 106.07 264.18 112.05 243.56 112.05 243.56 106.07 248.9 105.04 248.9 69.31 243.56 68.29"/><polygon class="cls-6" points="267.97 112.05 267.97 106.07 273.27 105.04 273.27 69.31 267.97 68.29 267.97 62.27 273.27 62.27 283.26 62.27 288.59 62.27 288.59 68.29 283.26 69.31 283.26 104.39 297.31 104.39 297.79 98.14 305.41 98.14 305.41 112.05 267.97 112.05"/><polygon class="cls-6" points="309 112.05 309 106.07 314.3 105.04 314.3 69.31 309 68.29 309 62.27 314.3 62.27 324.29 62.27 329.62 62.27 329.62 68.29 324.29 69.31 324.29 104.39 338.34 104.39 338.82 98.14 346.44 98.14 346.44 112.05 309 112.05"/><path class="cls-6" d="M349.52,106.07l3.56-.51,15.15-43.28h10.22l15,43.28,3.56.51v6h-17v-6l3.45-.62-2.19-6.84H365.21L363,105.45l3.45.62v6h-17Zm18.05-14.81H379l-5.61-17.54h-.21Z"/><path class="cls-6" d="M85.69,113.34a12.68,12.68,0,0,1-23.39,1.33L46.49,81.86a12.71,12.71,0,0,1,2-14,27.16,27.16,0,1,1,9-4.22,12.71,12.71,0,0,1,11.88,7.17l15.82,32.81a12.59,12.59,0,0,1,.55,9.69M50.64,60.93a21.35,21.35,0,1,0-16.35.72,21.21,21.21,0,0,0,16.35-.72h0M79.9,106.18,64.08,73.37a6.85,6.85,0,0,0-12.34,6l15.82,32.81a6.85,6.85,0,0,0,12.34-6M35.12,27.73a15.31,15.31,0,0,0-7.4,20.33A2.91,2.91,0,0,0,33,45.59,9.47,9.47,0,0,1,37.59,33a2.91,2.91,0,0,0-2.46-5.28"/><path class="cls-7" d="M53.91,112.31c-1.92,4-4.55,9.53-12.33,9.53s-10.36-5.42-12.44-9.78c-.28-.59-5.65-11.18-5.65-11.18C12.13,78.54,0,53.69,0,41.58a41.58,41.58,0,1,1,83.17,0c0,4.68-1.78,11.48-5.44,20.79a2.91,2.91,0,1,1-5.42-2.13c3.34-8.5,5-14.78,5-18.66a35.76,35.76,0,1,0-71.52,0c0,11.72,15.44,42.07,22.86,56.65,0,0,5.41,10.69,5.71,11.32C36.54,114,37.65,116,41.58,116c3.75,0,4.91-1.7,7.07-6.22a2.91,2.91,0,0,1,5.26,2.51"/></svg>