<?xml version="1.0" encoding="UTF-8"?>
<svg width="244px" height="86px" viewBox="0 0 244 86" version="1.1" xmlns="http://www.w3.org/2000/svg" xmlns:xlink="http://www.w3.org/1999/xlink">
    <!-- Generator: Sketch 58 (84663) - https://sketch.com -->
    <title>Group</title>
    <desc>Created with Sketch.</desc>
    <g id="Home-Covid" stroke="none" stroke-width="1" fill="none" fill-rule="evenodd">
        <g id="Movil" transform="translate(-65.000000, -39.000000)" fill="#DE205B">
            <g id="Group" transform="translate(65.000000, 39.000000)">
                <g id="caminos_logo-49648333dfc43c708bf3e55bf0c2499681bf19634409be1acdaa588ae7bee61e-(1)-copy" fill-rule="nonzero">
                    <path d="M68.669388,12.2298503 L65.3441949,12.2298503 L64.8846958,9.40058694 C64.4096075,8.96033201 63.8421051,8.62122199 63.2196288,8.40562932 C62.4604038,8.14838364 61.658412,8.02534388 60.852961,8.04254053 C59.1059506,7.95057186 57.4256657,8.69492332 56.3716087,10.0277403 C55.3241482,11.3732122 54.8004179,13.1289273 54.8004179,15.2948856 L54.8004179,16.0635021 C54.8004179,18.2294604 55.3208543,19.9898909 56.361727,21.3447937 C57.3794185,22.688798 59.0382313,23.4528863 60.7739073,23.3771479 C61.5936227,23.3854659 62.4088843,23.2611026 63.1850429,23.0093437 C63.8283469,22.8183908 64.4110833,22.4762689 64.8797549,22.0143861 L65.3392541,19.1851227 L68.6644471,19.1851227 L68.6644471,23.3960097 C67.7105297,24.4185477 66.5287337,25.2241762 65.2058511,25.7537291 C63.7273255,26.3605766 62.1312092,26.6626652 60.5219239,26.6402316 C57.7482947,26.7234207 55.0738968,25.6511776 53.1946412,23.7025132 C51.2841786,21.7220288 50.3289474,19.1819791 50.3289474,16.0823639 L50.3289474,15.3467554 C50.3289474,12.2565711 51.2792378,9.71652135 53.1798187,7.72660612 C55.0578853,5.74586806 57.7540524,4.65417129 60.551569,4.74173328 C62.1592019,4.71888775 63.7532049,5.02603859 65.2256145,5.64238211 C66.5416478,6.18359052 67.720962,6.98752717 68.6842105,8.00010158 L68.669388,12.2298503 Z" id="Path"></path>
                    <path d="M70.4605263,23.4943592 L72.1019668,23.2725164 L79.0844413,4.73684211 L83.7953247,4.73684211 L90.7320624,23.2725164 L92.3684211,23.4943592 L92.3684211,26.0526316 L84.5576036,26.0526316 L84.5576036,23.4943592 L86.1482255,23.2300359 L85.1318536,20.3035989 L77.6970937,20.3035989 L76.6807219,23.2300359 L78.2713438,23.4943592 L78.2713438,26.0526316 L70.4605263,26.0526316 L70.4605263,23.4943592 Z M78.7846116,17.1553191 L84.0494176,17.1553191 L81.4627513,9.64570416 L81.3814416,9.64570416 L78.7846116,17.1553191 Z" id="Shape"></path>
                    <polygon id="Path" points="115.431972 10.2876323 115.336583 10.2734721 109.266798 26.0526316 106.214334 26.0526316 100.169651 10.3301128 100.074262 10.344273 100.511045 19.6994313 100.511045 23.0553937 102.940967 23.4943592 102.940967 26.0526316 93.5526316 26.0526316 93.5526316 23.4943592 95.9674923 23.0553937 95.9674923 7.75296023 93.5526316 7.31399469 93.5526316 4.73684211 95.9674923 4.73684211 101.896703 4.73684211 107.675299 20.4452007 107.770689 20.4452007 113.594469 4.73684211 121.973684 4.73684211 121.973684 7.31399469 119.543762 7.75296023 119.543762 23.0553937 121.973684 23.4943592 121.973684 26.0526316 112.580328 26.0526316 112.580328 23.4943592 114.995189 23.0553937 114.995189 19.6994313"></polygon>
                    <polygon id="Path" points="123.75 7.31399469 123.75 4.73684211 133.223684 4.73684211 133.223684 7.31399469 130.772982 7.75296023 130.772982 23.0553937 133.223684 23.4943592 133.223684 26.0526316 123.75 26.0526316 123.75 23.4943592 126.200702 23.0553937 126.200702 7.75296023"></polygon>
                    <polygon id="Path" points="157.5 4.73684211 157.5 7.31399469 155.078731 7.75296023 155.078731 26.0526316 150.561363 26.0526316 141.436579 11.7083702 141.346532 11.7225304 141.346532 23.0553937 143.762799 23.4943592 143.762799 26.0526316 134.407895 26.0526316 134.407895 23.4943592 136.814156 23.0553937 136.814156 7.75296023 134.407895 7.31399469 134.407895 4.73684211 136.814156 4.73684211 141.346532 4.73684211 150.466313 19.0858235 150.561363 19.0716633 150.561363 7.75296023 148.140093 7.31399469 148.140093 4.73684211 155.078731 4.73684211"></polygon>
                    <path d="M179.989876,15.852968 C179.989876,18.9735997 179.031477,21.5521276 177.11468,23.5885519 C175.181098,25.53687 172.461684,26.6447368 169.612848,26.6447368 C166.764012,26.6447368 164.044599,25.53687 162.111016,23.5885519 C160.221216,21.5521276 159.276316,18.9735997 159.276316,15.852968 L159.276316,15.5324198 C159.276316,12.4337865 160.222903,9.85997252 162.116078,7.81097773 C163.974687,5.77902316 166.728098,4.64887103 169.5926,4.74219949 C172.470891,4.6524138 175.238165,5.78061778 177.119742,7.81097773 C179.039914,9.85682989 180,12.4306439 180,15.5324198 L179.989876,15.852968 Z M175.434108,15.5041361 C175.434108,13.304295 174.94141,11.5161386 173.956014,10.1396666 C172.999281,8.77835219 171.337227,7.99368638 169.5926,8.0796726 C167.665679,8.0796726 166.228081,8.76162332 165.279806,10.1255248 C164.331531,11.4894262 163.848957,13.2822966 163.832084,15.5041361 L163.832084,15.852968 C163.832084,18.0968059 164.311284,19.9022468 165.269682,21.2692909 C166.202242,22.6279687 167.848482,23.4134135 169.577414,23.324571 C171.326206,23.421698 172.996938,22.6392682 173.956014,21.2740048 C174.927911,19.9038181 175.415547,18.0983772 175.418922,15.857682 L175.434108,15.5041361 Z" id="Shape"></path>
                    <path d="M199.183084,11.8413883 L195.720015,11.8413883 L195.118185,8.92146334 C194.570896,8.63535626 193.97912,8.42885118 193.363699,8.309221 C192.560546,8.1298824 191.736769,8.0413217 190.910479,8.04548584 C189.871357,7.98640649 188.840254,8.246376 187.977836,8.7848862 C187.32856,9.22406267 186.948708,9.92557123 186.957786,10.6687088 C186.952439,11.4005391 187.362749,12.0814487 188.039039,12.4630498 C189.208711,13.1077983 190.46819,13.6021523 191.782622,13.9324314 C194.325946,14.5854899 196.253841,15.4473387 197.566305,16.5179778 C198.880375,17.5849455 199.603591,19.1420295 199.535001,20.7565786 C199.595765,22.4664736 198.714619,24.0884504 197.193987,25.0658228 C195.63331,26.1176237 193.57621,26.6435242 191.022685,26.6435242 C189.335038,26.6653609 187.658158,26.3921091 186.080543,25.83819 C184.694416,25.3527681 183.43953,24.5941911 182.403264,23.6152794 L182.403264,19.160039 L185.973438,19.160039 L186.483463,22.1835742 C187.04869,22.582114 187.690823,22.8777866 188.375656,23.0548422 C189.240932,23.2930146 190.140253,23.4089256 191.043086,23.3986398 C192.064875,23.4641023 193.081021,23.2121189 193.929827,22.6827872 C194.575803,22.2312114 194.944617,21.5184883 194.919275,20.7707073 C194.94971,20.0150336 194.603977,19.2880481 193.98083,18.7974032 C192.989281,18.1352338 191.868935,17.655547 190.680968,17.3845362 C187.960835,16.6529851 185.893534,15.7864268 184.479065,14.7848611 C183.089762,13.8116855 182.30323,12.272955 182.372662,10.6639992 C182.347532,8.97417945 183.237168,7.38420399 184.744278,6.42539843 C186.482776,5.2844014 188.574174,4.69298455 190.706469,4.73937723 C192.354914,4.71988163 193.993925,4.97185892 195.546606,5.48348715 C196.897205,5.9226989 198.143855,6.59740265 199.218786,7.47091996 L199.183084,11.8413883 Z" id="Path"></path>
                    <path d="M55.8129221,29.607732 C57.0361403,29.5686919 58.2234899,29.9940466 59.0998072,30.7852217 C59.966419,31.5828771 60.4347037,32.6789206 60.3919992,33.8096609 L60.3919992,35.4761887 C60.4351461,36.6056005 59.9666846,37.7003366 59.0998072,38.49588 C58.2216592,39.2839014 57.0350932,39.7072613 55.8129221,39.6686217 L50.9210526,39.6686217 L50.9210526,38.4673923 L52.0799232,38.2584829 L52.0799232,31.0321147 L50.9210526,30.8232052 L50.9210526,29.607732 L55.8129221,29.607732 Z M54.2745984,31.1650571 L54.2745984,38.1255405 L55.715495,38.1255405 C56.416544,38.1575068 57.0941798,37.8876006 57.551228,37.3943574 C58.0089348,36.8544327 58.243498,36.1809768 58.2127072,35.4951805 L58.2127072,33.8001651 C58.2467153,33.1139667 58.0117995,32.4394986 57.551228,31.9009881 C57.0941798,31.4077449 56.416544,31.1378387 55.715495,31.169805 L54.2745984,31.1650571 Z" id="Shape"></path>
                    <polygon id="Path" points="68.3410225 35.2506517 64.7919217 35.2506517 64.7919217 38.1232001 68.1779023 38.1232001 68.27182 36.9219526 69.8684211 36.9219526 69.8684211 39.6710526 61.5789474 39.6710526 61.5789474 38.4650571 62.6911308 38.2561445 62.6911308 31.0296673 61.5789474 30.8255027 61.5789474 29.6052632 62.6911308 29.6052632 69.8535919 29.6052632 69.8535919 32.3638592 68.2421618 32.3638592 68.148244 31.1626117 64.7919217 31.1626117 64.7919217 33.6933031 68.3410225 33.6933031"></polygon>
                    <polygon id="Path" points="74.6052632 39.6710526 74.6052632 38.4608799 75.7798218 38.2520658 75.7798218 31.0289958 74.6052632 30.8249274 74.6052632 29.6052632 75.7798218 29.6052632 77.9886157 29.6052632 79.1683716 29.6052632 79.1683716 30.8249274 77.9886157 31.0289958 77.9886157 38.1191841 81.1017159 38.1191841 81.2056591 36.8568079 82.8947368 36.8568079 82.8947368 39.6710526"></polygon>
                    <path d="M83.4868421,38.4608799 L84.2377977,38.3564729 L87.4455222,29.6052632 L89.6138444,29.6052632 L92.8016759,38.3564729 L93.5526316,38.4608799 L93.5526316,39.6710526 L89.9619695,39.6710526 L89.9619695,38.4608799 L90.6930323,38.3374898 L90.2305232,36.9564691 L86.8139237,36.9564691 L86.3514146,38.3374898 L87.0824774,38.4608799 L87.0824774,39.6710526 L83.4918153,39.6710526 L83.4868421,38.4608799 Z M87.3112453,35.4662957 L89.7282284,35.4662957 L88.5396297,31.9212015 L88.4948708,31.9212015 L87.3112453,35.4662957 Z" id="Shape"></path>
                    <polygon id="Path" points="105.732076 32.4694445 103.811257 32.7929733 108.281343 46.9949356 108.590498 48.2985663 108.696929 48.2985663 108.99088 47.02824 113.47617 32.7929733 111.570555 32.4694445 111.570555 29.6052632 120.789474 29.6052632 120.789474 32.4694445 118.676066 32.7311222 111.241127 53.2894737 106.0463 53.2894737 98.5910889 32.7311222 96.5131579 32.4694445 96.5131579 29.6052632 105.732076 29.6052632"></polygon>
                    <polygon id="Path" points="121.973684 32.4694445 121.973684 29.6052632 132.039474 29.6052632 132.039474 32.4694445 129.432717 32.9547377 129.432717 49.9542725 132.039474 50.4443234 132.039474 53.2894737 121.973684 53.2894737 121.973684 50.4443234 124.580441 49.9542725 124.580441 32.9547377"></polygon>
                    <polygon id="Path" points="134.407895 53.2894737 134.407895 50.4443234 137.090081 49.9542725 137.090081 32.9547377 134.407895 32.4694445 134.407895 29.6052632 137.090081 29.6052632 142.145749 29.6052632 144.843117 29.6052632 144.843117 32.4694445 142.145749 32.9547377 142.145749 49.645017 149.256073 49.645017 149.498988 46.6714068 153.355263 46.6714068 153.355263 53.2894737"></polygon>
                    <polygon id="Path" points="154.539474 53.2894737 154.539474 50.4443234 157.22166 49.9542725 157.22166 32.9547377 154.539474 32.4694445 154.539474 29.6052632 157.22166 29.6052632 162.277328 29.6052632 164.974696 29.6052632 164.974696 32.4694445 162.277328 32.9547377 162.277328 49.645017 169.387652 49.645017 169.630567 46.6714068 173.486842 46.6714068 173.486842 53.2894737"></polygon>
                    <path d="M175.298017,50.4353812 L177.070847,50.1927834 L184.615334,29.6052632 L189.70475,29.6052632 L197.174539,50.1927834 L198.947368,50.4353812 L198.947368,53.2894737 L190.481608,53.2894737 L190.481608,50.4353812 L192.199659,50.1404583 L191.10907,46.886793 L183.111416,46.886793 L182.010867,50.1404583 L183.728919,50.4353812 L183.728919,53.2894737 L175.263158,53.2894737 L175.298017,50.4353812 Z M184.286663,43.3905297 L189.978642,43.3905297 L187.184941,35.0470661 L187.080364,35.0470661 L184.286663,43.3905297 Z" id="Shape"></path>
                    <path d="M42.838992,53.9980948 C41.9902823,56.2926606 39.7618631,57.8785882 37.1925494,58.0165708 C34.6232358,58.1545534 32.2188329,56.8174273 31.1001936,54.6285162 L23.165589,39.0765419 C22.0459951,36.8767276 22.4423579,34.2562722 24.169334,32.4405273 C17.353208,34.1146533 10.309007,30.6088825 7.91763525,24.3523522 C5.52626348,18.0958218 8.57521022,11.1488351 14.9518701,8.32493668 C21.3285301,5.50103824 28.9330407,7.73015035 32.4962613,13.4677284 C36.0594819,19.2053065 34.408028,26.5619407 28.6861868,30.4402429 C31.2107969,30.35816 33.5488559,31.6908958 34.6484324,33.8388304 L42.5880558,49.3908046 C43.3263096,50.8254575 43.4257149,52.4795385 42.8640856,53.9838748 M25.24836,29.1557 C29.8778961,27.1113919 32.3344481,22.2637002 31.1162912,17.5760869 C29.8981344,12.8884737 25.3443623,9.66581168 20.2387597,9.87815941 C15.1331572,10.0905071 10.896951,13.6787542 10.1197935,18.4493548 C9.34263606,23.2199554 12.2408616,27.8449359 17.0427442,29.4969808 C19.7161478,30.4245874 22.6716388,30.3016652 25.24836,29.1557 L25.24836,29.1557 M39.9331501,50.6042473 L31.9935267,35.052273 C31.1619971,33.4370686 29.1015349,32.7643391 27.3913557,33.5496898 C25.6811764,34.3350404 24.9688902,36.2810748 25.8004197,37.8962793 L33.7400431,53.4482536 C34.5715728,55.063458 36.6320349,55.7361875 38.3422142,54.9508368 C40.0523934,54.1654862 40.7646797,52.2194518 39.9331501,50.6042473 M17.4592984,13.4188653 C13.6188559,15.1135542 11.9570318,19.4255326 13.7454417,23.0553066 C13.9668794,23.5023754 14.424029,23.8039091 14.9446868,23.8463229 C15.4653446,23.8887366 15.9704102,23.6655867 16.2696303,23.2609316 C16.5688504,22.8562765 16.6167663,22.3315929 16.3953286,21.884524 C15.8621281,20.8047531 15.805313,19.5690726 16.2374001,18.4497116 C16.6694871,17.3303506 17.555025,16.419149 18.6989235,15.9168508 C19.4306696,15.5948571 19.7474909,14.7735754 19.4065638,14.0824668 C19.0656366,13.3913582 18.1960632,13.0921316 17.4643171,13.4141253" id="Shape"></path>
                    <path d="M26.8657885,53.4878383 C25.9089658,55.3927606 24.598318,58.0263158 20.7211925,58.0263158 C16.844067,58.0263158 15.5583364,55.445146 14.5217785,53.3687807 C14.3822418,53.0878046 11.7061282,48.0445227 11.7061282,48.0445227 C6.044927,37.4055314 0,25.5712013 0,19.8040489 C0,8.86657472 9.27830946,0 20.7236842,0 C32.169059,0 41.4473684,8.86657472 41.4473684,19.8040489 C41.4473684,22.0328081 40.560314,25.2711761 38.7363707,29.7048828 C38.4432524,30.4176532 37.6009867,30.768393 36.8551176,30.4882821 C36.1092485,30.2081713 35.7422215,29.403282 36.0353398,28.6905117 C37.6998127,24.6425517 38.5270657,21.6518236 38.5270657,19.8040489 C38.5270657,10.3986365 30.5484112,2.77404317 20.7062421,2.77404317 C10.8640731,2.77404317 2.88541858,10.3986365 2.88541858,19.8040489 C2.88541858,25.3854714 10.5798681,39.8390697 14.2775893,46.7825116 C14.2775893,46.7825116 16.9736367,51.8734166 17.1231403,52.1734419 C18.2095328,54.292668 18.7626959,55.2451292 20.7211925,55.2451292 C22.5899869,55.2451292 23.1680673,54.4355372 24.2444929,52.2829749 C24.5899046,51.5912458 25.4567131,51.2980743 26.1805639,51.6281579 C26.9044146,51.9582416 27.2112002,52.7865845 26.8657885,53.4783137" id="Path"></path>
                </g>
                <text id="COVID19-Copy" font-family="LucidaGrande-Bold, Lucida Grande" font-size="22.5" font-weight="bold">
                    <tspan x="156" y="85">COVID</tspan>
                    <tspan x="231.574951" y="85" font-family="Beirut">19</tspan>
                </text>
            </g>
        </g>
    </g>
</svg>