<?xml version="1.0" encoding="UTF-8"?>
<svg width="413px" height="145px" viewBox="0 0 413 145" version="1.1" xmlns="http://www.w3.org/2000/svg" xmlns:xlink="http://www.w3.org/1999/xlink">
    <!-- Generator: Sketch 61.2 (89653) - https://sketch.com -->
    <title>Group 7</title>
    <desc>Created with Sketch.</desc>
    <g id="Home-Covid" stroke="none" stroke-width="1" fill="none" fill-rule="evenodd">
        <g id="Desktop" transform="translate(-56.000000, -49.000000)" fill="#F9F9F9">
            <g id="Group-7" transform="translate(56.000000, 49.000000)">
                <g id="caminos_logo-49648333dfc43c708bf3e55bf0c2499681bf19634409be1acdaa588ae7bee61e-(1)" fill-rule="nonzero">
                    <path d="M115.974966,20.6548583 L110.359085,20.6548583 L109.583042,15.8765468 C108.780671,15.1330052 107.822222,14.560286 106.770929,14.196174 C105.488682,13.7617146 104.134207,13.5539141 102.77389,13.5829573 C99.8233832,13.4276325 96.9855688,14.6847594 95.2053836,16.9357392 C93.4363392,19.2080918 92.551817,22.1732995 92.551817,25.8313623 L92.551817,27.1294703 C92.551817,30.7875331 93.4307761,33.7607047 95.1886945,36.048985 C96.9074623,38.3188589 99.7090129,39.609319 102.640377,39.4814054 C104.024785,39.4954534 105.401671,39.2854177 106.712517,38.8602249 C107.798986,38.5377266 108.783163,37.9599208 109.574697,37.179852 L110.35074,32.4015406 L115.966622,32.4015406 L115.966622,39.5132608 C114.355561,41.2402139 112.359639,42.6008309 110.125437,43.495187 C107.628372,44.5200849 104.932709,45.0302791 102.214805,44.9923912 C97.5304533,45.1328882 93.0136925,43.3219889 89.8398385,40.0309112 C86.6132795,36.6860932 85,32.3962313 85,27.1613257 L85,25.9189647 C85,20.6999868 86.6049349,16.4101249 89.8148048,13.0493792 C92.9866507,9.70413272 97.5401774,7.86037818 102.264872,8.00826065 C104.979985,7.96967709 107.672079,8.48842073 110.158816,9.52935646 C112.38145,10.4433973 114.37318,11.801157 116,13.5112827 L115.974966,20.6548583 Z" id="Path"></path>
                    <path d="M119,39.6793623 L121.772211,39.3046944 L133.564834,8 L141.520993,8 L153.236372,39.3046944 L156,39.6793623 L156,44 L142.808397,44 L142.808397,39.6793623 L145.494781,39.2329495 L143.778242,34.2905226 L131.221758,34.2905226 L129.505219,39.2329495 L132.191603,39.6793623 L132.191603,44 L119,44 L119,39.6793623 Z M133.058455,28.9734278 L141.950128,28.9734278 L137.581536,16.2905226 L137.444212,16.2905226 L133.058455,28.9734278 Z" id="Shape"></path>
                    <polygon id="Path" points="194.951775 17.3746678 194.790673 17.3507529 184.539481 44 179.384208 44 169.175411 17.4464128 169.014308 17.4703277 169.751987 33.2701506 169.751987 38.9379982 173.855856 39.6793623 173.855856 44 158 44 158 39.6793623 162.078431 38.9379982 162.078431 13.0938884 158 12.3525244 158 8 162.078431 8 172.09221 8 181.851616 34.5296723 182.012719 34.5296723 191.848437 8 206 8 206 12.3525244 201.896131 13.0938884 201.896131 38.9379982 206 39.6793623 206 44 190.135665 44 190.135665 39.6793623 194.214096 38.9379982 194.214096 33.2701506"></polygon>
                    <polygon id="Path" points="209 12.3525244 209 8 225 8 225 12.3525244 220.861037 13.0938884 220.861037 38.9379982 225 39.6793623 225 44 209 44 209 39.6793623 213.138963 38.9379982 213.138963 13.0938884"></polygon>
                    <polygon id="Path" points="266 8 266 12.3525244 261.910745 13.0938884 261.910745 44 254.281412 44 238.870667 19.7741364 238.718588 19.7980514 238.718588 38.9379982 242.799393 39.6793623 242.799393 44 227 44 227 39.6793623 231.063908 38.9379982 231.063908 13.0938884 227 12.3525244 227 8 231.063908 8 238.718588 8 254.120884 32.2338353 254.281412 32.2099203 254.281412 13.0938884 250.192158 12.3525244 250.192158 8 261.910745 8"></polygon>
                    <path d="M303.982902,26.7739015 C303.982902,32.0443016 302.364273,36.3991488 299.127015,39.8384432 C295.861409,43.1289361 291.268622,45 286.457255,45 C281.645887,45 277.0531,43.1289361 273.787494,39.8384432 C270.595831,36.3991488 269,32.0443016 269,26.7739015 L269,26.2325311 C269,20.9992839 270.598681,16.652398 273.796043,13.1918735 C276.935027,9.760128 281.585232,7.85142664 286.423058,8.00904802 C291.284171,7.85740998 295.95779,9.76282113 299.135564,13.1918735 C302.378521,16.6470905 304,20.9939764 304,26.2325311 L303.982902,26.7739015 Z M296.288715,26.1847632 C296.288715,22.4694761 295.456603,19.4494784 293.792379,17.1247702 C292.176563,14.8256615 289.369539,13.5004481 286.423058,13.6456693 C283.168702,13.6456693 280.740759,14.7974083 279.139228,17.1008863 C277.537697,19.4043642 276.722684,22.4323232 276.694187,26.1847632 L276.694187,26.7739015 C276.694187,30.5634944 277.503501,33.6126835 279.12213,35.9214691 C280.697119,38.2161249 283.477437,39.5426538 286.397411,39.3926087 C289.350926,39.5566454 292.172607,38.2352084 293.792379,35.9294304 C295.433806,33.6153373 296.257369,30.5661481 296.263068,26.7818629 L296.288715,26.1847632 Z" id="Shape"></path>
                    <path d="M336.398097,19.9987892 L330.549358,19.9987892 L329.532935,15.0673603 C328.608624,14.5841572 327.609181,14.2353931 326.569803,14.033351 C325.213367,13.7304681 323.822099,13.5808989 322.426587,13.5879316 C320.671626,13.4881532 318.930207,13.9272128 317.473679,14.8366967 C316.377124,15.578417 315.735596,16.763187 315.750928,18.0182637 C315.741898,19.2542437 316.434865,20.4042245 317.577044,21.0487063 C319.55249,22.1376149 321.67961,22.9725238 323.899539,23.5303285 C328.194932,24.6332718 331.450931,26.0888387 333.667537,27.8970293 C335.886855,29.6990191 337.108287,32.3287609 336.992446,35.055555 C337.09507,37.9433777 335.606913,40.6827162 333.038733,42.3333896 C330.402924,44.1097645 326.92871,44.9979519 322.61609,44.9979519 C319.765842,45.0348317 316.933777,44.5733399 314.269362,43.637832 C311.928346,42.8180083 309.808983,41.5368561 308.058845,39.883583 L308.058845,32.359177 L314.088473,32.359177 L314.949849,37.465592 C315.904454,38.1386814 316.988945,38.6380396 318.145552,38.9370668 C319.606907,39.3393136 321.125761,39.5350744 322.650545,39.5177027 C324.376234,39.6282616 326.092392,39.2026898 327.52593,38.3087073 C328.616912,37.5460459 329.239798,36.3423357 329.196998,35.0794168 C329.2484,33.8031679 328.664495,32.5753702 327.612068,31.7467253 C325.937452,30.6283948 324.045312,29.8182571 322.038969,29.3605501 C317.444966,28.1250416 313.953524,26.6615207 311.564643,24.9699876 C309.218264,23.3264022 307.8899,20.7276573 308.007163,18.0103098 C307.964721,15.156392 309.467217,12.4711001 312.012558,10.851784 C314.948689,8.92476681 318.480827,7.92592946 322.082037,8.00428155 C324.866076,7.97135565 327.634184,8.39691728 330.25649,9.26100051 C332.537502,10.0027804 334.642955,11.14228 336.458393,12.6175537 L336.398097,19.9987892 Z" id="Path"></path>
                    <path d="M94.2618241,50.0041696 C96.3277036,49.9382352 98.3330052,50.656612 99.8130077,51.9928189 C101.276619,53.3399702 102.0675,55.1910658 101.995376,57.1007607 L101.995376,59.9153409 C102.068247,61.8227919 101.277067,63.6716796 99.8130077,65.015264 C98.3299133,66.3461446 96.3259351,67.0611525 94.2618241,66.9958945 L86,66.9958945 L86,64.9671515 L87.9572036,64.6143266 L87.9572036,52.4097937 L86,52.0569688 L86,50.0041696 L94.2618241,50.0041696 Z M91.6637662,52.6343186 L91.6637662,64.3898017 L94.0972804,64.3898017 C95.2812744,64.4437893 96.4257259,63.9879476 97.1976295,63.1549147 C97.9706454,62.243042 98.3667967,61.1056497 98.3147944,59.9474159 L98.3147944,57.0847232 C98.3722303,55.9258104 97.9754837,54.7867087 97.1976295,53.8772244 C96.4257259,53.0441914 95.2812744,52.5883498 94.0972804,52.6423374 L91.6637662,52.6343186 Z" id="Shape"></path>
                    <polygon id="Path" points="115.420394 59.534434 109.426357 59.534434 109.426357 64.3858491 115.144902 64.3858491 115.303518 62.3570755 118 62.3570755 118 67 104 67 104 64.9632075 105.878354 64.6103774 105.878354 52.4056604 104 52.0608491 104 50 105.878354 50 117.974955 50 117.974955 54.6589623 115.253429 54.6589623 115.094812 52.6301887 109.426357 52.6301887 109.426357 56.9042453 115.420394 56.9042453"></polygon>
                    <polygon id="Path" points="126 67 126 64.9561528 127.983699 64.6034889 127.983699 52.4045262 126 52.0598774 126 50 127.983699 50 131.714107 50 133.706583 50 133.706583 52.0598774 131.714107 52.4045262 131.714107 64.3790665 136.971787 64.3790665 137.147335 62.2470533 140 62.2470533 140 67"></polygon>
                    <path d="M141,64.9561528 L142.268281,64.7798208 L147.685771,50 L151.347826,50 L156.731719,64.7798208 L158,64.9561528 L158,67 L151.935771,67 L151.935771,64.9561528 L153.170455,64.7477605 L152.389328,62.4153701 L146.619071,62.4153701 L145.837945,64.7477605 L147.072628,64.9561528 L147.072628,67 L141.008399,67 L141,64.9561528 Z M147.458992,59.8986327 L151.541008,59.8986327 L149.533597,53.9113626 L149.458004,53.9113626 L147.458992,59.8986327 Z" id="Shape"></path>
                    <polygon id="Path" points="178.569729 54.837284 175.325678 55.3836882 182.875157 79.3692246 183.397286 81.570912 183.577035 81.570912 184.073486 79.4254721 191.648643 55.3836882 188.430271 54.837284 188.430271 50 204 50 204 54.837284 200.430689 55.2792286 187.873904 90 179.100418 90 166.509395 55.2792286 163 54.837284 163 50 178.569729 50"></polygon>
                    <polygon id="Path" points="206 54.837284 206 50 223 50 223 54.837284 218.597478 55.6568903 218.597478 84.3672157 223 85.1948574 223 90 206 90 206 85.1948574 210.402522 84.3672157 210.402522 55.6568903"></polygon>
                    <polygon id="Path" points="227 90 227 85.1948574 231.529915 84.3672157 231.529915 55.6568903 227 54.837284 227 50 231.529915 50 240.068376 50 244.623932 50 244.623932 54.837284 240.068376 55.6568903 240.068376 83.8449176 252.076923 83.8449176 252.487179 78.8228204 259 78.8228204 259 90"></polygon>
                    <polygon id="Path" points="261 90 261 85.1948574 265.529915 84.3672157 265.529915 55.6568903 261 54.837284 261 50 265.529915 50 274.068376 50 278.623932 50 278.623932 54.837284 274.068376 55.6568903 274.068376 83.8449176 286.076923 83.8449176 286.487179 78.8228204 293 78.8228204 293 90"></polygon>
                    <path d="M296.058873,85.179755 L299.052986,84.7700341 L311.794786,50 L320.390244,50 L333.005887,84.7700341 L336,85.179755 L336,90 L321.702271,90 L321.702271,85.179755 L324.603869,84.681663 L322.761985,79.1865837 L309.254836,79.1865837 L307.396131,84.681663 L310.297729,85.179755 L310.297729,90 L296,90 L296.058873,85.179755 Z M311.239697,73.2817835 L320.852817,73.2817835 L316.134567,59.1906005 L315.957948,59.1906005 L311.239697,73.2817835 Z" id="Shape"></path>
                    <path d="M72.3502976,91.1967823 C70.9169213,95.0720489 67.1533688,97.7505045 62.8140835,97.9835418 C58.4747982,98.2165792 54.4140289,95.9583216 52.5247715,92.261494 L39.1241058,65.9959374 C37.2332362,62.2806954 37.9026489,57.8550375 40.8193197,54.7884461 C29.3076401,57.6158589 17.4107674,51.6950016 13.3720062,41.128417 C9.33324499,30.5618324 14.4825773,18.8291438 25.2520473,14.0598931 C36.0215174,9.29064236 48.864691,13.055365 54.8825747,22.7454969 C60.9004583,32.4356288 58.1113362,44.8601665 48.4477821,51.4101879 C52.711568,51.2715591 56.6602899,53.5224017 58.5173525,57.1500246 L71.9264942,83.4155812 C73.1733228,85.8385505 73.3412074,88.6321095 72.392678,91.1727663 M42.6416746,49.2407378 C50.4604468,45.7881285 54.6092901,37.6009158 52.5519585,29.6840579 C50.4946269,21.7672 42.8038118,16.324482 34.1810164,16.6831137 C25.558221,17.0417454 18.4037395,23.101896 17.0912069,31.1589103 C15.7786742,39.2159246 20.6734551,47.0270028 28.7833012,49.8171231 C33.2983829,51.3837476 38.2898789,51.1761457 42.6416746,49.2407378 L42.6416746,49.2407378 M67.4426535,85.464951 L54.0335118,59.1993944 C52.6291506,56.4714936 49.149259,55.3353283 46.2609563,56.6616983 C43.3726535,57.9880682 42.1696811,61.2747041 43.5740422,64.002605 L56.9831839,90.2681616 C58.3875451,92.9960625 61.8674367,94.1322277 64.7557395,92.8058578 C67.6440422,91.4794878 68.8470146,88.1928519 67.4426535,85.464951 M29.486815,22.6629726 C23.0007343,25.5251138 20.1940982,32.8075661 23.2145237,38.9378511 C23.5885074,39.6929007 24.3605824,40.2021577 25.2399155,40.2737897 C26.1192487,40.3454218 26.9722484,39.9685464 27.4775978,39.2851289 C27.9829473,38.6017114 28.063872,37.715579 27.6898883,36.9605294 C26.7893719,35.1369163 26.6934175,33.0499892 27.4231645,31.1595129 C28.1529115,29.2690366 29.6484867,27.7301183 31.5804041,26.8817925 C32.8162419,26.3379809 33.351318,24.9509273 32.7755299,23.7837217 C32.1997418,22.6165161 30.7311289,22.1111555 29.4952911,22.6549672" id="Shape"></path>
                    <path d="M45.3733317,90.3350158 C43.7573644,93.552218 41.5438259,98 34.9957918,98 C28.4477576,98 26.2763016,93.640691 24.5256703,90.1339407 C24.2900084,89.6594033 19.7703499,81.1418606 19.7703499,81.1418606 C10.2092101,63.1737864 0,43.1869178 0,33.4468382 C0,14.9746595 15.6700338,0 35,0 C54.3299662,0 70,14.9746595 70,33.4468382 C70,37.2109648 68.5018637,42.6802085 65.421426,50.1682465 C64.9263818,51.3720365 63.5038886,51.9643971 62.2441986,51.4913209 C60.9845086,51.0182448 60.3646408,49.6588763 60.859685,48.4550864 C63.6707948,41.6185317 65.0679331,36.5675243 65.0679331,33.4468382 C65.0679331,17.5621416 51.5928723,4.68505068 34.9705423,4.68505068 C18.3482123,4.68505068 4.87315138,17.5621416 4.87315138,33.4468382 C4.87315138,42.8732406 17.8682217,67.2837622 24.113262,79.0104641 C24.113262,79.0104641 28.6665865,87.6084369 28.9190814,88.1151463 C30.7538776,91.6942837 31.6881087,93.3028848 34.9957918,93.3028848 C38.1519779,93.3028848 39.1282915,91.9355739 40.9462547,88.3001354 C41.5296167,87.1318818 42.9935599,86.6367476 44.2160634,87.1942223 C45.4385669,87.7516969 45.9566936,89.1506761 45.3733317,90.3189298" id="Path"></path>
                </g>
                <text id="COVID19" font-family="LucidaGrande-Bold, Lucida Grande" font-size="38" font-weight="bold">
                    <tspan x="264" y="144">COVID</tspan>
                    <tspan x="391.637695" y="144" font-family="Beirut">19</tspan>
                </text>
            </g>
        </g>
    </g>
</svg>