<?xml version="1.0" encoding="UTF-8"?>
<svg width="180px" height="44px" viewBox="0 0 180 44" version="1.1" xmlns="http://www.w3.org/2000/svg" xmlns:xlink="http://www.w3.org/1999/xlink">
    <!-- Generator: Sketch 61.2 (89653) - https://sketch.com -->
    <title>wingu-logo (4)</title>
    <desc>Created with Sketch.</desc>
    <g id="Home-Covid" stroke="none" stroke-width="1" fill="none" fill-rule="evenodd">
        <g id="Desktop" transform="translate(-1157.000000, -6103.000000)" fill="#FFFFFF" fill-rule="nonzero">
            <g id="wingu-logo-(4)" transform="translate(1157.000000, 6103.000000)">
                <rect id="Rectangle" x="103.404255" y="11.4893617" width="5.17021277" height="22.4042553"></rect>
                <path d="M124.037381,11.5502815 C122.82076,11.5230157 121.614302,11.790602 120.509763,12.3326894 C119.584021,12.7793924 118.771841,13.4537355 118.140468,14.2998866 L118.140468,14.2998866 C118.140468,14.2104685 117.592898,13.1821609 116.908434,11.96384 L113.170213,11.96384 L113.170213,33.8824398 L118.277361,33.8824398 L118.277361,20.9168223 C118.219127,19.7129475 118.671041,18.5444897 119.509394,17.7313043 C120.345742,16.9711129 121.420634,16.5721825 122.521032,16.6135786 C123.571864,16.564698 124.59687,16.9676572 125.364187,17.7313043 C126.114219,18.5979449 126.495066,19.7540988 126.417207,20.9279996 L126.417207,33.893617 L131.545415,33.893617 L131.545415,19.5196653 C131.639564,17.3616046 130.8754,15.2608032 129.439375,13.7298465 C127.985135,12.2251677 126.01428,11.4174616 123.98473,11.4943952" id="Path"></path>
                <path d="M174.177541,12.0638298 L174.177541,25.1127554 C174.238513,26.3133309 173.786612,27.4790737 172.947581,28.2856106 C172.096671,29.0464703 171.010302,29.4445831 169.898962,29.4028131 C168.849899,29.4516709 167.826619,29.0489003 167.060593,28.2856106 C166.287719,27.4364462 165.887042,26.2806615 165.956783,25.1015834 L165.956783,12.0638298 L160.858231,12.0638298 L160.858231,26.5092586 C160.76815,28.6656322 161.530442,30.7638373 162.960727,32.2963677 C164.410676,33.7534398 166.348676,34.5338312 168.343116,34.4637406 C169.575587,34.4893486 170.797528,34.2181694 171.917358,33.6705268 C172.864477,33.2075041 173.690868,32.5056804 174.324715,31.6260462 C174.324715,31.6260462 174.850339,32.7432487 175.512625,33.9386554 L179.234043,33.9386554 L179.234043,12.0638298 L174.177541,12.0638298 Z" id="Path"></path>
                <path d="M105.697219,2.29964202 C104.926163,2.27096421 104.17823,2.59186154 103.628412,3.18725381 C103.094076,3.79618913 102.806731,4.61726147 102.831922,5.46318147 C102.801885,6.30999369 103.089937,7.13308718 103.628412,7.73910913 C104.181931,8.32694107 104.928282,8.64305392 105.697219,8.61534128 C106.465357,8.63790119 107.209957,8.32252946 107.766025,7.73910913 C108.307233,7.13424579 108.598927,6.31143213 108.572859,5.46318147 C108.595297,4.61561725 108.304139,3.79431607 107.766025,3.18725381 C107.212506,2.59942186 106.466155,2.28330901 105.697219,2.31102166" id="Path"></path>
                <path d="M145.413148,29.6464693 C141.743577,29.6464693 140.184539,26.3968395 140.184539,23.0230919 C140.184539,19.6493443 141.743577,16.410998 145.413148,16.410998 C149.08272,16.410998 150.631152,19.6606278 150.631152,23.0230919 C150.631152,26.3855561 149.072115,29.6464693 145.413148,29.6464693 M150.715998,14.4025463 L150.715998,14.4025463 C149.138752,12.4290551 146.783521,11.3557643 144.352579,11.5027031 C141.767749,11.4285399 139.292215,12.6124717 137.628565,14.7184825 C135.82997,17.0393939 134.897463,19.9835534 135.008958,22.9892416 C134.907049,26.0003286 135.838142,28.9480447 137.628565,31.2825676 C139.285985,33.4012003 141.762445,34.5980418 144.352579,34.5321974 C148.011545,34.5321974 150.026628,32.6929972 150.620547,31.7903222 L150.620547,33.2458856 C150.63908,34.2634253 150.302829,35.2522302 149.676639,36.021611 C149.046567,36.7899394 148.238531,37.3695375 147.33278,37.7028431 C146.33347,38.0508341 145.287337,38.2223557 144.235916,38.2105977 C142.983194,38.2068024 141.734719,38.0554342 140.513316,37.7592603 L140.216356,37.6915596 L138.243696,41.9792656 C138.909964,42.2300025 139.589992,42.4372506 140.27999,42.5998546 C141.673959,42.9208534 143.096022,43.0834941 144.52227,43.0850747 C145.956545,43.0880651 147.384269,42.8792082 148.764549,42.4644534 C150.031549,42.0781491 151.231384,41.4760946 152.317459,40.6816704 C153.360474,39.8966949 154.205569,38.8503294 154.777981,37.6351424 C155.395089,36.314742 155.704298,34.855671 155.679465,33.3812868 L155.679465,11.9427571 L151.925048,11.9427571 C151.12962,13.4434542 150.641758,14.4138297 150.641758,14.4138297" id="Shape"></path>
                <polygon id="Path" points="90.9269463 28.2524227 86.2316604 11.4893617 82.7155558 11.4893617 77.9988302 28.2524227 73.7216176 11.4893617 68.3617021 11.4893617 74.5363248 33.893617 80.989663 33.893617 84.4736081 21.3041225 87.9468333 33.893617 94.4001716 33.893617 100.531915 11.4893617 95.1719994 11.4893617"></polygon>
                <path d="M33.491111,17.5116059 C27.6203445,13.7678202 20.9592389,11.6960861 14.1371599,11.4921487 C9.53968622,11.4186742 5.02339094,12.7993996 1.14893617,15.4629188 C1.83101404,17.986502 2.64906523,20.4652323 3.59893883,22.8865323 C6.54729638,20.2406575 10.3001228,18.8593934 14.1371599,19.0078381 C19.7400418,19.2105293 25.2032116,20.9412094 30.014033,24.0374802 C34.8896807,27.0558637 39.3721928,30.7557289 43.3446151,35.0405415 L44.2861009,36.1914894 C45.7390069,34.142937 47.064948,31.9936882 48.2553191,29.7576909 C43.867841,24.9804379 38.9017131,20.8613125 33.491111,17.5116059 Z" id="Path"></path>
                <path d="M14.6172108,29.2978723 C12.3418552,29.2978723 10.6890026,29.9190451 10.0772325,31.008822 C9.81877391,31.5109731 9.71766118,32.0813442 9.78744664,32.6434873 C9.86885407,33.4331115 10.1580156,34.1859469 10.6246058,34.823041 C12.3013417,37.1447319 14.1529402,39.3308445 16.1627353,41.3617021 C19.0286302,38.144717 22.2727518,35.2972521 25.8222637,32.8832382 C25.8402505,32.8711237 25.8510638,32.8506653 25.8510638,32.8287494 C25.8510638,32.8068334 25.8402505,32.786375 25.8222637,32.7742605 C22.4319348,30.6831629 18.5796079,29.4879714 14.6172108,29.2978723" id="Path"></path>
                <path d="M29.2515806,26.4501586 C24.8310904,23.6371848 19.7999085,22.05205 14.6330234,21.8444052 C11.1348547,21.6740308 7.7203585,22.9987406 5.17021277,25.5156579 C5.8975148,27.1548235 6.70847391,28.7517207 7.59956661,30.2994115 C9.38235581,28.211005 11.962449,27.0683241 14.6330234,27.1844092 L14.6330234,27.1844092 C18.9118938,27.3979694 23.070771,28.7369809 26.7267499,31.0781621 C27.0980486,31.3006623 29.7820072,33.0472886 30.6306897,33.681414 C33.9460281,36.0286322 36.9681942,38.8017699 39.6267249,41.9361702 C40.8679232,40.6345442 42.0242532,39.2995432 43.0851064,37.9534172 C42.7244163,37.5306669 42.3425091,37.0967916 41.9499935,36.6629163 C38.1696639,32.6809476 33.8991012,29.2463276 29.2515806,26.4501586 L29.2515806,26.4501586 Z" id="Path"></path>
                <path d="M6.43681107,4.52442714 C4.24171546,5.35485585 2.09278815,6.31164295 0,7.39034902 C0.215496903,9.46624685 0.574018151,11.5233956 1.07280185,13.5459478 C5.18786447,10.9899919 9.90401924,9.66984535 14.6973853,9.73215289 C21.9377102,9.92408222 29.0102463,12.0393712 35.2415406,15.8766002 C40.6454148,19.0942501 45.6253505,23.0262841 50.0569341,27.5744681 C51.3614318,24.9729684 52.4871116,22.2787347 53.4255319,19.5119719 C49.0627843,15.3898452 44.286413,11.7671191 39.1787234,8.70621976 C36.1716485,6.91840693 33.0111583,5.42511927 29.7380672,4.24564097 C22.1703723,1.55613293 13.9429466,1.65456936 6.43681107,4.52442714 Z" id="Path"></path>
                <path d="M27.7220945,0 C27.0912898,0 26.4497936,0 25.8510638,0 L25.8510638,0 C25.8510638,0 25.8510638,0 25.8510638,0 C30.7771651,1.37619946 35.5058746,3.44373606 39.9105225,6.14725428 C44.8470266,9.15459931 49.4854133,12.6763038 53.7561492,16.6595745 C54.7176219,13.4882767 55.3766404,10.2236516 55.7234043,6.9142476 C47.0216644,2.35723852 37.4369719,-0.00946023557 27.7220945,0 L27.7220945,0 Z" id="Path"></path>
            </g>
        </g>
    </g>
</svg>