<?xml version="1.0" encoding="UTF-8" standalone="no"?>
<svg width="16px" height="15px" viewBox="0 0 16 15" version="1.1" xmlns="http://www.w3.org/2000/svg" xmlns:xlink="http://www.w3.org/1999/xlink">
    <!-- Generator: Sketch 49.3 (51167) - http://www.bohemiancoding.com/sketch -->
    <title>Shape</title>
    <desc>Created with Sketch.</desc>
    <defs></defs>
    <g id="PANTALLAS" stroke="none" stroke-width="1" fill="none" fill-rule="evenodd">
        <g id="INFO-REUNIONES" transform="translate(-22.000000, -20.000000)" fill="#DE205B">
            <path d="M25.4608932,26.5143061 L30.4970918,21.684406 C30.8781604,21.3189472 30.8908146,20.7137672 30.5253558,20.3326986 C30.5161325,20.3230813 30.5067091,20.3136579 30.4970918,20.3044346 L30.4698048,20.2782654 C30.0829369,19.9072447 29.4723328,19.9072447 29.0854649,20.2782654 L22.3078315,26.7782655 C21.9092286,27.1605404 21.8959921,27.793567 22.278267,28.19217 C22.2879147,28.2022298 22.2977717,28.2120868 22.3078315,28.2217345 L29.0854649,34.7217346 C29.4723328,35.0927553 30.0829369,35.0927553 30.4698048,34.7217346 L30.4970918,34.6955654 C30.8781604,34.3301066 30.8908146,33.7249266 30.5253558,33.343858 C30.5161325,33.3342407 30.5067091,33.3248173 30.4970918,33.315594 L25.4608932,28.4856939 L37.0143061,28.4856939 C37.5586898,28.4856939 38,28.0443837 38,27.5 L38,27.5 C38,26.9556163 37.5586898,26.5143061 37.0143061,26.5143061 L25.4608932,26.5143061 Z" id="Shape"></path>
        </g>
    </g>
</svg>