<?xml version="1.0"?>
<svg xmlns="http://www.w3.org/2000/svg" id="Outline" viewBox="0 0 512 512" width="512" height="512"><path d="M463.986,455.53l-16-272h0a8,8,0,0,0-1.325-3.969L422.948,144H424a8,8,0,0,0,8-8V104a8,8,0,0,0-8-8H344a8,8,0,0,0-8,8v32a8,8,0,0,0,8,8h1.052l-23.708,35.562a8,8,0,0,0-1.325,3.969h0l-8.062,137.044A56.223,56.223,0,0,0,304,320H264V232.662l15.891-95.347A8.046,8.046,0,0,0,280,136V56a40.045,40.045,0,0,0-40-40H208a8,8,0,0,0-8,8v96a8,8,0,0,0,8,8h24v7.338l-15.891,95.347A8.046,8.046,0,0,0,216,232v88H176V264a24.027,24.027,0,0,0-24-24h-8V224h8a8,8,0,0,0,8-8V152a8,8,0,0,0-8-8H72a8,8,0,0,0-8,8v64a8,8,0,0,0,8,8h8v16H72a24.027,24.027,0,0,0-24,24V472a24.027,24.027,0,0,0,24,24h80v-.581a56.14,56.14,0,0,0,8,.581H304a56.14,56.14,0,0,0,8-.581V496H456a8,8,0,0,0,8-8V456c0-.158-.015-.313-.024-.469ZM352,112h64v16H352Zm12.281,32h39.438l21.333,32h-82.1Zm-28.738,48h96.914l15.058,256h-88.1a56.14,56.14,0,0,0,.581-8V376a56.062,56.062,0,0,0-32.3-50.72ZM216,32h16V48H216Zm0,32h16V80H216Zm0,48V96h16v16Zm16,120.662,15.891-95.347A8.046,8.046,0,0,0,248,136V33.371A24.042,24.042,0,0,1,264,56v79.338l-15.891,95.347A8.046,8.046,0,0,0,248,232v88H232ZM80,160h64v48H80Zm48,64v16H96V224ZM64,264a8.009,8.009,0,0,1,8-8h80a8.009,8.009,0,0,1,8,8v24H64Zm8,216a8.009,8.009,0,0,1-8-8V304h96v16a56.063,56.063,0,0,0-56,56v64a55.82,55.82,0,0,0,16.862,40Zm232,0H160a40.045,40.045,0,0,1-40-40V376a40.045,40.045,0,0,1,40-40H304a40.045,40.045,0,0,1,40,40v64A40.045,40.045,0,0,1,304,480Zm144,0H343.138a56.251,56.251,0,0,0,11.448-16H448Z"/><path d="M384,288a32,32,0,1,0-32-32A32.036,32.036,0,0,0,384,288Zm0-48a16,16,0,1,1-16,16A16.019,16.019,0,0,1,384,240Z"/><path d="M256,448H160a8.009,8.009,0,0,1-8-8V392a8,8,0,0,0-16,0v48a24.028,24.028,0,0,0,24,24h96a8,8,0,0,0,0-16Z"/><circle cx="288" cy="456" r="8"/><path d="M304,352H208a8,8,0,0,0,0,16h96a8.009,8.009,0,0,1,8,8v48a8,8,0,0,0,16,0V376A24.028,24.028,0,0,0,304,352Z"/><circle cx="176" cy="360" r="8"/></svg>
