<svg height="512pt" viewBox="0 -46 512 512" width="512pt" xmlns="http://www.w3.org/2000/svg"><path fill="#E9A07D" d="m121 270h120v60h-120zm0 0"/><path fill="#E9A07D" d="m121 150h150v-45c0-8.285156-6.714844-15-15-15h-135zm0 0"/><path fill="#E9A07D" d="m0 270h91v60h-91zm0 0"/><path fill="#E9A07D" d="m0 90h91v60h-91zm0 0"/><path fill="#E9A07D" d="m0 180h151v60h-151zm0 0"/><path fill="#E9A07D" d="m181 360h150v60h-150zm0 0"/><path fill="#E9A07D" d="m361 420h136c8.285156 0 15-6.714844 15-15v-45h-151zm0 0"/><path fill="#E9A07D" d="m181 15c0-8.285156-6.714844-15-15-15h-151c-8.285156 0-15 6.714844-15 15v45h181zm0 0"/><path fill="#E9A07D" d="m15 420h136v-60h-151v45c0 8.285156 6.714844 15 15 15zm0 0"/><path fill="#E9A07D" d="m497 270h-76v60h91v-45c0-8.285156-6.714844-15-15-15zm0 0"/><path fill="#E9A07D" d="m181 240h180v-45c0-8.285156-6.714844-15-15-15h-165zm0 0"/><path fill="#E9A07D" d="m271 270h120v60h-120zm0 0"/></svg>
