<svg height="410pt" viewBox="0 0 409 410" width="410pt" xmlns="http://www.w3.org/2000/svg"><path fill="#000000" d="m204.9375 410h.152344c112.738281 0 204.5-91.984375 204.589844-204.742188.175781-113.113281-91.324219-204.976562-204.433594-205.257812h-.15625c-112.734375 0-204.5 91.882812-204.589844 204.640625-.191406 54.382813 21.34375 106.589844 59.816406 145.019531 38.609375 38.671875 89.976563 60.339844 144.621094 60.339844zm-106.898438-233.898438c-.007812-4.4375 3.5625-8.050781 8-8.097656l62.363282.152344.050781-62.261719c.003906-2.109375.851563-4.128906 2.355469-5.609375 1.5-1.484375 3.53125-2.304687 5.644531-2.28125h.003906l57.441407-.007812c2.117187-.003906 4.152343.832031 5.652343 2.328125 1.5 1.5 2.34375 3.53125 2.339844 5.648437l-.046875 62.351563 62.367188.042969c4.414062.003906 7.992187 3.582031 7.992187 8l-.042969 57.4375c0 2.152343-.84375 4.21875-2.347656 5.757812-1.488281 1.523438-3.519531 2.402344-5.652344 2.441406h-.007812l-62.363282-.152344-.046874 62.3125c-.003907 2.101563-.847657 4.109376-2.347657 5.578126-1.507812 1.476562-3.542969 2.289062-5.652343 2.261718h-.007813l-57.4375.007813c-2.121094.003906-4.152344-.832031-5.652344-2.332031-1.5-1.496094-2.34375-3.527344-2.34375-5.648438l.046875-62.347656-62.363281-.042969c-4.417969 0-8-3.582031-8-8zm0 0"/><path fill="#000000" d="m184.355469 233.6875-.046875 62.382812 41.441406.03125.046875-62.367187c.003906-2.082031.851563-4.074219 2.347656-5.523437 1.515625-1.460938 3.550781-2.257813 5.652344-2.210938h.007813l62.363281-.082031.03125-41.5-62.363281-.078125c-4.421876-.011719-8-3.601563-7.996094-8.023438l.046875-62.371094-41.4375-.039062-.050781 62.234375c-.003907 2.109375-.855469 4.125-2.359376 5.601563-1.5 1.476562-3.53125 2.292968-5.640624 2.261718h-.007813l-62.363281.082032-.03125 41.507812 62.363281.078125c4.421875.007813 8 3.59375 7.996094 8.015625zm0 0"/></svg>
