<svg id="Capa_1" enable-background="new 0 0 480 480" height="512" viewBox="0 0 480 480" width="512" xmlns="http://www.w3.org/2000/svg"><path fill="#994ff3" d="m464 112h-96v-96c-.01-8.832-7.168-15.99-16-16h-224c-8.832.01-15.99 7.168-16 16v96h-96c-8.832.01-15.99 7.168-16 16v224c.01 8.832 7.168 15.99 16 16h96v96c.01 8.832 7.168 15.99 16 16h224c8.832-.01 15.99-7.168 16-16v-96h96c8.832-.01 15.99-7.168 16-16v-224c-.01-8.832-7.168-15.99-16-16zm0 240h-104c-4.418 0-8 3.582-8 8v104h-224v-104c0-4.418-3.582-8-8-8h-104v-224h104c4.418 0 8-3.582 8-8v-104h224v104c0 4.418 3.582 8 8 8h104z"/><path fill="#994ff3" d="m296.406 238.188c-20.768-31.152-62.857-39.571-94.009-18.803-7.448 4.965-13.838 11.355-18.803 18.803l-10.146 15.212c-14.008 20.969-21.473 45.627-21.448 70.845.001 24.166 19.592 43.755 43.758 43.754 15.369-.001 29.61-8.064 37.518-21.243l1.579-2.632c1.705-2.841 5.39-3.763 8.232-2.058.845.507 1.551 1.214 2.058 2.058l1.579 2.633c12.434 20.722 39.311 27.441 60.033 15.007 13.179-7.908 21.243-22.15 21.243-37.519.024-25.216-7.441-49.872-21.448-70.84zm-12.162 113.812c-9.742-.029-18.763-5.136-23.8-13.475l-1.579-2.632c-6.251-10.419-19.765-13.797-30.184-7.546-3.097 1.858-5.688 4.45-7.546 7.546l-1.579 2.631c-7.887 13.144-24.937 17.406-38.081 9.519-8.359-5.016-13.474-14.049-13.475-23.798-.022-22.057 6.508-43.623 18.761-61.964l10.145-15.218c15.867-23.8 48.024-30.231 71.824-14.364 5.689 3.793 10.571 8.675 14.364 14.364l10.145 15.217c12.253 18.341 18.783 39.908 18.761 61.965-.018 15.322-12.434 27.738-27.756 27.755z"/><path fill="#994ff3" d="m196 208c20.187 0 36-21.084 36-48s-15.813-48-36-48-36 21.084-36 48 15.813 48 36 48zm0-80c10.841 0 20 14.654 20 32s-9.159 32-20 32-20-14.654-20-32 9.159-32 20-32z"/><path fill="#994ff3" d="m168 224c0-26.916-15.813-48-36-48s-36 21.084-36 48 15.813 48 36 48 36-21.084 36-48zm-36 32c-10.841 0-20-14.654-20-32s9.159-32 20-32 20 14.654 20 32-9.159 32-20 32z"/><path fill="#994ff3" d="m284 208c20.187 0 36-21.084 36-48s-15.813-48-36-48-36 21.084-36 48 15.813 48 36 48zm0-80c10.841 0 20 14.654 20 32s-9.159 32-20 32-20-14.654-20-32 9.159-32 20-32z"/><path fill="#994ff3" d="m312 224c0 26.916 15.813 48 36 48s36-21.084 36-48-15.813-48-36-48-36 21.084-36 48zm56 0c0 17.346-9.159 32-20 32s-20-14.654-20-32 9.159-32 20-32 20 14.654 20 32z"/></svg>