<?xml version="1.0" encoding="UTF-8" standalone="no"?>
<svg width="15px" height="15px" viewBox="0 0 15 15" version="1.1" xmlns="http://www.w3.org/2000/svg" xmlns:xlink="http://www.w3.org/1999/xlink">
    <!-- Generator: Sketch 48.2 (47327) - http://www.bohemiancoding.com/sketch -->
    <title>Group 5</title>
    <desc>Created with Sketch.</desc>
    <defs></defs>
    <g id="card_vecino" stroke="none" stroke-width="1" fill="none" fill-rule="evenodd" transform="translate(-228.000000, -21.000000)">
        <g id="Group-5" transform="translate(228.000000, 21.000000)" fill="#5E82FF">
            <path d="M0.554685584,11.8567562 L12.4491811,0.416435073 C13.1060959,-0.215396414 14.0854803,-0.117180105 14.6366973,0.63580734 C15.1879143,1.38879479 15.1022293,2.51141234 14.4453144,3.14324383 L2.55081894,14.5835649 C1.89390409,15.2153964 0.914519718,15.1171801 0.363302713,14.3641927 C-0.187914292,13.6112052 -0.102229262,12.4885877 0.554685584,11.8567562 Z" id="Rectangle-11-Copy"></path>
            <path d="M0.554685584,3.14324383 C-0.102229262,2.51141234 -0.187914292,1.38879479 0.363302713,0.63580734 C0.914519718,-0.117180105 1.89390409,-0.215396414 2.55081894,0.416435073 L14.4453144,11.8567562 C15.1022293,12.4885877 15.1879143,13.6112052 14.6366973,14.3641927 C14.0854803,15.1171801 13.1060959,15.2153964 12.4491811,14.5835649 L0.554685584,3.14324383 Z" id="Rectangle-11-Copy"></path>
        </g>
    </g>
</svg>