<?xml version="1.0" encoding="UTF-8" standalone="no"?>
<svg width="31px" height="37px" viewBox="0 0 31 37" version="1.1" xmlns="http://www.w3.org/2000/svg" xmlns:xlink="http://www.w3.org/1999/xlink">
    <!-- Generator: Sketch 48.2 (47327) - http://www.bohemiancoding.com/sketch -->
    <title>PDF Icon</title>
    <desc>Created with Sketch.</desc>
    <defs></defs>
    <g id="Card-documento" stroke="none" stroke-width="1" fill="none" fill-rule="evenodd" transform="translate(0.000000, -28.000000)">
        <g id="PDF-Icon" transform="translate(0.000000, 28.000000)" fill="#5E82FF">
            <g id="Group">
                <g id="PDF-icon" fill-rule="nonzero">
                    <path d="M4.84882438,8 C4.37970744,8 4,7.62766179 4,7.1676493 L4,0.832350697 C4,0.372338212 4.37970744,0 4.84882438,0 L23.1511756,0 C23.6197267,0 24,0.372338212 24,0.832350697 C24,1.29236318 23.6197267,1.66470139 23.1511756,1.66470139 L5.69764876,1.66470139 L5.69764876,7.1676493 C5.69764876,7.62766179 5.31737544,8 4.84882438,8 Z" id="Shape"></path>
                    <path d="M30.1443602,37 L4.85563983,37 C4.38275622,37 4,36.5966387 4,36.0996399 L4,17.705173 C4,17.2075739 4.38275622,16.8048128 4.85563983,16.8048128 C5.32852344,16.8048128 5.71127966,17.2075739 5.71127966,17.705173 L5.71127966,35.1992797 L29.2887203,35.1992797 L29.2887203,7.90036014 C29.2887203,7.4027611 29.672047,7 30.1443602,7 C30.6166734,7 31,7.4027611 31,7.90036014 L31,36.0990396 C31,36.5966387 30.6166734,37 30.1443602,37 Z" id="Shape"></path>
                    <path d="M18.1191346,18 L0.881452356,18 C0.39430302,18 0,17.5782286 0,17.0571429 L0,7.94285714 C0,7.42177143 0.39430302,7 0.881452356,7 L18.118547,7 C18.6051087,7 18.9999993,7.42177143 18.9999993,7.94285714 L18.9999993,17.0571429 C19.000587,17.5782286 18.6056963,18 18.1191346,18 Z M1.76290471,16.1142857 L17.2370946,16.1142857 L17.2370946,8.88571429 L1.76290471,8.88571429 L1.76290471,16.1142857 Z" id="Shape"></path>
                    <path d="M30.1818193,8 C29.9739357,8 29.7655065,7.92071863 29.6061837,7.76160533 L23.2430906,1.41359008 C22.9217168,1.09261065 22.918443,0.570124398 23.2365431,0.245291007 C23.5540976,-0.0789918184 24.0729881,-0.0822952088 24.3938163,0.238684226 L30.7569094,6.58669947 C31.0782832,6.9076789 31.081557,7.43016515 30.7634569,7.75499854 C30.6035884,7.91851637 30.3929767,8 30.1818193,8 Z" id="Shape"></path>
                    <path d="M23.5,8 C23.224,8 23,7.62495633 23,7.16160134 L23,0.838398659 C23,0.375043667 23.224,0 23.5,0 C23.776,0 24,0.375043667 24,0.838398659 L24,7.16160134 C24,7.62495633 23.776,8 23.5,8 Z" id="Shape"></path>
                    <path d="M30.1616599,8 L23.8383401,8 C23.3755764,8 23,7.77633333 23,7.5 C23,7.22366667 23.3755764,7 23.8383401,7 L30.1616599,7 C30.6244236,7 31,7.22366667 31,7.5 C31,7.77633333 30.6244236,8 30.1616599,8 Z" id="Shape"></path>
                </g>
                <text id="PDF" font-family="Roboto-Bold, Roboto" font-size="6" font-weight="bold">
                    <tspan x="4" y="15">PDF</tspan>
                </text>
            </g>
        </g>
    </g>
</svg>