<?xml version="1.0" encoding="UTF-8" standalone="no"?>
<svg width="29px" height="26px" viewBox="0 0 29 26" version="1.1" xmlns="http://www.w3.org/2000/svg" xmlns:xlink="http://www.w3.org/1999/xlink">
    <!-- Generator: Sketch 49.3 (51167) - http://www.bohemiancoding.com/sketch -->
    <title>Group</title>
    <desc>Created with Sketch.</desc>
    <defs></defs>
    <g id="Page-1" stroke="none" stroke-width="1" fill="none" fill-rule="evenodd">
        <g id="INFO-docs" transform="translate(-321.000000, -879.000000)" fill="#5E82FF" fill-rule="nonzero">
            <g id="Group-3" transform="translate(319.000000, 184.000000)">
                <g id="listado-docs">
                    <g id="Group" transform="translate(2.000000, 695.000000)">
                        <path d="M28.71,3.90562914 C28.71,2.09515926 27.3287508,0.627483444 25.6248936,0.627483444 L3.08510638,0.627483444 C1.38124918,0.627483444 1.37006246e-16,2.09515926 0,3.90562914 L0,22.0075497 C-8.22037474e-16,22.876968 0.325037061,23.7107771 0.903606739,24.3255487 C1.48217642,24.9403203 2.2668853,25.2856954 3.08510638,25.2856954 L25.6248936,25.2856954 C27.3287508,25.2856954 28.71,23.8180195 28.71,22.0075497 L28.71,3.90562914 Z M3.08510638,1.93874172 L25.6248936,1.93874172 C26.6472079,1.93874172 27.4759574,2.81934721 27.4759574,3.90562914 L27.4759574,12.9106954 L18.5075532,18.1557285 C18.0188575,18.441497 17.4105123,18.3433932 17.023617,17.9164238 L10.5448936,10.7700662 C9.70074507,9.8368354 8.34205898,9.69761641 7.3456383,10.4422517 L1.22787234,15.0316556 L1.22787234,3.90562914 C1.22786961,3.38284022 1.42373861,2.88155856 1.77221606,2.51250657 C2.12069352,2.14345458 2.59310553,1.93699909 3.08510638,1.93874172 Z M25.6248936,23.9744371 L3.08510638,23.9744371 C2.06279206,23.9744371 1.23404255,23.0938316 1.23404255,22.0075497 L1.23404255,16.5068212 C1.34501415,16.4977689 1.45161526,16.4569913 1.54255319,16.3888079 L8.06446809,11.5142053 C8.56298575,11.1409355 9.24335259,11.2105827 9.6656383,11.6781126 L16.1443617,18.8244702 C16.9181523,19.6784089 18.1348426,19.8746166 19.112234,19.3030795 L27.4759574,14.4055298 L27.4759574,22.0075497 C27.4759574,23.0938316 26.6472079,23.9744371 25.6248936,23.9744371 Z" id="Shape"></path>
                        <path d="M22.0525532,8.52672185 C22.0525532,6.45735479 20.4737854,4.77980132 18.5262766,4.77980132 C16.5787678,4.77980132 15,6.45735479 15,8.52672185 C15.0033963,10.5945922 16.5801764,12.2700335 18.5262766,12.2736424 C20.4737854,12.2736424 22.0525532,10.5960889 22.0525532,8.52672185 Z M18.5262766,6.08778146 C19.7922425,6.08778146 20.8185106,7.17826459 20.8185106,8.52344371 C20.8185106,9.86862283 19.7922425,10.959106 18.5262766,10.959106 C17.2603107,10.959106 16.2340426,9.86862283 16.2340426,8.52344371 C16.2374394,7.18029367 17.2622169,6.09286007 18.5262766,6.0910596 L18.5262766,6.08778146 Z" id="Shape"></path>
                    </g>
                </g>
            </g>
        </g>
    </g>
</svg>