<svg xmlns="http://www.w3.org/2000/svg" xmlns:xlink="http://www.w3.org/1999/xlink" version="1.1" x="0px" y="0px" viewBox="0 0 100 125" style="enable-background:new 0 0 100 100;" xml:space="preserve"><style type="text/css">

	.st0{display:inline;}
	.st1{display:none;}

</style><g><path fill="#ffffff" d="M50,20c16.6,0,30,13.4,30,30S66.6,80,50,80S20,66.6,20,50S33.4,20,50,20 M50,16c-18.7,0-34,15.3-34,34s15.3,34,34,34   s34-15.3,34-34S68.7,16,50,16L50,16z M50,33.5L50,33.5 M52.1,35.6c0.6-0.6,0.9-1.3,0.9-2.1s-0.3-1.6-0.9-2.1   c-1.1-1.1-3.1-1.1-4.2,0c-0.6,0.6-0.9,1.3-0.9,2.1s0.3,1.6,0.9,2.1c0.6,0.6,1.3,0.9,2.1,0.9S51.6,36.2,52.1,35.6z M52,66.5v-25   c0-1.1-0.9-2-2-2s-2,0.9-2,2v25c0,1.1,0.9,2,2,2S52,67.6,52,66.5z"/></g><text x="0" y="115" fill="#000000" font-size="5px" font-weight="bold" font-family="'Helvetica Neue', Helvetica, Arial-Unicode, Arial, Sans-serif">Created by Setyo Ari Wibowo</text><text x="0" y="120" fill="#000000" font-size="5px" font-weight="bold" font-family="'Helvetica Neue', Helvetica, Arial-Unicode, Arial, Sans-serif">from the Noun Project</text></svg>
