<?xml version="1.0" encoding="UTF-8" standalone="no"?>
<svg width="45px" height="45px" viewBox="0 0 45 45" version="1.1" xmlns="http://www.w3.org/2000/svg" xmlns:xlink="http://www.w3.org/1999/xlink">
    <!-- Generator: Sketch 48.2 (47327) - http://www.bohemiancoding.com/sketch -->
    <title>subir</title>
    <desc>Created with Sketch.</desc>
    <defs></defs>
    <g id="VILLA-X-/-obras" stroke="none" stroke-width="1" fill="none" fill-rule="evenodd" transform="translate(-1278.000000, -16.000000)">
        <g id="header">
            <g id="subir" transform="translate(1278.000000, 16.000000)">
                <g>
                    <circle id="Oval-5" fill="#5E82FF" cx="22.5" cy="22.5" r="22.5"></circle>
                    <path d="M21.2142857,14.5 L21.2142857,21.2142857 L14.5,21.2142857 C13.9477153,21.2142857 13.5,21.662001 13.5,22.2142857 L13.5,22.7857143 C13.5,23.337999 13.9477153,23.7857143 14.5,23.7857143 L21.2142857,23.7857143 L21.2142857,30.5 C21.2142857,31.0522847 21.662001,31.5 22.2142857,31.5 L22.7857143,31.5 C23.337999,31.5 23.7857143,31.0522847 23.7857143,30.5 L23.7857143,23.7857143 L30.5,23.7857143 C31.0522847,23.7857143 31.5,23.337999 31.5,22.7857143 L31.5,22.2142857 C31.5,21.662001 31.0522847,21.2142857 30.5,21.2142857 L23.7857143,21.2142857 L23.7857143,14.5 C23.7857143,13.9477153 23.337999,13.5 22.7857143,13.5 L22.2142857,13.5 C21.662001,13.5 21.2142857,13.9477153 21.2142857,14.5 Z" id="Shape" fill="#FFFFFF"></path>
                </g>
            </g>
        </g>
    </g>
</svg>